<?xml version="1.0" encoding="UTF-8" standalone="no"?>
<!-- Created with Inkscape (http://www.inkscape.org/) -->

<svg
   width="210mm"
   height="297mm"
   viewBox="0 0 210 297"
   version="1.1"
   id="svg1"
   xml:space="preserve"
   inkscape:version="1.4.2 (f4327f4, 2025-05-13)"
   sodipodi:docname="Logov4.svg"
   xmlns:inkscape="http://www.inkscape.org/namespaces/inkscape"
   xmlns:sodipodi="http://sodipodi.sourceforge.net/DTD/sodipodi-0.dtd"
   xmlns="http://www.w3.org/2000/svg"
   xmlns:svg="http://www.w3.org/2000/svg"><sodipodi:namedview
     id="namedview1"
     pagecolor="#505050"
     bordercolor="#eeeeee"
     borderopacity="1"
     inkscape:showpageshadow="0"
     inkscape:pageopacity="0"
     inkscape:pagecheckerboard="0"
     inkscape:deskcolor="#505050"
     inkscape:document-units="mm"
     inkscape:zoom="0.7616793"
     inkscape:cx="372.86034"
     inkscape:cy="621.65271"
     inkscape:window-width="1135"
     inkscape:window-height="1041"
     inkscape:window-x="-7"
     inkscape:window-y="0"
     inkscape:window-maximized="0"
     inkscape:current-layer="layer1" /><defs
     id="defs1" /><g
     inkscape:label="Capa 1"
     inkscape:groupmode="layer"
     id="layer1"><ellipse
       style="fill:#000000;stroke:#000000;stroke-width:0.264583;stroke-opacity:1"
       id="path25"
       cx="108.68974"
       cy="172.67548"
       rx="98.127808"
       ry="95.05748" /><path
       style="fill:#ffffff;stroke:#000000;stroke-opacity:1"
       d="m 69.61799,201.33942 c -2.516161,-0.81218 -4.280979,-2.79601 -4.033126,-4.53366 0.06235,-0.43713 0.142108,-0.46181 1.67143,-0.51722 0.883274,-0.032 1.690974,0.005 1.794889,0.0828 0.103915,0.0776 0.317258,0.40067 0.474097,0.71801 0.368062,0.74472 1.714679,1.44246 2.783912,1.44246 1.541289,0 2.775296,-0.85309 2.660393,-1.83917 -0.09192,-0.78887 -0.814176,-1.20604 -3.113195,-1.79816 -4.521461,-1.16452 -6.103283,-2.51476 -6.103283,-5.20976 0,-2.00248 1.19193,-3.59236 3.320592,-4.42925 1.578079,-0.62042 4.612818,-0.63391 6.132886,-0.0273 1.9539,0.77979 3.385851,2.45796 3.385851,3.96803 v 0.68081 h -1.857703 -1.857702 l -0.458281,-0.7209 c -0.574274,-0.90336 -1.570017,-1.28004 -2.894683,-1.09502 -1.69831,0.2372 -2.419995,1.63728 -1.225211,2.37692 0.32252,0.19965 1.649151,0.63393 2.948069,0.96506 1.298919,0.33113 2.681597,0.7682 3.072619,0.97126 1.837182,0.95409 2.640922,2.21162 2.644768,4.138 0.0065,3.25397 -2.470077,5.11417 -6.768358,5.08382 -1.002221,-0.007 -2.162305,-0.12264 -2.577964,-0.2568 z m 5.495451,-0.5854 c 3.204239,-0.98397 4.485468,-4.45037 2.49702,-6.75574 -0.811847,-0.94125 -1.643385,-1.32834 -4.539651,-2.11327 -3.223577,-0.87364 -3.62394,-1.10678 -3.6995,-2.15432 -0.03176,-0.44031 0.03885,-0.98428 0.156909,-1.20884 0.301836,-0.57411 1.31356,-0.95271 2.545935,-0.95271 1.387681,0 2.269969,0.39674 2.759137,1.24071 l 0.395627,0.68257 h 1.492823 c 1.665759,0 1.690998,-0.0278 1.133874,-1.25013 -0.456724,-1.00203 -1.392922,-1.89139 -2.569554,-2.441 -0.810966,-0.37881 -1.252218,-0.44127 -3.117439,-0.44127 -1.865221,0 -2.306473,0.0625 -3.117439,0.44127 -1.851406,0.8648 -2.800595,2.181 -2.800595,3.88346 0,2.41083 1.546414,3.67758 5.775646,4.73113 2.238571,0.55766 3.087595,0.99779 3.366807,1.74536 0.577136,1.54524 -0.773798,2.7892 -3.029061,2.7892 -1.561027,0 -2.685959,-0.51471 -3.249348,-1.48673 -0.382897,-0.66061 -0.388835,-0.66282 -1.782533,-0.66282 -0.83529,0 -1.398355,0.0799 -1.398355,0.1985 0,0.47127 0.632952,1.67852 1.190424,2.27053 1.663852,1.76695 5.031203,2.39247 7.989273,1.4841 z m 54.963969,0.5854 c -2.15847,-0.69672 -3.7523,-2.09046 -4.66767,-4.08168 -2.02435,-4.4036 -0.39036,-9.77068 3.54545,-11.64553 4.23549,-2.01762 9.05604,-0.53308 10.95243,3.3729 2.41811,4.98057 0.20404,10.8821 -4.62153,12.31851 -1.23287,0.36698 -4.12114,0.38683 -5.20868,0.0358 z m 4.70079,-0.40557 c 1.48534,-0.39383 2.57073,-1.07705 3.68802,-2.32149 1.41209,-1.57278 1.80303,-2.75404 1.80892,-5.4657 0.005,-2.0801 -0.0301,-2.28675 -0.5814,-3.47102 -1.43614,-3.08504 -3.9212,-4.55015 -7.42827,-4.37947 -2.94804,0.14348 -5.26432,1.69345 -6.50063,4.34998 -0.57006,1.22493 -0.59976,1.40299 -0.59976,3.59667 0,2.11256 0.0437,2.40295 0.51656,3.43034 1.01154,2.19796 2.25109,3.33829 4.46307,4.1058 1.48165,0.5141 3.07753,0.56745 4.63349,0.15489 z m -3.51822,-2.48335 c -2.26637,-0.8234 -3.3072,-2.77137 -3.12644,-5.85131 0.10315,-1.75767 0.55388,-2.77109 1.66186,-3.73651 1.36263,-1.1873 3.39738,-1.41079 5.03972,-0.55356 1.68135,0.8776 2.41058,2.395 2.41723,5.02986 0.004,1.53263 -0.0666,1.97428 -0.4371,2.74016 -1.03966,2.14904 -3.39723,3.1554 -5.55527,2.37136 z m 3.12179,-0.56241 c 0.82623,-0.3521 1.95605,-1.66874 2.2003,-2.56413 0.11025,-0.40416 0.2001,-1.38395 0.19966,-2.1773 -0.002,-2.97066 -1.58202,-4.8082 -4.13532,-4.8082 -1.20114,0 -1.71111,0.20484 -2.64255,1.06145 -1.01872,0.93687 -1.4432,2.11607 -1.41796,3.93907 0.0294,2.12712 0.80626,3.60957 2.31736,4.4224 0.82099,0.44161 2.5885,0.506 3.47851,0.12671 z m 13.831,3.37504 c -3.50739,-1.2346 -5.3822,-4.06996 -5.3822,-8.13975 0,-2.53545 0.89683,-4.75122 2.55143,-6.30376 1.74265,-1.63516 4.37425,-2.39256 6.91952,-1.99152 4.09759,0.64564 6.77752,3.93492 6.77752,8.31856 0,3.8513 -2.05691,6.9123 -5.44142,8.09765 -1.36946,0.47962 -4.08896,0.48906 -5.42485,0.0188 z m 4.70326,-0.32928 c 3.82444,-1.01402 6.23666,-4.93444 5.59022,-9.08541 -0.41599,-2.6712 -1.86798,-4.7357 -4.12679,-5.86768 -1.18454,-0.59362 -1.34789,-0.62339 -3.42068,-0.62339 -1.96615,0 -2.28125,0.0499 -3.25708,0.51545 -5.61268,2.6779 -5.95649,11.42785 -0.564,14.35362 1.87642,1.01808 3.74421,1.24674 5.77833,0.70741 z m -3.285,-2.37785 c -2.28437,-0.76298 -3.2804,-2.37796 -3.29054,-5.33533 -0.005,-1.57468 0.0517,-1.86828 0.56074,-2.88492 1.75208,-3.49887 6.49849,-3.37387 8.1435,0.21448 0.35373,0.77161 0.44121,1.28852 0.44269,2.61581 0.003,2.49074 -0.67745,4.00421 -2.21084,4.91896 -0.88625,0.5287 -2.75133,0.76967 -3.64555,0.471 z m 3.51616,-1.00872 c 2.27465,-1.53232 2.60299,-5.77041 0.61698,-7.96366 -0.91618,-1.01179 -1.72426,-1.31565 -3.20823,-1.20638 -1.43873,0.10594 -2.50562,0.83407 -3.18059,2.17066 -0.41881,0.82935 -0.48234,1.19805 -0.48025,2.787 0.002,1.50009 0.0755,1.9703 0.40672,2.60051 0.8503,1.61795 1.92685,2.23686 3.7645,2.1642 1.07051,-0.0423 1.48849,-0.15327 2.08087,-0.55233 z m -111.1219,3.62888 c -0.04988,-0.13233 -0.06847,-3.78896 -0.04131,-8.12585 l 0.04939,-7.88526 1.936591,-0.0548 1.936591,-0.0548 v 8.18067 8.18067 h -1.895287 c -1.342721,0 -1.921729,-0.0702 -1.985983,-0.2406 z m 3.357386,-7.6124 c 0.02835,-4.10759 0.02406,-7.61277 -0.0095,-7.78928 -0.0505,-0.26531 -0.304305,-0.32094 -1.464251,-0.32094 h -1.403164 v 7.78928 7.78928 h 1.412707 1.412707 z m 3.546855,-0.32094 v -8.17394 h 1.846227 1.846227 l 3.207803,4.99022 3.207803,4.99022 0.05037,-4.99022 0.05037,-4.99022 h 1.88622 1.88622 v 8.17394 8.17394 h -1.963014 -1.963015 l -3.091015,-4.84995 -3.091016,-4.84995 -0.05048,4.84995 -0.05048,4.84995 h -1.886113 -1.886113 z m 3.400843,2.5804 c 0,-3.965 0.05412,-5.19052 0.226654,-5.13197 0.12466,0.0423 1.707498,2.38629 3.517418,5.20888 l 3.290764,5.13197 h 1.583846 1.583845 v -7.78928 -7.78928 h -1.417017 -1.417018 l -0.04263,3.02916 c -0.02344,1.66604 -0.05,4.02432 -0.05902,5.24062 -0.01306,1.76193 -0.07161,2.22176 -0.288013,2.2622 -0.171569,0.0321 -1.518673,-1.89826 -3.65725,-5.24062 l -3.385635,-5.29136 h -1.479459 -1.479459 v 7.78928 7.78928 h 1.511485 1.511486 z m 32.960671,5.35156 c -0.05298,-0.14052 -0.07271,-3.0406 -0.04385,-6.4446 l 0.05246,-6.18909 -2.456164,-0.0532 -2.456164,-0.0532 v -1.63479 -1.63478 h 6.896153 6.896153 v 1.63478 1.63479 l -2.40639,0.0538 -2.406391,0.0538 -0.04977,6.38918 -0.04977,6.38918 -1.93997,0.0548 c -1.477677,0.0418 -1.962923,-0.006 -2.036288,-0.20066 z m 3.503918,-6.58566 v -6.44299 h 2.456164 2.456164 v -1.3463 -1.34629 h -6.423813 -6.423814 v 1.34629 1.3463 h 2.456164 2.456164 v 6.44299 6.44298 h 1.511486 1.511485 z m 5.2902,6.60697 c 0,-0.12137 1.113731,-3.302 2.474958,-7.06806 1.361227,-3.76606 2.644348,-7.34503 2.851381,-7.95326 l 0.376422,-1.10589 h 2.135926 2.13592 l 2.85353,7.79297 c 1.56944,4.28614 2.85353,7.96441 2.85353,8.17394 0,0.35507 -0.13224,0.38097 -1.94543,0.38097 h -1.94543 l -0.47488,-1.49054 -0.47489,-1.49054 -2.94269,-0.0529 -2.942702,-0.0529 -0.121657,0.49342 c -0.06691,0.27139 -0.29532,0.96592 -0.507573,1.5434 l -0.385915,1.04997 h -1.97025 c -1.356261,0 -1.97025,-0.0688 -1.97025,-0.22067 z m 4.063546,-1.70698 0.5048,-1.54299 3.325251,0.0524 3.32524,0.0524 0.47492,1.49054 0.47493,1.49054 h 1.56479 1.5648 l -0.34857,-0.91355 c -0.19172,-0.50246 -1.47925,-4.00764 -2.86119,-7.78929 l -2.51261,-6.87572 h -1.72602 -1.72602 l -2.7134,7.54887 c -1.492369,4.15188 -2.751804,7.65706 -2.798743,7.78928 -0.06375,0.17958 0.298332,0.24041 1.430839,0.24041 h 1.516183 z m 14.074281,-6.24343 v -8.1768 h 1.88684 1.88685 l 0.0497,6.49107 0.0498,6.49107 3.49531,0.0162 c 1.92242,0.009 3.60503,0.0305 3.73912,0.0481 0.18197,0.0238 0.22989,0.43439 0.18894,1.61864 l -0.0549,1.58671 -5.62083,0.0509 -5.62084,0.0509 z m 10.76933,6.53629 v -1.25013 h -3.68424 -3.68425 v -6.53915 -6.53915 h -1.51148 -1.51149 v 7.78928 7.78928 h 5.19573 5.19573 z m 38.54289,-6.53915 v -8.17394 h 1.88443 1.88444 l 0.0522,2.90729 0.0522,2.90729 2.53776,-2.90729 2.53776,-2.90729 h 2.34119 c 1.88911,0 2.32939,0.051 2.2801,0.26421 -0.0336,0.14532 -1.37892,1.71152 -2.98959,3.48046 -1.61068,1.76894 -2.95443,3.28706 -2.98612,3.37362 -0.0317,0.0865 1.43709,2.12718 3.26395,4.53473 1.85304,2.44207 3.24974,4.45046 3.15912,4.54271 -0.0893,0.0909 -1.12786,0.14074 -2.30782,0.11066 l -2.14538,-0.0547 -2.37314,-3.22653 -2.37315,-3.22652 -0.51958,0.58505 c -0.51463,0.57949 -0.51957,0.61059 -0.51957,3.2746 v 2.68956 h -1.88936 -1.88935 z m 3.40084,5.14051 v -2.64877 l 0.58056,-0.71697 c 0.31931,-0.39433 0.68259,-0.71697 0.80728,-0.71697 0.1247,0 1.33006,1.51134 2.67858,3.35854 l 2.45186,3.35853 1.77008,0.007 1.77008,0.007 -0.53982,-0.72123 c -0.2969,-0.39667 -1.75234,-2.3218 -3.23433,-4.27806 -1.48198,-1.95626 -2.69451,-3.67603 -2.69451,-3.82171 0,-0.22421 1.27212,-1.68093 5.27143,-6.03633 l 0.66226,-0.72123 h -1.80249 -1.80249 l -2.69487,3.07724 c -1.48217,1.69249 -2.81383,3.07725 -2.95924,3.07725 -0.21553,0 -0.26438,-0.56854 -0.26438,-3.07725 v -3.07724 h -1.41702 -1.41702 v 7.78928 7.78928 h 1.41702 1.41702 z M 26.729587,195.05874 c -2.653822,-0.68007 -6.277087,-1.90474 -6.521219,-2.20418 -0.508126,-0.62325 1.61603,-6.85707 3.920825,-11.50655 2.776481,-5.60103 6.060963,-10.10133 11.19036,-15.33271 4.449229,-4.53769 8.71961,-7.99541 13.99372,-11.3307 14.933071,-9.44351 34.040249,-15.19587 53.434107,-16.08673 l 2.86286,-0.1315 0.003,-2.61494 c 0.005,-4.03909 0.51332,-5.86853 2.1248,-7.64817 0.96549,-1.06624 1.87433,-1.61489 3.85466,-2.32698 3.04658,-1.09549 5.09219,-2.8361 6.35654,-5.40877 1.81136,-3.6857 1.08389,-7.79021 -1.90998,-10.77652 -3.41814,-3.4095 -8.21247,-4.1374 -12.38989,-1.88108 -2.92381,1.57922 -5.027219,5.16876 -5.030737,8.58512 -3.88e-4,0.37725 -0.172187,0.97222 -0.381774,1.32216 -0.40134,0.67009 -1.642265,1.37165 -2.439137,1.37897 -0.736612,0.007 -2.075444,-0.75414 -2.379268,-1.35222 -0.564152,-1.11053 -0.102419,-4.5547 0.955158,-7.12472 1.459798,-3.54746 4.627069,-6.71062 8.183568,-8.17295 2.31631,-0.9524 3.35721,-1.13756 6.26469,-1.11441 2.37999,0.0189 2.95797,0.0887 4.40361,0.53126 3.00674,0.92052 4.987,2.1689 7.14557,4.50468 2.20084,2.38151 3.39227,4.97193 3.78571,8.2309 0.66954,5.54592 -1.86326,11.06096 -6.51687,14.19019 -1.41088,0.94872 -3.47504,1.98165 -4.66144,2.33263 -0.25978,0.0769 -0.67459,0.32452 -0.92179,0.55037 -0.80303,0.73366 -0.96756,1.45656 -0.96756,4.25102 v 2.6026 h 1.10617 c 0.6084,0 2.20255,0.0874 3.54255,0.19428 29.96361,2.38936 55.85538,14.43726 70.26122,32.6938 4.56648,5.7871 8.18122,12.73406 10.02678,19.26989 0.43852,1.55294 0.48535,1.91456 0.28052,2.1658 -0.26699,0.32748 -4.04212,1.58999 -6.61999,2.21392 -2.10187,0.50872 -4.65952,0.52068 -6.21128,0.0291 -1.57592,-0.49929 -2.59947,-1.14973 -3.73853,-2.37574 -1.0816,-1.16417 -1.69187,-2.28456 -2.33233,-4.28189 -0.62953,-1.96328 -1.97917,-5.12493 -3.05968,-7.16759 l -0.94284,-1.78241 -0.40701,0.82077 c -0.22538,0.45449 -0.64031,0.93343 -0.92979,1.07323 -0.41267,0.1993 -3.62689,0.27064 -15.26167,0.33875 -13.43165,0.0786 -14.74926,0.0588 -14.85578,-0.2238 -0.0643,-0.17054 -0.0372,-0.36625 0.0602,-0.43491 0.0974,-0.0686 1.26749,-1.44468 2.60019,-3.05783 l 2.42309,-2.933 h 11.70412 11.70413 l -1.18908,-1.48132 c -5.88054,-7.32579 -14.58759,-14.16806 -24.25182,-19.05781 -20.95859,-10.60431 -46.728341,-11.51977 -68.527222,-2.4344 -11.416846,4.75833 -22.166977,12.52544 -29.057211,20.99423 l -1.532127,1.88313 13.130745,0.0962 13.130745,0.0962 2.016835,2.4041 c 1.10926,1.32225 2.269709,2.69091 2.578776,3.04147 0.309066,0.35055 0.522096,0.74306 0.473399,0.87224 -0.06876,0.1824 -3.353828,0.23007 -14.705328,0.21339 -19.96177,-0.0293 -18.016597,0.0475 -18.792266,-0.74213 -0.35331,-0.35965 -0.642381,-0.84626 -0.642381,-1.08135 0,-0.35021 -0.04915,-0.38591 -0.272047,-0.19761 -0.511797,0.43238 -2.912896,5.68039 -3.788177,8.2797 -0.480871,1.42804 -1.127873,2.99901 -1.437782,3.49106 -0.833841,1.32391 -2.282521,2.60927 -3.717649,3.29854 -1.168117,0.56102 -1.445017,0.61381 -3.443037,0.65638 -1.668641,0.0356 -2.523453,-0.0436 -3.684246,-0.34104 z m 5.445202,-0.27638 c 1.489581,-0.39495 2.476404,-0.94032 3.548312,-1.96096 1.300655,-1.23846 1.975644,-2.41549 2.74995,-4.79531 0.373563,-1.14815 1.011225,-2.86741 1.417025,-3.82059 0.961848,-2.25927 2.83201,-5.67577 3.106864,-5.67577 0.118477,0 0.320845,0.38333 0.449708,0.85185 0.128862,0.46851 0.444312,1.05271 0.700998,1.29821 l 0.466703,0.44637 15.969407,0.0513 15.969407,0.0513 -1.185134,-1.39759 c -0.651824,-0.76868 -1.736929,-2.06834 -2.411345,-2.88814 l -1.226211,-1.49054 H 58.440645 c -8.112808,0 -13.289828,-0.07 -13.289828,-0.17973 0,-0.56719 3.994937,-5.13 7.075051,-8.08075 12.345592,-11.82712 29.049762,-19.43529 46.960559,-21.38892 3.169993,-0.34576 14.600413,-0.34737 17.665483,-0.002 10.13598,1.14052 19.5538,3.85748 28.15142,8.12143 7.08035,3.51147 14.37601,8.68614 19.88063,14.10095 2.52528,2.48408 6.09803,6.66968 6.09803,7.14406 0,0.24933 -1.49311,0.28544 -11.80057,0.28544 h -11.80057 l -2.3804,2.88842 -2.3804,2.88843 14.57525,-0.0516 14.57525,-0.0516 0.45526,-0.53883 c 0.25039,-0.29636 0.50958,-0.88465 0.57597,-1.30731 0.0854,-0.54398 0.20423,-0.75177 0.40661,-0.7113 0.59347,0.11868 3.42674,5.93476 4.4782,9.19275 0.75312,2.33355 1.31902,3.38309 2.50881,4.65285 1.94456,2.07528 4.54406,2.93246 7.55092,2.4899 1.53111,-0.22535 7.0947,-1.75944 7.82628,-2.158 0.1919,-0.10455 0.3489,-0.32229 0.3489,-0.48388 0,-0.60018 -1.89161,-6.02168 -2.88794,-8.27705 -9.52269,-21.5563 -34.09418,-37.84874 -65.22338,-43.24718 -4.95055,-0.85853 -13.88377,-1.82794 -16.8446,-1.82794 -0.37476,0 -0.36463,-5.9573 0.0114,-6.69295 0.42131,-0.8243 1.0895,-1.35073 2.21462,-1.74477 4.83723,-1.69413 8.41321,-5.20805 9.90927,-9.73728 0.6649,-2.01294 0.83226,-5.25108 0.38269,-7.40462 -1.4037,-6.7241 -7.73298,-11.6289 -14.9448,-11.58129 -6.86195,0.0453 -12.776217,4.67117 -14.438067,11.29279 -0.39467,1.57256 -0.556007,3.35045 -0.367206,4.04651 0.350574,1.29247 2.060078,1.83891 3.315375,1.05976 0.82771,-0.51375 1.033804,-0.99148 1.215669,-2.81796 0.415905,-4.17692 2.896539,-7.31792 6.912559,-8.75272 1.55195,-0.55446 4.31302,-0.68556 5.98537,-0.28419 2.7157,0.65178 5.74053,2.89989 6.97658,5.18514 2.18898,4.04704 1.50594,8.72204 -1.75987,12.04534 -1.35349,1.37731 -2.51378,2.08928 -4.55864,2.79727 -0.74383,0.25754 -1.70639,0.67942 -2.13902,0.93751 -1.09512,0.6533 -2.31248,2.05555 -2.90629,3.34767 -0.4769,1.03774 -0.50485,1.26906 -0.56758,4.69764 l -0.066,3.60615 h -0.59957 c -1.40497,0 -6.902545,0.42014 -10.166892,0.77699 -8.685799,0.94951 -16.320928,2.64447 -24.623584,5.46631 -11.417452,3.88047 -20.792775,8.96889 -29.473969,15.99689 -2.670657,2.16207 -8.426318,8.02039 -10.555775,10.74405 -4.012717,5.13243 -7.208764,11.05438 -9.069348,16.80457 -0.584834,1.80745 -1.063335,3.41472 -1.063335,3.57172 0,0.39281 0.314847,0.53515 3.022971,1.36666 4.648793,1.42739 6.54253,1.68062 8.562641,1.145 z m 50.109974,-13.25898 c -0.611852,-0.49724 -5.014877,-5.91569 -5.014877,-6.1714 0,-0.24954 3.935104,-0.28415 32.308004,-0.28415 25.72638,0 32.308,0.049 32.308,0.24049 0,0.13227 -0.90353,1.3223 -2.00786,2.64451 -1.10432,1.32221 -2.25366,2.70693 -2.55408,3.07716 l -0.54622,0.67315 -27.12042,0.0126 c -18.923141,0.009 -27.19663,-0.0494 -27.372547,-0.19233 z m 56.390947,-2.92519 c 1.19407,-1.44327 2.23903,-2.74149 2.32213,-2.88492 0.12692,-0.21907 -4.91314,-0.26079 -31.50873,-0.26079 H 77.829287 l 2.412633,2.88485 2.412633,2.88485 26.925067,7e-5 26.92506,7e-5 z"
       id="path1" /><path
       style="fill:#ffffff;stroke:#000000;stroke-width:0.928352;stroke-opacity:1"
       d="m 105.03619,739.44939 c -8.172548,-1.25961 -28.830052,-8.34215 -29.84102,-10.23116 -2.583216,-4.82678 10.499139,-38.60341 22.995682,-59.3713 15.181838,-25.23056 45.246928,-56.72226 73.227468,-76.70214 55.67321,-39.75422 131.08173,-65.0403 209.43824,-70.22909 l 16.47826,-1.0912 0.0165,-4.68699 c 0.0321,-9.10928 1.73063,-20.79841 3.68111,-25.33243 3.09718,-7.19957 9.38673,-12.68651 19.57658,-17.07843 10.5506,-4.5474 16.62809,-8.84208 20.52237,-14.50223 4.66126,-6.7749 6.59058,-12.79396 6.63611,-20.7032 0.0344,-5.96816 -0.39331,-7.94308 -2.86288,-13.22044 -3.76083,-8.03669 -10.45192,-14.73046 -18.56736,-18.57479 -5.80114,-2.74804 -6.9691,-2.96435 -16.00549,-2.96435 -9.10293,0 -10.15339,0.1985 -15.88102,3.00106 -11.08077,5.42188 -18.3736,16.18969 -20.21173,29.84247 -0.73406,5.45225 -1.43908,7.38917 -3.45578,9.49415 -5.32813,5.56137 -12.72294,5.4639 -17.51476,-0.23085 -2.98386,-3.54612 -3.15537,-10.35102 -0.52055,-20.65309 2.69248,-10.5275 7.69224,-19.31617 15.34622,-26.97584 7.46635,-7.47191 14.1389,-11.71199 23.61944,-15.00899 5.73774,-1.99539 8.21502,-2.29646 18.87768,-2.29426 10.02015,0.002 13.38102,0.36615 18.30755,1.98323 10.20239,3.34883 16.7188,7.38439 24.65395,15.26798 12.81154,12.72828 17.62609,25.02547 16.90274,43.17241 -0.63967,16.0474 -5.87681,27.69612 -17.61604,39.18248 -5.17963,5.06806 -8.48987,7.27386 -17.79876,11.86035 -8.26594,4.07263 -11.73133,6.28318 -12.50221,7.97508 -0.58658,1.28739 -1.0665,6.41086 -1.0665,11.3855 v 9.04478 l 15.67243,1.14885 c 85.5447,6.27076 166.87356,35.84828 224.39574,81.60779 21.52758,17.12541 44.94317,43.25682 57.70882,64.40209 10.63939,17.6233 24.36128,50.12941 24.36128,57.71001 0,3.14752 -1.34741,4.06464 -10.59058,7.20848 -14.07434,4.78705 -19.20378,5.84862 -28.40022,5.8776 -11.52877,0.0363 -17.88621,-2.31338 -24.70307,-9.13025 -5.50051,-5.50051 -7.16734,-8.47402 -11.97992,-21.37145 -3.00158,-8.04407 -10.98719,-26.16335 -11.95921,-27.13537 -0.18389,-0.18389 -1.53674,0.86806 -3.00634,2.33766 l -2.67201,2.672 -15.6922,0.61889 c -8.63071,0.34039 -33.92701,0.61889 -56.214,0.61889 -33.83524,0 -40.81916,-0.22081 -42.32385,-1.33816 -2.15774,-1.60227 -2.75081,-0.6344 9.33817,-15.23955 l 9.28352,-11.21579 42.9363,-0.0285 c 23.61497,-0.0157 42.9363,-0.35789 42.9363,-0.76043 0,-1.35084 -14.4553,-17.28872 -23.28504,-25.67324 -35.06488,-33.29682 -81.7426,-58.92331 -129.56756,-71.13376 -25.33731,-6.46901 -43.80656,-9.03316 -70.88032,-9.84058 -79.21774,-2.3625 -154.51712,24.87838 -212.56857,76.90042 -8.53415,7.64777 -26.87253,27.19888 -26.92665,28.70733 -0.0309,0.86015 33.55074,1.76947 66.2747,1.79459 l 29.79007,0.0229 9.27443,11.16704 c 10.83842,13.05021 11.24014,13.66883 9.80734,15.10265 -1.24015,1.24102 -99.6918,2.12735 -116.04957,1.04476 -9.21863,-0.6101 -9.83291,-0.78154 -12.31282,-3.43629 l -2.61013,-2.79415 -4.52176,9.62679 c -2.48697,5.29474 -6.07785,13.80438 -7.97974,18.91032 -1.90188,5.10594 -4.22278,10.78386 -5.15754,12.61761 -2.45007,4.80634 -9.74993,11.65145 -15.20724,14.2599 -5.384,2.5734 -15.64691,3.60911 -23.60655,2.38231 z m 20.77051,-6.42152 c 4.92001,-2.17141 10.58256,-7.10432 13.44685,-11.71417 0.95726,-1.54064 3.61474,-7.89763 5.90551,-14.12664 4.48208,-12.18754 11.68096,-27.30209 14.9657,-31.42155 2.44607,-3.06767 3.56556,-2.5409 5.92217,2.78662 l 1.78144,4.02722 47.67976,0.6471 c 26.22387,0.3559 52.83617,0.5107 59.13843,0.344 l 11.45867,-0.3031 -7.74526,-9.44215 -7.74525,-9.44215 -49.78528,-0.0735 c -41.40492,-0.0611 -49.9663,-0.2916 -50.86074,-1.36933 -1.46691,-1.76753 6.97129,-12.21777 22.20024,-27.49376 45.14839,-45.28782 105.13723,-74.64747 172.5778,-84.46278 11.39696,-1.65872 17.75469,-1.94398 43.16839,-1.93689 35.72502,0.01 50.25712,1.59846 78.07734,8.53458 55.78552,13.90841 108.01302,44.22365 145.57718,84.49966 12.3115,13.20031 16.76058,19.23393 15.39554,20.8787 -0.87145,1.05003 -8.85674,1.27636 -45.03299,1.27636 h -43.97372 l -7.43617,8.97882 c -4.0899,4.93837 -7.43617,9.39115 -7.43617,9.89509 0,0.59942 18.21698,0.69745 52.684,0.28349 51.89943,-0.62332 52.70819,-0.66161 54.30861,-2.5711 0.89354,-1.0661 1.62462,-2.67645 1.62462,-3.57855 0,-0.9021 0.63447,-2.16675 1.40994,-2.81033 1.15617,-0.95954 1.75887,-0.85468 3.34858,0.58259 2.58262,2.33498 10.89468,19.52582 16.04898,33.19221 4.69174,12.43992 7.7074,17.33987 13.07736,21.24856 10.94856,7.96924 19.93059,7.99919 45.78434,0.15265 l 7.7219,-2.34358 -0.62067,-2.96809 c -1.28979,-6.16781 -10.12607,-28.4475 -15.38971,-38.80337 -10.53324,-20.72351 -23.69884,-38.54622 -42.13387,-57.03804 -56.74575,-56.9206 -145.43346,-93.3212 -245.55296,-100.7837 -17.81139,-1.32759 -17.29308,-1.19357 -17.98442,-4.65022 -0.75152,-3.75764 -0.73324,-16.03511 0.0308,-20.6599 0.79909,-4.8372 5.08162,-8.87571 12.30612,-11.60493 31.18095,-11.77931 45.24697,-46.51854 30.59389,-75.55854 -4.45564,-8.83037 -14.4383,-18.30943 -24.2303,-23.00796 -36.08016,-17.31248 -76.92914,5.03009 -80.28377,43.91164 -0.66,7.64968 0.78963,9.97045 6.22787,9.97045 4.88752,0 6.52873,-2.30476 8.09111,-11.36241 2.59128,-15.02258 10.27628,-25.48155 23.23286,-31.61896 5.9276,-2.80784 6.86424,-2.97208 16.95035,-2.97208 10.33782,0 10.89665,0.10551 17.6387,3.33025 22.0642,10.55335 30.51848,32.81057 20.34741,53.56779 -5.16502,10.54081 -13.4511,17.37053 -27.41183,22.5939 -6.18427,2.31383 -11.56113,6.89183 -15.03533,12.80148 -2.39062,4.06646 -2.51532,4.9182 -2.81115,19.19936 l -0.30956,14.94414 -13.61573,0.59808 c -70.70008,3.10553 -143.3358,24.63556 -198.19379,58.74682 -24.26537,15.08845 -50.99842,37.86431 -68.30651,58.19534 -12.64118,14.84903 -24.905108,34.19042 -32.195059,50.77472 -4.006669,9.11498 -10.600597,28.21687 -10.600597,30.70875 0,1.32859 1.962566,2.32554 9.051436,4.59796 18.85155,6.04309 28.06874,6.75452 36.91696,2.84941 z"
       id="path37"
       transform="scale(0.26458333)" /><path
       style="fill:#ffffff;stroke:#000000;stroke-width:0.928352;stroke-opacity:1"
       d="m 315.37797,687.68636 -5.36778,-0.33586 -7.50053,-9.00422 c -10.53647,-12.64881 -12.62802,-15.88819 -10.94575,-16.95272 1.83662,-1.16219 243.19573,-1.11945 245.02376,0.0434 1.8293,1.16364 1.21627,2.13191 -10.12988,15.99965 l -8.90134,10.8796 -98.40535,-0.147 c -54.12295,-0.0809 -100.82086,-0.29813 -103.77313,-0.48285 z m 207.24454,-13.00627 7.53098,-9.05144 -19.29546,-0.56619 c -32.79299,-0.96227 -213.04322,-0.9162 -212.70219,0.0544 0.1702,0.48438 3.59686,4.87084 7.61482,9.7477 l 7.30537,8.867 h 101.00775 101.00775 z"
       id="path38"
       transform="scale(0.26458333)" /><path
       style="fill:#ffffff;stroke:#000000;stroke-width:0.928352;stroke-opacity:1"
       d=""
       id="path47"
       transform="scale(0.26458333)" /><path
       style="fill:#ffffff;stroke:#000000;stroke-width:0.928352;stroke-opacity:1"
       d="m 104.90382,733.46232 c -6.871442,-1.42846 -21.202418,-5.71895 -23.04833,-6.90034 -1.57982,-1.01109 -0.571535,-4.939 5.155971,-20.08582 10.542374,-27.88009 24.990429,-50.21348 47.058519,-72.74165 13.96086,-14.25193 24.69435,-23.69341 38.77605,-34.10853 55.72794,-41.21751 136.66926,-67.92288 216.72421,-71.50487 l 14.05171,-0.62873 0.39259,-14.94775 c 0.3392,-12.91472 0.65859,-15.45849 2.3483,-18.7029 3.22347,-6.18934 9.16013,-10.86126 18.85586,-14.83885 7.60797,-3.1211 9.66727,-4.48124 15.35833,-10.14389 4.10357,-4.0831 7.48143,-8.47629 8.99259,-11.69565 9.73007,-20.72879 1.05759,-43.83952 -20.4377,-54.46307 -5.98727,-2.95907 -7.97118,-3.46037 -15.03018,-3.79786 -13.95235,-0.66707 -24.32277,2.92836 -33.08921,11.47205 -6.10397,5.94887 -9.3014,12.28133 -11.57632,22.92668 -1.98779,9.30176 -3.58815,11.84382 -7.45636,11.84382 -4.56473,0 -5.80628,-2.27804 -5.14126,-9.4334 2.0516,-22.07438 18.30472,-41.03366 40.02706,-46.69161 7.10929,-1.85174 20.46616,-1.83305 27.72156,0.0388 8.10778,2.09173 17.66228,7.3795 24.12502,13.35156 10.29732,9.5155 15.31049,20.07036 16.10854,33.91533 1.37525,23.85864 -12.01676,43.78342 -36.19572,53.85238 -8.27874,3.44756 -11.43774,7.02266 -12.29945,13.91955 -0.96827,7.74974 -0.0915,20.70824 1.50043,22.17627 0.8628,0.79564 6.66883,1.61415 16.64288,2.34625 81.72632,5.99874 157.01021,31.63509 212.83889,72.47783 32.59222,23.84358 58.38384,52.96288 73.94522,83.48577 8.16613,16.01748 17.58147,40.55421 16.09377,41.94095 -1.19088,1.11006 -20.76022,6.29688 -27.83783,7.37836 -8.53289,1.30386 -15.2752,0.0236 -21.32764,-4.04982 -6.41769,-4.31925 -9.74742,-9.34049 -14.69161,-22.15502 -4.77,-12.36304 -12.07211,-27.80566 -15.27486,-32.30351 -2.88914,-4.05742 -5.284,-3.65512 -7.38233,1.24011 -1.37453,3.20665 -2.32295,4.16139 -4.5828,4.61336 -4.19826,0.83965 -101.30688,1.9719 -101.30688,1.1812 0,-0.3706 3.02875,-4.40356 6.73056,-8.96212 l 6.73055,-8.28829 43.79834,-0.007 c 38.54907,-0.006 43.97296,-0.18183 45.25534,-1.46421 1.83864,-1.83863 1.15784,-3.24241 -5.82178,-12.0041 -23.32249,-29.27728 -67.33592,-61.74094 -106.38743,-78.46978 -23.24071,-9.95583 -51.09364,-18.04801 -77.10652,-22.40196 -12.10166,-2.02553 -15.52288,-2.17538 -49.66685,-2.17538 -40.81716,0 -47.53606,0.66708 -75.24323,7.47041 -43.41835,10.66111 -85.81192,31.22978 -118.78242,57.6313 -14.71222,11.78098 -41.68924,39.45702 -45.43156,46.60876 -2.45714,4.6957 -2.02049,4.73614 51.49546,4.76824 l 49.23229,0.0295 7.19898,8.81935 7.19898,8.81934 -30.90158,-0.12906 c -16.99587,-0.071 -43.01114,-0.3843 -57.81174,-0.69626 l -26.91015,-0.56721 -2.09184,-4.40967 c -2.63706,-5.55903 -4.91689,-5.80859 -8.02888,-0.87888 -4.1313,6.54439 -9.14331,17.24385 -13.6173,29.06967 -5.60673,14.81993 -6.35141,16.20699 -11.25695,20.96747 -7.44748,7.22725 -17.1172,9.69461 -28.62129,7.30309 z"
       id="path52"
       transform="scale(0.26458333)" /><path
       style="fill:#ffffff;stroke:#000000;stroke-width:0.928352;stroke-opacity:1"
       d=""
       id="path60"
       transform="scale(0.26458333)" /><path
       style="fill:#ffffff;stroke:#000000;stroke-width:0.928352;stroke-opacity:1"
       d="m 309.84765,678.85767 c -2.24346,-2.68061 -5.66815,-6.8582 -7.61043,-9.28352 l -3.53142,-4.40967 6.37821,-0.012 c 168.82605,-0.31714 223.674,0.13226 222.94929,1.82675 -0.14574,0.34076 -3.18928,4.22193 -6.76344,8.62482 l -6.49847,8.00527 -100.42236,0.0611 -100.42236,0.0611 z"
       id="path63"
       transform="scale(0.26458333)" /><g
       id="g1"><path
         style="fill:#ac9393;stroke:#000000;stroke-width:1.31289"
         d="m 380.08122,1010.0716 c -2.16626,-0.2526 -9.55126,-1.0887 -16.4111,-1.8581 C 299.24959,1000.9881 234.23954,974.23073 179.22607,932.29845 162.89484,919.85048 130.91935,888.30756 117.85538,871.75797 77.739904,820.93923 52.80275,763.24427 43.801581,700.42602 40.545948,677.70527 40.507935,625.85848 43.731501,604.84092 54.313046,535.84956 81.008352,476.97884 125.59956,424.29866 217.18734,316.09658 367.7033,269.80738 508.08785,306.66944 c 76.29382,20.03317 145.87562,64.96794 194.99934,125.92732 22.20509,27.5551 47.00873,72.14962 58.2781,104.77831 35.97086,104.14807 21.7503,216.91749 -38.91352,308.58565 -25.98615,39.26725 -62.87787,76.16721 -102.30787,102.33072 -51.60067,34.23926 -110.40191,54.99936 -173.57269,61.28076 -12.48951,1.2419 -57.23768,1.578 -66.48999,0.4994 z M 284.87451,762.01677 c 12.38781,-3.67878 17.98551,-12.93761 14.61772,-24.17832 -2.23701,-7.46646 -8.77819,-12.3921 -21.68431,-16.3287 -12.10057,-3.6909 -14.07626,-5.10543 -10.10175,-7.23254 4.17831,-2.23615 7.92264,-1.59795 11.16765,1.90347 2.66718,2.87793 4.13608,3.28222 11.92509,3.28222 h 8.88323 l -0.79395,-4.89254 c -1.01712,-6.2678 -4.38948,-10.76661 -10.8326,-14.45097 -7.65421,-4.37688 -23.74123,-4.24285 -31.42793,0.26186 -6.32805,3.70849 -9.80696,9.85379 -9.79971,17.31073 0.01,10.02187 4.03689,13.45577 25.49898,21.74255 4.27896,1.65216 7.99372,3.66152 8.25504,4.46526 0.26133,0.80373 -1.34616,2.21573 -3.57217,3.13777 -4.65318,1.92741 -9.7574,0.31819 -12.80878,-4.03826 -2.59928,-3.711 -16.82607,-3.71163 -18.00384,-7.7e-4 -1.94981,6.14329 6.12103,16.16175 15.72408,19.51851 5.86007,2.0484 15.04504,1.84821 22.95325,-0.50027 z m 232.15998,-1.73006 c 11.3027,-5.76621 18.34216,-19.95167 16.88881,-34.03321 -1.52217,-14.74849 -11.21905,-26.13396 -24.72489,-29.03045 -25.62136,-5.49479 -46.1707,17.80645 -38.61739,43.78889 2.68002,9.21896 10.4086,18.12829 18.23751,21.02379 7.28131,2.69295 21.20017,1.83016 28.21596,-1.74902 z m 64.02149,1.88785 c 7.50247,-2.22799 16.34395,-10.40141 19.52836,-18.05283 2.85817,-6.86751 2.6341,-22.55262 -0.41792,-29.25394 -3.36216,-7.38231 -11.81527,-14.55401 -20.02976,-16.99345 -8.57914,-2.54774 -10.79407,-2.54774 -19.37321,0 -8.7837,2.60847 -16.10141,9.21919 -19.84943,17.93171 -4.11592,9.5677 -3.338,24.26575 1.7432,32.93617 7.67245,13.09204 22.30652,18.21122 38.39876,13.43234 z M 175.1065,758.68544 c 1.07308,-5.36538 1.03111,-54.71302 -0.05,-58.7522 -0.7888,-2.94711 -1.26267,-3.07975 -8.61958,-2.41265 -4.28169,0.38825 -8.16276,1.08377 -8.62459,1.5456 -1.20586,1.20586 -2.05939,50.68832 -0.99657,57.77567 l 0.89171,5.94636 h 8.28922 c 8.23362,0 8.29472,-0.0275 9.10977,-4.10278 z m 25.76544,-10.33899 c 0,-7.94298 0.44667,-14.44178 0.99261,-14.44178 0.54593,0 5.12462,6.4906 10.17489,14.42354 l 9.18227,14.42354 9.51844,0.0182 9.51845,0.0182 V 729.96601 697.1438 h -9.19022 -9.19022 l -0.12985,8.20555 c -0.0714,4.51305 -0.51451,11.45495 -0.98466,15.42644 l -0.85483,7.22089 -9.84666,-15.4042 -9.84666,-15.40422 -8.20556,-0.0222 -8.20555,-0.0222 v 32.82221 32.82221 h 8.53378 8.53377 z m 139.46479,-9.51844 0.35784,-23.96022 8.86199,-0.38821 8.862,-0.38821 v -7.81734 -7.81735 h -28.2271 -28.2271 v 7.87733 7.87734 h 7.1135 c 11.92233,0 11.26693,-1.4083 11.26693,24.21008 0,12.43895 0.39387,23.01014 0.87527,23.49153 0.48138,0.48139 4.89905,0.87526 9.81704,0.87526 h 8.94178 z m 33.68138,18.70866 1.5734,-5.25156 h 9.74127 9.74126 l 1.57341,5.25156 1.5734,5.25155 h 8.9824 c 8.55767,0 8.98241,-0.14615 8.98241,-3.09085 0,-1.69997 -4.7264,-16.26068 -10.50311,-32.35714 -5.77671,-16.09646 -10.50311,-29.47557 -10.50311,-29.73136 0,-0.25579 -4.37321,-0.46507 -9.71822,-0.46507 -9.41468,0 -9.75842,0.11277 -11.00435,3.61044 -12.15014,34.10862 -19.97697,57.40597 -19.97697,59.46346 0,2.30163 0.93962,2.57052 8.9824,2.57052 h 8.9824 z m 94.42038,-2.24372 c -0.46592,-8.86941 -1.13043,-9.23559 -17.13307,-9.44141 l -10.17488,-0.13087 V 721.43223 697.1438 h -9.84667 -9.84666 v 32.82221 32.82221 h 23.69751 23.69752 z m 159.12221,-3.00784 c 0,-5.77671 0.5062,-10.50311 1.12487,-10.50311 0.61868,0 4.60658,4.72277 8.862,10.49504 l 7.73713,10.49503 9.44095,0.008 c 14.0722,0.012 14.07874,0.0754 -2.22672,-21.58298 -9.39945,-12.48523 -10.43205,-14.39362 -8.81788,-16.29663 1.00555,-1.18548 5.85855,-6.88182 10.78446,-12.65853 4.9259,-5.77671 9.05692,-10.64754 9.18004,-10.82405 0.12311,-0.17652 2.2457,4.84528 4.71683,11.15955 5.9042,15.08647 14.24469,24.03628 24.74801,26.55599 9.35852,2.24508 22.94591,0.98251 36.19917,-3.36367 15.50109,-5.08334 15.54372,-5.11654 14.54955,-11.33368 -2.38914,-14.94087 -20.92936,-53.20348 -34.536,-71.27412 -10.93459,-14.52194 -33.06857,-37.61261 -46.29438,-48.29534 -25.04254,-20.2273 -65.3604,-42.65518 -99.20677,-55.18637 -40.55918,-15.01652 -77.1013,-22.7133 -132.20986,-27.84703 l -8.862,-0.82555 v -9.65277 c 0,-11.09322 -0.25579,-10.79338 16.77182,-19.6596 23.15404,-12.05622 35.18822,-36.57833 30.72466,-62.60778 -2.03895,-11.89024 -6.76971,-20.67489 -16.27721,-30.22549 -9.97679,-10.02202 -20.47021,-15.22264 -34.32322,-17.01089 -19.90285,-2.5692 -35.53733,1.99594 -49.41159,14.42777 -12.28704,11.00962 -19.69333,27.01612 -19.69333,42.56129 0,17.49455 21.44391,17.13783 24.24622,-0.40335 2.16006,-13.52108 10.47645,-25.50858 21.0193,-30.29786 8.1355,-3.69569 22.67154,-3.33486 30.75938,0.76357 14.06938,7.12949 22.44753,22.29039 19.85946,35.93721 -2.54009,13.39383 -7.55031,19.42222 -22.60333,27.1968 -21.06757,10.88097 -24.9854,16.5403 -26.83924,38.76942 l -0.85235,10.22053 -9.99407,0.81624 c -25.07806,2.04817 -48.28322,5.08943 -65.90611,8.63766 -60.88895,12.25945 -116.52544,36.52594 -158.66043,69.20154 -15.65681,12.14183 -40.85392,37.77875 -52.96234,53.8868 -16.100783,21.41917 -34.606304,61.55445 -33.532544,72.7263 0.377172,3.92425 1.114438,4.60382 7.915207,7.29572 18.635207,7.37627 36.901377,8.83775 46.725967,3.73855 7.64971,-3.97039 14.27833,-12.10184 18.09659,-22.19943 1.96586,-5.19882 5.82188,-14.35616 8.56894,-20.34962 l 4.99464,-10.89724 3.51514,2.30321 c 3.07962,2.01785 7.84421,2.35916 38.45636,2.75482 41.68216,0.53876 89.67375,-1.05419 90.31774,-2.99786 0.24672,-0.74462 -3.8622,-6.65262 -9.13094,-13.12888 l -9.57951,-11.77504 -39.77818,-0.9272 c -21.87799,-0.50997 -43.71625,-1.10076 -48.52946,-1.31289 l -8.75128,-0.38569 12.47244,-12.99772 c 48.84433,-50.90145 114.72549,-82.80032 186.25868,-90.18423 21.35273,-2.20409 63.57225,-0.88258 83.27863,2.60671 57.72974,10.22189 105.73647,32.7434 148.93012,69.86796 12.97641,11.15311 30.07446,29.64156 28.69142,31.0246 -0.50196,0.50195 -19.63997,1.15634 -42.52891,1.45416 l -41.61627,0.54151 -8.51517,10.39131 c -4.68335,5.71522 -9.02787,11.30742 -9.65449,12.42713 -2.69602,4.81753 0.26947,5.06871 58.28878,4.93716 52.50199,-0.11905 56.56621,-0.29179 59.01545,-2.50833 3.1189,-2.82256 3.36936,-2.62909 7.14435,5.51882 l 2.92242,6.30775 -9.96246,-0.32745 -9.96246,-0.32746 -7.22088,8.84015 -7.22089,8.84015 -0.38821,-8.841 -0.38821,-8.841 h -9.78668 -9.78667 v 32.82221 32.82221 h 9.84666 9.84666 z m -99.71996,-75.39152 c 5.3829,-6.80508 9.7871,-13.15618 9.7871,-14.11355 0,-1.43097 -22.01681,-1.80027 -123.73974,-2.0756 -107.87831,-0.29198 -123.73974,-0.0887 -123.73974,1.58587 0,1.05644 4.16644,7.11514 9.25875,13.4638 l 9.25875,11.54302 25.86102,0.6985 c 14.22356,0.38418 61.3358,0.82727 104.69389,0.98466 l 78.83286,0.28617 z"
         id="path2"
         transform="scale(0.26458333)" /></g><path
       style="fill:#e3dbdb;stroke:#000000;stroke-width:1.31289"
       d="M 696.7277,731.99588 C 686.47139,729.2898 681.40322,723.162 672.898,703.18395 662.49895,678.75746 659.12844,672.9347 655.13136,672.49107 c -2.46228,-0.27328 -3.8208,0.5936 -5.43815,3.47008 -2.15215,3.82764 -2.18436,3.8359 -18.38044,4.71199 -8.92348,0.48268 -31.42648,0.69354 -50.00666,0.46858 l -33.78216,-0.40903 5.98965,-7.54911 5.98963,-7.54911 h 43.71464 c 50.22094,0 49.6937,0.11536 43.34163,-9.48326 -5.211,-7.87436 -26.99406,-30.02749 -39.34857,-40.01706 -33.20538,-26.84911 -70.03425,-46.10213 -109.76466,-57.38168 -36.29392,-10.30392 -38.82265,-10.60348 -89.13795,-10.55956 -42.02522,0.0367 -46.2897,0.25396 -59.07998,3.0103 -50.05606,10.78721 -94.55603,30.45407 -130.6324,57.73332 -10.08696,7.62729 -41.45591,38.37211 -47.49941,46.55434 -7.71093,10.43975 -9.11592,10.1436 48.12294,10.1436 h 49.53533 l 6.18877,7.87733 6.18879,7.87733 h -41.89531 c -23.04241,0 -48.22288,-0.38715 -55.9566,-0.86035 -13.76591,-0.84227 -14.10186,-0.9388 -15.99261,-4.59511 -1.34275,-2.59659 -2.93365,-3.73476 -5.22035,-3.73476 -2.86159,0 -4.09423,1.66358 -9.48473,12.80067 -3.40763,7.04036 -8.16501,17.68793 -10.57196,23.66125 -5.17292,12.83764 -8.79152,17.51065 -16.41865,21.20289 -7.25003,3.50968 -16.77995,3.52294 -29.683066,0.0413 -14.951346,-4.03429 -14.475703,-3.28501 -10.144644,-15.981 7.898714,-23.15415 19.94348,-44.94666 35.03455,-63.38777 11.07768,-13.53678 36.19053,-37.35073 51.04988,-48.40943 55.96255,-41.64872 136.30812,-68.77444 215.01219,-72.59093 l 17.28293,-0.83808 0.84501,-13.91542 c 0.46475,-7.65348 1.16094,-15.57504 1.54708,-17.60346 1.04061,-5.46642 8.19148,-11.826 19.14189,-17.02372 10.69209,-5.07511 20.38961,-13.7733 25.02086,-22.44247 2.40344,-4.49896 2.89689,-7.5472 2.89689,-17.89509 0,-10.4805 -0.47989,-13.37227 -3.00484,-18.10669 -4.45043,-8.34479 -12.58091,-15.78354 -22.14099,-20.25724 -7.79462,-3.64754 -9.36645,-3.92315 -19.37758,-3.3977 -20.25446,1.06309 -33.73222,11.15357 -38.9723,29.17765 -4.47483,15.39191 -5.07262,16.52264 -8.73492,16.52264 -3.26481,0 -3.29262,-0.094 -2.65704,-8.97717 0.84263,-11.77671 6.58583,-22.7319 16.94497,-32.32265 10.69677,-9.90332 19.26385,-13.09249 35.28108,-13.13371 11.335,-0.0292 13.28165,0.35035 21.34564,4.16143 11.17447,5.28112 22.186,15.59126 26.89671,25.18348 3.21498,6.54653 3.61675,8.82306 3.61675,20.49351 0,11.68475 -0.41438,14.02593 -3.76711,21.28403 -4.91562,10.64144 -15.39692,20.59753 -29.27688,27.80983 -13.63146,7.08317 -15.33402,10.07805 -14.67712,25.81757 0.25142,6.02398 1.14938,11.64467 1.99549,12.49045 0.85391,0.85357 12.24458,2.62068 25.60132,3.9717 100.48333,10.16374 180.78684,44.18688 236.7509,100.30706 17.83541,17.88516 30.10749,34.39015 40.51235,54.48596 9.40363,18.16204 17.34531,39.42646 15.21614,40.74236 -1.40215,0.86657 -22.78188,6.06269 -29.47072,7.16254 -1.44418,0.23747 -5.47162,-0.3191 -8.94987,-1.23682 z"
       id="path3"
       transform="scale(0.26458333)" /><path
       style="fill:#ac9393;fill-opacity:1;stroke:#000000;stroke-width:1.31289"
       d="m 561.05674,742.3547 c -3.09436,-3.09435 -3.32442,-4.10136 -2.85102,-12.47927 0.59761,-10.57633 2.97463,-13.97075 10.65628,-15.21731 6.46852,-1.0497 10.57667,1.81379 13.46951,9.38857 1.94419,5.0908 2.05245,6.81066 0.71061,11.28933 -2.31783,7.73622 -5.54444,10.38465 -12.65174,10.38465 -4.6546,0 -6.7083,-0.74062 -9.33364,-3.36597 z"
       id="path4"
       transform="scale(0.26458333)" /><path
       style="fill:#ac9393;fill-opacity:1;stroke:#000000;stroke-width:1.31289"
       d="m 496.60837,745.68283 c -4.19368,-1.68604 -8.20319,-8.9451 -8.20894,-14.86196 -0.0138,-14.18394 11.74987,-21.31947 21.21093,-12.86602 3.66044,3.2706 4.26324,4.76014 4.77183,11.79128 0.56267,7.77891 0.42778,8.20211 -4.03771,12.6676 -4.70894,4.70894 -8.12977,5.52307 -13.73611,3.2691 z"
       id="path5"
       transform="scale(0.26458333)" /><path
       style="fill:#6c5353;fill-opacity:1;stroke:#000000;stroke-width:1.31289"
       d="m 307.53295,674.13996 -6.90384,-8.50549 h 57.56298 c 31.65964,0 82.4137,0.39063 112.78682,0.86806 l 55.22384,0.86806 -6.10345,7.65497 -6.10345,7.65497 -99.77953,-0.0175 -99.77952,-0.0175 z"
       id="path6"
       transform="scale(0.26458333)" /><path
       style="fill:#ac9393;fill-opacity:1;stroke:#000000;stroke-width:1.31289"
       d="m 157.74341,758.84881 c -1.08497,-5.42484 -0.90391,-44.48787 0.24645,-53.17124 l 0.86965,-6.56444 7.47773,-0.39161 7.47772,-0.39161 0.80983,4.33028 c 1.03155,5.51589 0.2724,57.00747 -0.85706,58.13291 -0.46555,0.46388 -4.06949,1.17607 -8.00877,1.58264 l -7.16233,0.73922 z"
       id="path7"
       transform="scale(0.26458333)" /><path
       style="fill:#ac9393;fill-opacity:1;stroke:#000000;stroke-width:1.31289"
       d="m 200.4228,739.15623 c 0,-1.80522 0.29799,-2.54372 0.6622,-1.64111 0.36421,0.90261 0.36421,2.37961 0,3.28222 -0.36421,0.90261 -0.6622,0.16411 -0.6622,-1.64111 z"
       id="path8"
       transform="scale(0.26458333)" /><path
       style="fill:#ac9393;fill-opacity:1;stroke:#000000;stroke-width:1.31289"
       d="M 183.14795,729.96601 V 697.1438 h 7.67385 c 8.93858,0 8.44206,-0.43296 19.19678,16.73933 4.18315,6.67932 8.1546,12.14422 8.82546,12.14422 0.67086,0 0.80281,0.73849 0.29322,1.64111 -0.68336,1.21038 -0.51567,1.26356 0.63892,0.20261 0.99791,-0.91698 1.66271,-6.74294 1.83372,-16.06982 l 0.26826,-14.63133 9.51844,-0.0131 9.51844,-0.0131 v 32.82221 32.82221 l -9.51844,-0.0421 -9.51844,-0.0421 -9.18986,-14.39982 c -5.05443,-7.91989 -9.78083,-14.19972 -10.50311,-13.95517 -0.80033,0.27098 -1.15563,5.91159 -0.90969,14.44189 l 0.40356,13.99725 h -9.26556 -9.26555 z"
       id="path9"
       transform="scale(0.26458333)" /><path
       style="fill:#ac9393;fill-opacity:1;stroke:#000000;stroke-width:1.31289"
       d="m 184.46084,729.96601 v -31.50932 h 6.33558 c 7.52398,0 7.97742,0.42865 19.92174,18.8326 7.55307,11.63786 8.55884,12.69123 10.10231,10.5804 1.1478,-1.5697 1.71413,-6.81585 1.71413,-15.87861 v -13.53439 h 8.53378 8.53377 v 31.50932 31.50932 h -8.41608 -8.41609 l -5.54364,-8.86199 c -7.33404,-11.72413 -14.29661,-20.23119 -15.79845,-19.303 -0.66682,0.41212 -1.21239,6.91783 -1.21239,14.45715 v 13.70784 h -7.87733 -7.87733 z"
       id="path10"
       transform="scale(0.26458333)" /><path
       style="fill:#ac9393;fill-opacity:1;stroke:#000000;stroke-width:1.31289"
       d="m 238.85389,729.96601 c 0,-16.96908 0.18711,-23.91098 0.4158,-15.42644 0.22868,8.48454 0.22868,22.36834 0,30.85288 -0.22869,8.48454 -0.4158,1.54264 -0.4158,-15.42644 z"
       id="path11"
       transform="scale(0.26458333)" /><path
       style="fill:#ac9393;fill-opacity:1;stroke:#000000;stroke-width:1.31289"
       d="m 238.80355,729.96601 c 0,-9.7482 0.20668,-13.7361 0.45929,-8.862 0.25261,4.8741 0.25261,12.8499 0,17.724 -0.25261,4.8741 -0.45929,0.8862 -0.45929,-8.862 z"
       id="path12"
       transform="scale(0.26458333)" /><path
       style="fill:#ac9393;fill-opacity:1;stroke:#000000;stroke-width:1.31289"
       d=""
       id="path14"
       transform="scale(0.26458333)" /><path
       style="fill:#ac9393;fill-opacity:1;stroke:#000000;stroke-width:1.31289"
       d="m 326.90924,761.86362 c -2.16627,-0.32468 -4.42008,-1.05582 -5.00847,-1.62476 -0.5884,-0.56893 -1.09589,-10.12397 -1.12776,-21.23342 -0.0319,-11.10944 -0.60514,-21.23288 -1.27394,-22.49654 -0.96632,-1.82582 -2.95866,-2.29755 -9.70357,-2.29755 h -8.48759 v -7.87733 -7.87733 h 28.88355 28.88355 v 7.66188 7.66189 l -8.16653,0.2947 c -4.49159,0.16208 -8.97393,0.96479 -9.96076,1.78378 -1.41909,1.17774 -1.70977,6.17097 -1.39024,23.88096 l 0.404,22.39188 -4.55679,0.16109 c -2.50623,0.0886 -6.32919,-0.10457 -8.49545,-0.42925 z"
       id="path16"
       transform="scale(0.26458333)" /><path
       style="fill:#ac9393;fill-opacity:1;stroke:#000000;stroke-width:1.31289"
       d=""
       id="path17"
       transform="scale(0.26458333)" /><path
       style="fill:#ac9393;fill-opacity:1;stroke:#000000;stroke-width:1.31289"
       d="m 358.74678,761.84786 c -1.98574,-0.30081 -3.57914,-1.24619 -3.54089,-2.10084 0.0383,-0.85465 4.64938,-14.81775 10.24695,-31.02911 10.07818,-29.18783 10.21915,-29.48603 14.45917,-30.58473 2.35498,-0.61024 6.71041,-0.62923 9.67875,-0.0422 l 5.39697,1.06731 9.44606,26.89164 c 5.19533,14.79041 9.84659,28.73201 10.33614,30.98135 0.82759,3.80258 0.59745,4.14822 -3.27809,4.92333 -2.2925,0.4585 -6.06861,0.83363 -8.39136,0.83363 -3.78956,0 -4.38474,-0.53922 -5.79659,-5.25155 l -1.57341,-5.25155 h -10.3977 -10.39771 l -1.5734,5.25155 c -1.47482,4.92252 -1.86886,5.23923 -6.28892,5.05484 -2.59354,-0.10819 -6.34022,-0.44283 -8.32597,-0.74365 z"
       id="path18"
       transform="scale(0.26458333)" /><path
       style="fill:#ac9393;fill-opacity:1;stroke:#000000;stroke-width:1.31289"
       d="M 420.78077,729.96601 V 697.1438 h 10.5031 10.50311 v 24.14797 c 0,27.67368 -0.98632,25.74179 13.14249,25.74179 10.9401,0 13.11528,1.64863 13.11528,9.94044 v 5.81422 h -23.63199 -23.63199 z"
       id="path19"
       transform="scale(0.26458333)" /><path
       style="fill:#ac9393;fill-opacity:1;stroke:#000000;stroke-width:1.31289"
       d="m 490.70512,761.8079 c -17.62354,-5.87451 -26.23912,-30.24341 -16.76745,-47.4262 4.64936,-8.43452 10.10125,-12.86471 19.74803,-16.04721 6.5459,-2.15951 7.80475,-2.19749 14.55536,-0.43918 8.48692,2.21056 13.52469,5.43888 18.34091,11.75327 3.65329,4.78971 7.10721,14.64905 7.10721,20.2878 0,10.86857 -8.25487,25.01241 -17.34024,29.71063 -5.98746,3.09624 -19.43763,4.22962 -25.64382,2.16089 z m 20.3179,-19.41626 c 4.54489,-4.5449 4.62648,-4.81219 3.90329,-12.78771 -0.63211,-6.97103 -1.32347,-8.66833 -4.79393,-11.76918 -5.47249,-4.88967 -12.79022,-4.99209 -17.53687,-0.24544 -6.6916,6.6916 -5.98284,21.05144 1.32267,26.79794 5.36337,4.21883 11.6204,3.48883 17.10484,-1.99561 z"
       id="path20"
       transform="scale(0.26458333)" /><path
       style="fill:#ac9393;fill-opacity:1;stroke:#000000;stroke-width:1.31289"
       d=""
       id="path21"
       transform="scale(0.26458333)" /><path
       style="fill:#ac9393;fill-opacity:1;stroke:#000000;stroke-width:1.31289"
       d="M 607.21094,729.96601 V 697.1438 h 9.84666 c 6.94238,0 9.87968,0.48405 9.95859,1.64111 0.0616,0.90261 0.0215,4.68318 -0.0891,8.40126 -0.11053,3.71808 0.30097,7.07036 0.91446,7.44952 0.61349,0.37916 4.28717,-3.25371 8.16373,-8.07304 l 7.0483,-8.76241 h 9.6348 c 5.42542,0 9.86247,0.5933 10.15591,1.358 0.28661,0.74689 -4.13786,6.86237 -9.83215,13.58994 -5.6943,6.72757 -10.35327,13.11702 -10.35327,14.19876 0,1.08174 4.7264,8.49258 10.50311,16.46853 5.77671,7.97595 10.50311,15.22846 10.50311,16.11669 0,1.82383 -5.86543,3.27734 -12.96477,3.21279 -4.41561,-0.0402 -5.31615,-0.80242 -12.47284,-10.55768 -4.24249,-5.78292 -8.37809,-10.28151 -9.19022,-9.99685 -0.9705,0.34016 -1.33393,3.9588 -1.06033,10.55767 l 0.41627,10.04013 h -10.59116 -10.59115 z"
       id="path22"
       transform="scale(0.26458333)" /><path
       style="fill:#ac9393;fill-opacity:1;stroke:#000000;stroke-width:1.31289"
       d="m 557.32117,760.76354 c -10.25569,-4.59504 -16.91772,-14.58319 -18.04911,-27.06042 -0.96566,-10.64942 1.52421,-18.35109 8.40793,-26.00745 14.17575,-15.76684 39.32734,-13.20608 50.08911,5.09973 3.09437,5.26352 3.53384,7.41096 3.53384,17.26778 0,10.23708 -0.35991,11.83938 -3.97338,17.68929 -5.89637,9.54575 -14.24279,14.25042 -26.0952,14.70921 -6.31514,0.24445 -10.79895,-0.3028 -13.91319,-1.69814 z m 22.24386,-17.5934 c 1.40279,-1.40279 3.26288,-4.92815 4.13353,-7.83412 1.33976,-4.47171 1.23364,-6.19839 -0.69062,-11.237 -2.71289,-7.1036 -6.24881,-9.88767 -12.55788,-9.88767 -8.83049,0 -13.10456,6.32721 -13.12157,19.42478 -0.0106,8.17504 4.21508,12.08454 13.06189,12.08454 4.80846,0 7.32322,-0.69909 9.17465,-2.55053 z"
       id="path26"
       transform="scale(0.26458333)" /><path
       style="fill:#ac9393;fill-opacity:1;stroke:#000000;stroke-width:1.31289"
       d="m 373.51678,1008.115 c -31.84779,-3.7436 -53.65794,-8.39159 -80.0862,-17.06731 -38.88396,-12.7646 -84.1876,-36.91474 -114.87774,-61.23818 -13.2955,-10.53734 -49.27107,-46.34254 -59.64688,-59.36443 C 76.780003,817.57603 49.853641,751.56635 43.83749,686.41553 41.616014,662.35845 43.045504,615.11158 46.571528,596.05138 60.642207,519.99121 93.357505,457.32772 147.00683,403.67576 c 57.51309,-57.51593 131.30156,-93.43439 216.12053,-105.20229 20.13436,-2.79347 71.59494,-3.151 91.13206,-0.63315 65.29095,8.41437 123.26298,30.72236 174.53752,67.16307 50.60236,35.963 87.09688,79.24007 115.67762,137.17646 11.77558,23.87047 17.61144,39.69725 24.20526,65.64443 8.34411,32.83467 9.87215,46.24409 9.79932,85.9942 -0.0698,38.08692 -1.72547,52.36186 -9.74576,84.02486 -23.90446,94.37145 -87.54978,175.9034 -175.78669,225.18911 -43.50374,24.2995 -98.9466,41.11265 -149.19037,45.24235 -18.78668,1.5441 -56.47319,1.4584 -70.23954,-0.1598 z M 287.96662,762.06359 c 2.98679,-1.19509 7.21046,-4.20009 9.38591,-6.6778 3.33787,-3.80161 3.95538,-5.59482 3.95538,-11.48598 0,-9.08634 -3.67259,-14.59806 -12.9599,-19.4498 l -7.03326,-3.67422 h 10.05607 10.05608 l -0.89141,-4.92333 c -2.3204,-12.81592 -9.82829,-18.77226 -24.87971,-19.7382 -11.57793,-0.74302 -19.12057,1.56773 -24.93823,7.64006 -3.19285,3.33263 -3.85719,5.26069 -4.32069,12.53985 -0.50623,7.95036 -0.27586,8.88546 3.04227,12.34884 1.97449,2.06092 9.13552,6.26217 15.91339,9.33608 10.8623,4.92629 14.9054,7.74158 11.11789,7.74158 -0.66303,0 -2.03161,0.317 -3.04128,0.70446 -1.00967,0.38745 -4.09323,-1.08955 -6.85236,-3.28222 -8.21935,-6.53192 -21.72306,-5.20115 -21.72306,2.14077 0,7.15661 8.16331,15.69663 18.07065,18.90456 5.00865,1.62177 18.55048,0.47283 25.04226,-2.12465 z m 229.80606,-0.91025 c 5.96945,-2.80399 12.64827,-10.76993 15.48839,-18.47324 2.02041,-5.47997 2.14117,-19.02555 0.21987,-24.6624 -4.86273,-14.26674 -16.14341,-22.18679 -31.60103,-22.18679 -10.37952,0 -15.61937,1.85799 -22.65091,8.03177 -19.80495,17.38897 -11.86,55.23995 12.6284,60.16364 7.89617,1.58761 19.05192,0.35088 25.91528,-2.87298 z m 62.67132,2.32091 c 8.22687,-2.44313 16.5009,-9.45066 20.21318,-17.1192 2.46034,-5.0824 2.80281,-7.67503 2.41297,-18.2673 -0.41411,-11.25153 -0.80657,-12.84513 -4.4336,-18.0026 -4.61764,-6.5661 -13.07499,-12.14279 -21.95027,-14.47382 -11.81614,-3.10343 -27.3266,3.76507 -34.42861,15.24603 -3.4905,5.64264 -4.02935,7.83773 -4.43389,18.06202 -0.41464,10.4793 -0.11022,12.35476 3.05589,18.82604 7.11554,14.54363 22.69676,20.73796 39.56433,15.72883 z m -405.43596,-0.9486 c 1.88994,-1.88995 2.23523,-62.307 0.3729,-65.24829 -0.90062,-1.4224 -3.09196,-1.63809 -9.73148,-0.95785 l -8.56912,0.87793 2.09526,-5.33403 c 1.56949,-3.99554 2.61634,-5.11308 4.17181,-4.45355 9.87577,4.18746 126.15992,3.67924 130.4091,-0.56994 1.70087,-1.70087 -5.0192,-12.1702 -14.00666,-21.82122 l -5.53965,-5.94867 -24.1967,-0.15995 c -13.30817,-0.088 -34.46392,-0.53106 -47.01279,-0.98466 l -22.81611,-0.82472 14.54398,-14.04485 c 23.93897,-23.11739 45.65542,-39.11319 72.44423,-53.36061 40.70595,-21.64912 91.30826,-34.35 136.81689,-34.34021 75.29864,0.0162 139.93079,21.98589 195.37178,66.4106 10.92515,8.75429 35.42011,32.69421 35.42011,34.6175 0,1.53067 -22.95082,2.67268 -53.86194,2.68011 l -28.26061,0.007 -9.48494,11.8948 c -10.7136,13.43565 -11.61398,16.481 -5.21803,17.64889 6.42095,1.17247 112.89973,0.16271 115.44545,-1.09477 1.69159,-0.83559 2.69074,-0.15914 4.26688,2.8888 1.13194,2.18892 2.05808,4.30462 2.05808,4.70152 0,0.3969 -4.04732,0.72164 -8.99404,0.72164 h -8.99403 l -5.77596,7.26165 c -5.05587,6.35635 -5.82011,6.88831 -6.13004,4.26689 -0.19474,-1.64712 -0.66461,-4.91486 -1.04417,-7.26165 l -0.69008,-4.26689 h -10.4436 -10.44362 v 34.1351 34.1351 h 10.5031 10.50311 l 0.15533,-5.57977 c 0.0854,-3.06888 0.54346,-7.35218 1.01782,-9.51845 l 0.86247,-3.93866 7.15375,9.51844 7.15374,9.51844 9.22423,-0.0201 c 16.06907,-0.035 16.12512,-1.83367 0.70988,-22.78111 l -10.49944,-14.26745 3.83393,-4.76943 c 2.10865,-2.62321 6.47967,-7.72345 9.71338,-11.33389 l 5.87945,-6.56445 2.7822,6.56445 c 5.05896,11.93637 7.25213,15.57613 12.7662,21.1866 5.85402,5.9564 15.14365,9.66628 24.2045,9.66628 7.13007,0 22.8758,-3.27061 32.69942,-6.79211 8.01075,-2.87164 8.55972,-3.33033 8.95713,-7.48403 0.6135,-6.41212 -4.4062,-20.63143 -14.42623,-40.86518 -10.23712,-20.67214 -17.79359,-32.29548 -30.9717,-47.6406 -26.19308,-30.50028 -55.61626,-52.81642 -96.98345,-73.55753 -48.84015,-24.48797 -95.19009,-36.9834 -164.43849,-44.33076 l -14.93526,-1.58466 0.70601,-7.78598 c 0.84256,-9.29184 2.36299,-11.22119 13.79478,-17.5049 12.21628,-6.7149 17.05527,-10.71961 23.47074,-19.42421 13.00205,-17.64134 14.74077,-45.83875 3.9608,-64.23338 -4.13945,-7.06346 -15.71363,-18.68514 -22.55608,-22.64866 -12.96104,-7.50775 -35.9294,-9.98291 -50.83008,-5.47766 -23.46143,7.09362 -41.73739,31.09063 -41.73739,54.80274 0,7.46141 0.47211,9.253 3.21953,12.21752 2.14639,2.31598 4.57501,3.47393 7.28608,3.47393 8.67901,0 14.07905,-5.61612 16.41089,-17.06756 2.47152,-12.13746 13.3813,-24.98102 23.56,-27.73609 8.20414,-2.22061 20.62353,-0.73389 27.49146,3.29098 20.00542,11.72396 23.39514,37.19284 6.87999,51.69334 -2.52074,2.21324 -8.90665,6.28874 -14.19091,9.05666 -17.67119,9.25627 -22.34322,16.2153 -24.64079,36.70268 -0.60883,5.42903 -1.31567,10.07366 -1.57074,10.3214 -0.25505,0.24774 -10.21194,1.43759 -22.12641,2.64412 -61.58418,6.23638 -109.75934,19.39419 -156.38574,42.71278 -39.04061,19.52483 -62.21101,36.96868 -92.17194,69.39179 -15.72914,17.02174 -26.209289,32.3621 -36.378595,53.24925 -12.644291,25.97063 -15.992542,39.75014 -10.791859,44.4132 3.053105,2.73751 15.91774,6.97427 27.078214,8.91777 9.98346,1.73854 21.42009,0.88897 27.02078,-2.00726 6.89878,-3.5675 14.98856,-14.22882 20.04288,-26.41402 l 4.84873,-11.68956 0.0555,29.76083 c 0.0305,16.36847 0.41408,30.69536 0.85238,31.83755 0.98489,2.56659 16.16029,2.97479 18.63384,0.50125 z m 27.87085,-11.88165 0.0376,-13.4571 8.70191,13.4571 8.70191,13.45711 h 10.9538 10.95381 v -34.18819 -34.1882 l -10.83133,0.38132 -10.83133,0.38131 -0.37576,12.80067 c -0.20668,7.04036 -0.85397,12.80066 -1.43844,12.80066 -0.58447,0 -4.76077,-5.908 -9.28067,-13.12889 l -8.218,-13.12888 h -9.70866 -9.70868 v 34.1351 34.1351 h 10.50311 10.5031 z m 138.28589,8.53378 c 0.44758,-2.70783 0.82028,-13.63763 0.82822,-24.28844 l 0.0145,-19.3651 h 8.53377 8.53378 v -9.19022 -9.19022 H 330.1915 301.30795 v 9.19022 9.19022 h 7.79985 c 4.28991,0 8.0779,0.4499 8.41774,0.99977 0.33985,0.54988 1.00989,10.74118 1.48897,22.64733 0.4791,11.90615 1.10358,22.38605 1.38773,23.28866 0.35211,1.11852 3.61065,1.64111 10.23271,1.64111 h 9.7161 z m 33.82001,-0.32822 1.5734,-5.25156 h 8.77459 8.77458 l 1.59023,5.30767 1.59021,5.30767 9.44893,-0.38434 9.44893,-0.38433 0.3936,-4.02819 c 0.24428,-2.49993 -3.54079,-15.20145 -9.97666,-33.47866 l -10.37026,-29.45047 -9.97921,-0.38226 c -9.18178,-0.35172 -10.13208,-0.14189 -11.89207,2.62578 -2.63673,4.14635 -20.53761,57.02781 -20.53761,60.67067 0,4.32049 0.86061,4.69957 10.66923,4.69957 h 8.9187 z m 94.77418,-2.29756 c -1.00648,-10.5257 -2.19287,-11.40053 -16.20143,-11.94663 l -11.77056,-0.45885 v -24.15781 -24.1578 h -10.50311 -10.5031 v 34.1351 34.1351 h 24.85002 24.85001 z m 59.31243,-79.24118 c 5.49727,-7.29771 9.77104,-13.9442 9.49723,-14.77 -0.69457,-2.09496 -44.8327,-3.0762 -148.11993,-3.29287 -90.66344,-0.19018 -100.96548,0.17923 -100.94299,3.61956 0.0125,1.90509 4.67604,8.6411 14.71642,21.2562 l 3.57065,4.48631 40.41112,0.70224 c 22.2261,0.38623 69.7649,0.82933 105.64177,0.98467 l 65.23067,0.28243 z"
       id="path13"
       transform="scale(0.26458333)" /><rect
       style="fill:#ac9393;fill-opacity:1;stroke:#000000;stroke-width:0.264583;stroke-opacity:0"
       id="rect27"
       width="128.17896"
       height="18.757895"
       x="44.115791"
       y="183.75789" /><rect
       style="fill:#ac9393;fill-opacity:1;stroke:#000000;stroke-width:0.264583;stroke-opacity:0"
       id="rect28"
       width="7.9894733"
       height="11.463158"
       x="170.55789"
       y="195.22104" /><rect
       style="fill:#ac9393;fill-opacity:1;stroke:#000000;stroke-width:0.264583;stroke-opacity:0"
       id="rect29"
       width="21.53684"
       height="12.852631"
       x="132.34737"
       y="197.65263" /><rect
       style="fill:#ac9393;fill-opacity:1;stroke:#000000;stroke-width:0.264583;stroke-opacity:0"
       id="rect30"
       width="3.1263156"
       height="20.842104"
       x="44.115791"
       y="184.79999" /><rect
       style="fill:#ac9393;fill-opacity:1;stroke:#000000;stroke-width:0.264583;stroke-opacity:0"
       id="rect31"
       width="12.157895"
       height="9.7263155"
       x="36.821053"
       y="194.87369" /><ellipse
       style="fill:#ac9393;fill-opacity:1;stroke:#000000;stroke-width:0.264583;stroke-opacity:0"
       id="path31"
       cx="173.68422"
       cy="192.44209"
       rx="2.4315789"
       ry="5.5578947" /><ellipse
       style="fill:#ac9393;fill-opacity:1;stroke:#000000;stroke-width:0.264583;stroke-opacity:0"
       id="path32"
       cx="173.0329"
       cy="187.14473"
       rx="2.648684"
       ry="1.5631578" /><ellipse
       style="fill:#ac9393;fill-opacity:1;stroke:#000000;stroke-width:0.264583;stroke-opacity:0"
       id="path33"
       cx="173.4671"
       cy="185.84209"
       rx="1.9539473"
       ry="2.1710525" /><ellipse
       style="fill:#ac9393;fill-opacity:1;stroke:#000000;stroke-width:0.264583;stroke-opacity:0"
       id="path34"
       cx="172.12105"
       cy="183.84474"
       rx="1.3894737"
       ry="0.34736842" /><ellipse
       style="fill:#ac9393;fill-opacity:1;stroke:#000000;stroke-width:0.264583;stroke-opacity:0"
       id="path35"
       cx="151.97368"
       cy="184.36578"
       rx="2.7789474"
       ry="1.0421053" /><ellipse
       style="fill:#ac9393;fill-opacity:1;stroke:#000000;stroke-width:0.264583;stroke-opacity:0"
       id="path36"
       cx="67.424492"
       cy="204.3613"
       rx="3.5615852"
       ry="10.070689" /><ellipse
       style="fill:#ac9393;fill-opacity:1;stroke:#000000;stroke-width:0.264583;stroke-opacity:0"
       id="path39"
       cx="71.722954"
       cy="200.06284"
       rx="13.018208"
       ry="9.4566221" /><ellipse
       style="fill:#ac9393;fill-opacity:1;stroke:#000000;stroke-width:0.264583;stroke-opacity:0"
       id="path40"
       cx="132.02428"
       cy="202.15067"
       rx="12.649768"
       ry="6.1406641" /><ellipse
       style="fill:#ac9393;fill-opacity:1;stroke:#000000;stroke-width:0.264583;stroke-opacity:0"
       id="path42"
       cx="42.031578"
       cy="192.13815"
       rx="2.0842106"
       ry="7.4249997" /><ellipse
       style="fill:#ac9393;fill-opacity:1;stroke:#000000;stroke-width:0.264583;stroke-opacity:0"
       id="path43"
       cx="43.551315"
       cy="185.84209"
       rx="1.3460525"
       ry="2.2578948" /><ellipse
       style="fill:#ac9393;fill-opacity:1;stroke:#000000;stroke-width:0.264583;stroke-opacity:0"
       id="path44"
       cx="42.46579"
       cy="186.88422"
       rx="1.3026315"
       ry="3.0394738" /></g></svg>
