<?xml version="1.0" encoding="UTF-8" standalone="no"?>
<!-- Created with Inkscape (http://www.inkscape.org/) -->

<svg
   width="210mm"
   height="297mm"
   viewBox="0 0 210 297"
   version="1.1"
   id="svg1"
   xml:space="preserve"
   inkscape:version="1.4.2 (f4327f4, 2025-05-13)"
   sodipodi:docname="Logov3.svg"
   xmlns:inkscape="http://www.inkscape.org/namespaces/inkscape"
   xmlns:sodipodi="http://sodipodi.sourceforge.net/DTD/sodipodi-0.dtd"
   xmlns="http://www.w3.org/2000/svg"
   xmlns:svg="http://www.w3.org/2000/svg"><sodipodi:namedview
     id="namedview1"
     pagecolor="#505050"
     bordercolor="#eeeeee"
     borderopacity="1"
     inkscape:showpageshadow="0"
     inkscape:pageopacity="0"
     inkscape:pagecheckerboard="0"
     inkscape:deskcolor="#505050"
     inkscape:document-units="mm"
     inkscape:zoom="0.7616793"
     inkscape:cx="345.94612"
     inkscape:cy="647.91048"
     inkscape:window-width="1135"
     inkscape:window-height="1041"
     inkscape:window-x="-7"
     inkscape:window-y="0"
     inkscape:window-maximized="0"
     inkscape:current-layer="layer1" /><defs
     id="defs1" /><g
     inkscape:label="Capa 1"
     inkscape:groupmode="layer"
     id="layer1"><ellipse
       style="fill:#ffffff;stroke:#000000;stroke-width:0.264583;stroke-opacity:1"
       id="path25"
       cx="107.64764"
       cy="171.68997"
       rx="98.127808"
       ry="95.05748" /><path
       style="fill:#000000;stroke:#000000;stroke-width:0.928352;stroke-opacity:1"
       d="m 105.03619,739.44939 c -8.172548,-1.25961 -28.830052,-8.34215 -29.84102,-10.23116 -2.583216,-4.82678 10.499139,-38.60341 22.995682,-59.3713 15.181838,-25.23056 45.246928,-56.72226 73.227468,-76.70214 55.67321,-39.75422 131.08173,-65.0403 209.43824,-70.22909 l 16.47826,-1.0912 0.0165,-4.68699 c 0.0321,-9.10928 1.73063,-20.79841 3.68111,-25.33243 3.09718,-7.19957 9.38673,-12.68651 19.57658,-17.07843 10.5506,-4.5474 16.62809,-8.84208 20.52237,-14.50223 4.66126,-6.7749 6.59058,-12.79396 6.63611,-20.7032 0.0344,-5.96816 -0.39331,-7.94308 -2.86288,-13.22044 -3.76083,-8.03669 -10.45192,-14.73046 -18.56736,-18.57479 -5.80114,-2.74804 -6.9691,-2.96435 -16.00549,-2.96435 -9.10293,0 -10.15339,0.1985 -15.88102,3.00106 -11.08077,5.42188 -18.3736,16.18969 -20.21173,29.84247 -0.73406,5.45225 -1.43908,7.38917 -3.45578,9.49415 -5.32813,5.56137 -12.72294,5.4639 -17.51476,-0.23085 -2.98386,-3.54612 -3.15537,-10.35102 -0.52055,-20.65309 2.69248,-10.5275 7.69224,-19.31617 15.34622,-26.97584 7.46635,-7.47191 14.1389,-11.71199 23.61944,-15.00899 5.73774,-1.99539 8.21502,-2.29646 18.87768,-2.29426 10.02015,0.002 13.38102,0.36615 18.30755,1.98323 10.20239,3.34883 16.7188,7.38439 24.65395,15.26798 12.81154,12.72828 17.62609,25.02547 16.90274,43.17241 -0.63967,16.0474 -5.87681,27.69612 -17.61604,39.18248 -5.17963,5.06806 -8.48987,7.27386 -17.79876,11.86035 -8.26594,4.07263 -11.73133,6.28318 -12.50221,7.97508 -0.58658,1.28739 -1.0665,6.41086 -1.0665,11.3855 v 9.04478 l 15.67243,1.14885 c 85.5447,6.27076 166.87356,35.84828 224.39574,81.60779 21.52758,17.12541 44.94317,43.25682 57.70882,64.40209 10.63939,17.6233 24.36128,50.12941 24.36128,57.71001 0,3.14752 -1.34741,4.06464 -10.59058,7.20848 -14.07434,4.78705 -19.20378,5.84862 -28.40022,5.8776 -11.52877,0.0363 -17.88621,-2.31338 -24.70307,-9.13025 -5.50051,-5.50051 -7.16734,-8.47402 -11.97992,-21.37145 -3.00158,-8.04407 -10.98719,-26.16335 -11.95921,-27.13537 -0.18389,-0.18389 -1.53674,0.86806 -3.00634,2.33766 l -2.67201,2.672 -15.6922,0.61889 c -8.63071,0.34039 -33.92701,0.61889 -56.214,0.61889 -33.83524,0 -40.81916,-0.22081 -42.32385,-1.33816 -2.15774,-1.60227 -2.75081,-0.6344 9.33817,-15.23955 l 9.28352,-11.21579 42.9363,-0.0285 c 23.61497,-0.0157 42.9363,-0.35789 42.9363,-0.76043 0,-1.35084 -14.4553,-17.28872 -23.28504,-25.67324 -35.06488,-33.29682 -81.7426,-58.92331 -129.56756,-71.13376 -25.33731,-6.46901 -43.80656,-9.03316 -70.88032,-9.84058 -79.21774,-2.3625 -154.51712,24.87838 -212.56857,76.90042 -8.53415,7.64777 -26.87253,27.19888 -26.92665,28.70733 -0.0309,0.86015 33.55074,1.76947 66.2747,1.79459 l 29.79007,0.0229 9.27443,11.16704 c 10.83842,13.05021 11.24014,13.66883 9.80734,15.10265 -1.24015,1.24102 -99.6918,2.12735 -116.04957,1.04476 -9.21863,-0.6101 -9.83291,-0.78154 -12.31282,-3.43629 l -2.61013,-2.79415 -4.52176,9.62679 c -2.48697,5.29474 -6.07785,13.80438 -7.97974,18.91032 -1.90188,5.10594 -4.22278,10.78386 -5.15754,12.61761 -2.45007,4.80634 -9.74993,11.65145 -15.20724,14.2599 -5.384,2.5734 -15.64691,3.60911 -23.60655,2.38231 z m 20.77051,-6.42152 c 4.92001,-2.17141 10.58256,-7.10432 13.44685,-11.71417 0.95726,-1.54064 3.61474,-7.89763 5.90551,-14.12664 4.48208,-12.18754 11.68096,-27.30209 14.9657,-31.42155 2.44607,-3.06767 3.56556,-2.5409 5.92217,2.78662 l 1.78144,4.02722 47.67976,0.6471 c 26.22387,0.3559 52.83617,0.5107 59.13843,0.344 l 11.45867,-0.3031 -7.74526,-9.44215 -7.74525,-9.44215 -49.78528,-0.0735 c -41.40492,-0.0611 -49.9663,-0.2916 -50.86074,-1.36933 -1.46691,-1.76753 6.97129,-12.21777 22.20024,-27.49376 45.14839,-45.28782 105.13723,-74.64747 172.5778,-84.46278 11.39696,-1.65872 17.75469,-1.94398 43.16839,-1.93689 35.72502,0.01 50.25712,1.59846 78.07734,8.53458 55.78552,13.90841 108.01302,44.22365 145.57718,84.49966 12.3115,13.20031 16.76058,19.23393 15.39554,20.8787 -0.87145,1.05003 -8.85674,1.27636 -45.03299,1.27636 h -43.97372 l -7.43617,8.97882 c -4.0899,4.93837 -7.43617,9.39115 -7.43617,9.89509 0,0.59942 18.21698,0.69745 52.684,0.28349 51.89943,-0.62332 52.70819,-0.66161 54.30861,-2.5711 0.89354,-1.0661 1.62462,-2.67645 1.62462,-3.57855 0,-0.9021 0.63447,-2.16675 1.40994,-2.81033 1.15617,-0.95954 1.75887,-0.85468 3.34858,0.58259 2.58262,2.33498 10.89468,19.52582 16.04898,33.19221 4.69174,12.43992 7.7074,17.33987 13.07736,21.24856 10.94856,7.96924 19.93059,7.99919 45.78434,0.15265 l 7.7219,-2.34358 -0.62067,-2.96809 c -1.28979,-6.16781 -10.12607,-28.4475 -15.38971,-38.80337 -10.53324,-20.72351 -23.69884,-38.54622 -42.13387,-57.03804 -56.74575,-56.9206 -145.43346,-93.3212 -245.55296,-100.7837 -17.81139,-1.32759 -17.29308,-1.19357 -17.98442,-4.65022 -0.75152,-3.75764 -0.73324,-16.03511 0.0308,-20.6599 0.79909,-4.8372 5.08162,-8.87571 12.30612,-11.60493 31.18095,-11.77931 45.24697,-46.51854 30.59389,-75.55854 -4.45564,-8.83037 -14.4383,-18.30943 -24.2303,-23.00796 -36.08016,-17.31248 -76.92914,5.03009 -80.28377,43.91164 -0.66,7.64968 0.78963,9.97045 6.22787,9.97045 4.88752,0 6.52873,-2.30476 8.09111,-11.36241 2.59128,-15.02258 10.27628,-25.48155 23.23286,-31.61896 5.9276,-2.80784 6.86424,-2.97208 16.95035,-2.97208 10.33782,0 10.89665,0.10551 17.6387,3.33025 22.0642,10.55335 30.51848,32.81057 20.34741,53.56779 -5.16502,10.54081 -13.4511,17.37053 -27.41183,22.5939 -6.18427,2.31383 -11.56113,6.89183 -15.03533,12.80148 -2.39062,4.06646 -2.51532,4.9182 -2.81115,19.19936 l -0.30956,14.94414 -13.61573,0.59808 c -70.70008,3.10553 -143.3358,24.63556 -198.19379,58.74682 -24.26537,15.08845 -50.99842,37.86431 -68.30651,58.19534 -12.64118,14.84903 -24.905108,34.19042 -32.195059,50.77472 -4.006669,9.11498 -10.600597,28.21687 -10.600597,30.70875 0,1.32859 1.962566,2.32554 9.051436,4.59796 18.85155,6.04309 28.06874,6.75452 36.91696,2.84941 z"
       id="path37"
       transform="scale(0.26458333)" /><path
       style="fill:#000000;stroke:#000000;stroke-width:0.928352;stroke-opacity:1"
       d="m 315.37797,687.68636 -5.36778,-0.33586 -7.50053,-9.00422 c -10.53647,-12.64881 -12.62802,-15.88819 -10.94575,-16.95272 1.83662,-1.16219 243.19573,-1.11945 245.02376,0.0434 1.8293,1.16364 1.21627,2.13191 -10.12988,15.99965 l -8.90134,10.8796 -98.40535,-0.147 c -54.12295,-0.0809 -100.82086,-0.29813 -103.77313,-0.48285 z m 207.24454,-13.00627 7.53098,-9.05144 -19.29546,-0.56619 c -32.79299,-0.96227 -213.04322,-0.9162 -212.70219,0.0544 0.1702,0.48438 3.59686,4.87084 7.61482,9.7477 l 7.30537,8.867 h 101.00775 101.00775 z"
       id="path38"
       transform="scale(0.26458333)" /><path
       style="fill:#ffffff;stroke:#000000;stroke-width:0.928352;stroke-opacity:1"
       d=""
       id="path47"
       transform="scale(0.26458333)" /><path
       style="fill:#ffffff;stroke:#000000;stroke-width:0.928352;stroke-opacity:1"
       d=""
       id="path60"
       transform="scale(0.26458333)" /><path
       style="fill:#e9c6af;stroke:#000000;stroke-width:1.31289"
       d="M 378.11189,1006.1612 C 325.24245,1001.2092 280.68384,988.65212 236.27973,966.1914 166.39015,930.83947 111.42744,876.6988 76.267661,808.57248 7.1427857,674.63469 31.349585,513.89608 137.10485,404.59981 c 51.68896,-53.41967 120.68313,-91.28309 193.02549,-105.93076 49.72538,-10.06826 104.84258,-10.01341 154.24355,0.15349 71.02491,14.61717 136.54229,50.01033 187.88842,101.49925 67.5441,67.73193 103.68385,154.00389 103.71729,247.5915 0.0104,29.19875 -1.38985,44.02292 -6.63453,70.23672 -13.22735,66.1126 -44.9329,125.70048 -93.14883,175.06527 -33.29245,34.08571 -64.71424,56.85269 -105.12546,76.16968 -37.37727,17.86674 -71.37045,28.0987 -114.18558,34.36994 -13.352,1.9557 -66.31212,3.5735 -78.77331,2.4063 z M 129.27303,737.86584 c 8.79339,-4.2568 14.48908,-11.28115 19.71252,-24.31094 2.60526,-6.4988 6.57499,-15.81265 8.82162,-20.69746 3.97934,-8.6522 4.15082,-8.82165 6.6433,-6.56444 2.33215,2.11203 6.9895,2.35528 52.64044,2.74937 27.54504,0.23779 56.17095,0.031 63.61311,-0.45962 16.5929,-1.09378 16.58345,-1.03754 2.9624,-17.62331 l -9.76415,-11.88941 -43.40784,-0.15533 c -23.8743,-0.0854 -45.17082,-0.53272 -47.32561,-0.99395 l -3.91779,-0.83861 15.07734,-15.17763 c 45.39013,-45.69206 102.63884,-74.34079 169.34175,-84.74295 21.06932,-3.28571 68.15301,-3.31016 89.27641,-0.0464 32.59355,5.03607 62.40113,14.3267 91.3243,28.46457 31.6667,15.47893 56.69254,33.70601 81.32054,59.22823 l 13.12889,13.60558 -42.29048,0.34634 -42.29047,0.34636 -9.89685,12.06129 c -5.44326,6.63371 -9.89684,13.11311 -9.89684,14.39864 0,1.37452 1.3025,2.66425 3.16199,3.13095 1.73909,0.43648 27.9682,0.59544 58.2869,0.35323 50.77531,-0.40562 55.32985,-0.62592 57.72209,-2.79187 2.55354,-2.312 2.7129,-2.06936 9.48542,14.44177 3.78854,9.2363 7.94843,18.86108 9.24421,21.38839 3.15201,6.14773 11.30146,13.84546 17.30629,16.34699 10.19623,4.24765 34.24201,1.54642 49.35258,-5.54411 3.69453,-1.73363 4.94918,-3.1752 5.27941,-6.06594 0.96904,-8.48275 -15.41365,-45.68383 -29.21773,-66.34628 -49.13626,-73.54898 -148.26229,-125.1182 -263.82975,-137.2545 -10.51711,-1.10446 -21.20664,-2.0081 -23.75448,-2.0081 h -4.63245 v -9.09644 c 0,-10.83044 0.27438,-11.18337 14.41272,-18.53895 16.89409,-8.78927 27.64785,-21.21403 32.25536,-37.26744 3.27049,-11.39501 2.18407,-30.51525 -2.28905,-40.28584 -5.09801,-11.13552 -17.77879,-23.82553 -29.69399,-29.71561 -9.89813,-4.89297 -10.03452,-4.91835 -26.43081,-4.91835 -15.83449,0 -16.83109,0.16566 -25.3927,4.22101 -17.52312,8.30011 -30.5652,24.81795 -34.50142,43.69615 -2.1362,10.24528 -1.53672,14.96911 2.45795,19.36838 2.96731,3.26783 10.85817,4.04694 15.55097,1.53543 2.95468,-1.58129 6.36643,-8.71191 6.36802,-13.30926 0.002,-4.46059 7.00417,-18.24329 11.32184,-22.28388 21.50835,-20.12801 59.66601,-3.79857 59.54427,25.48176 -0.0587,14.1312 -7.70343,24.33323 -24.27238,32.39227 -19.26185,9.36881 -23.91794,16.34847 -25.27587,37.88944 l -0.6828,10.83133 -6.05117,0.0141 c -8.32099,0.0193 -40.15746,3.47186 -55.28447,5.99539 -67.36482,11.23798 -132.23378,38.69628 -177.28223,75.04159 -14.30964,11.54508 -42.59152,41.23603 -52.28674,54.89177 -13.286873,18.7146 -31.695844,59.48812 -31.695844,70.20226 0,3.11796 2.92644,4.72155 17.067551,9.35243 14.307473,4.68536 30.394653,5.16427 38.683723,1.1516 z m 399.1228,-60.89363 c 5.43864,-6.76184 9.88846,-13.16668 9.88846,-14.233 0,-2.66465 -34.90581,-3.67024 -127.23366,-3.66547 -91.90496,0.005 -120.90227,0.92298 -120.90227,3.82844 0,2.85145 17.70745,24.68924 20.63767,25.45151 1.28583,0.3345 48.54915,0.67672 105.02961,0.76048 l 102.69173,0.15229 z"
       id="path1"
       transform="scale(0.26458333)" /><path
       style="fill:#e9c6af;stroke:#000000;stroke-width:1.31289"
       d="m 307.26003,674.49647 -6.63954,-8.20555 105.37479,-0.32902 c 57.95613,-0.18096 108.83916,0.11444 113.07341,0.65645 l 7.69861,0.98545 -6.2183,7.54911 -6.21831,7.54911 H 414.11513 313.89956 Z"
       id="path2"
       transform="scale(0.26458333)" /><path
       style="fill:#803300;stroke:#000000;stroke-width:1.31289"
       d="m 308.94509,674.42815 -5.4917,-6.82435 99.56256,-0.33639 c 54.75941,-0.18501 104.35225,0.11039 110.20632,0.65645 l 10.64376,0.99283 -4.9351,6.17326 -4.93508,6.17326 -99.77953,-0.005 -99.77952,-0.005 z"
       id="path7"
       transform="scale(0.26458333)" /><path
       style="fill:#ffe6d5;stroke:#000000;stroke-width:1.31289"
       d="m 94.527972,730.47429 c -6.137754,-1.80985 -11.705497,-3.83089 -12.372763,-4.49121 -3.60402,-3.56646 15.93223,-46.52886 30.423071,-66.90373 17.37096,-24.42447 53.06924,-56.41467 83.04211,-74.41632 52.12783,-31.30786 117.62424,-51.00112 185.48277,-55.77039 l 23.06319,-1.62093 0.42987,-16.03927 c 0.42025,-15.67957 0.52087,-16.15231 4.48656,-21.0797 2.65721,-3.30159 7.7197,-6.85212 14.67474,-10.29199 14.82369,-7.33161 20.37305,-12.21291 25.32892,-22.27974 9.20004,-18.68792 3.52066,-39.73123 -13.78577,-51.07917 -9.14684,-5.99764 -13.95815,-7.3858 -25.54714,-7.37091 -21.06848,0.0271 -34.95838,11.57134 -40.26566,33.46583 -2.67314,11.0277 -4.29642,13.13893 -9.16309,11.91747 -3.5115,-0.88133 -3.55698,-1.02734 -2.89376,-9.28967 1.27667,-15.90444 11.66255,-32.02356 26.07586,-40.47033 29.13786,-17.07592 69.19305,-2.05651 78.7915,29.54429 7.84509,25.82825 -3.88922,50.78773 -30.06429,63.9483 -14.74274,7.4125 -16.04843,9.40194 -16.04843,24.45244 0,8.13174 0.54135,12.56803 1.64111,13.44846 0.90261,0.72262 9.6169,2.01497 19.3651,2.87189 98.42496,8.65219 181.52031,42.07406 237.82608,95.65631 26.36695,25.09157 42.89188,49.41399 56.10425,82.57767 7.83658,19.67019 8.00239,18.82971 -4.43841,22.49823 -5.77671,1.70344 -14.74083,3.40946 -19.92026,3.79115 -7.96305,0.58685 -10.35054,0.24216 -15.46213,-2.23231 -7.88665,-3.81787 -11.30326,-8.51435 -18.25104,-25.08794 -13.48848,-32.17613 -19.15802,-39.57654 -22.38714,-29.22176 -0.48584,1.55799 -1.85911,3.20714 -3.05169,3.66477 -1.19257,0.45764 -24.93534,1.20032 -52.76169,1.65042 l -50.59338,0.81836 6.72996,-8.4218 6.72997,-8.42179 44.66082,-0.65645 c 24.56344,-0.36104 45.1266,-1.12286 45.69591,-1.69294 1.84999,-1.8525 -3.38045,-9.42371 -15.46189,-22.38147 -41.54137,-44.55459 -98.7921,-75.73401 -163.11079,-88.83208 -27.16639,-5.53225 -82.65383,-6.49983 -110.8861,-1.93359 -52.25049,8.45088 -104.10939,31.0225 -143.30063,62.37166 -11.75744,9.40481 -37.0223,34.22778 -42.63791,41.89216 -4.97638,6.79194 -4.41648,8.75525 2.77806,9.74137 3.35018,0.45918 26.0405,0.83489 50.42294,0.83489 h 44.3317 l 6.5628,8.20555 6.56279,8.20556 -16.61441,0.42598 c -9.13793,0.23428 -35.033,0.0196 -57.5446,-0.47716 l -40.93017,-0.90315 -1.53069,-3.69539 c -4.20138,-10.14304 -9.9581,-2.56962 -23.20543,30.5286 -10.01483,25.02187 -21.95508,30.51893 -48.980818,22.54983 z"
       id="path8"
       transform="scale(0.26458333)" /></g></svg>
