<?xml version="1.0" encoding="UTF-8" standalone="no"?>
<!-- Created with Inkscape (http://www.inkscape.org/) -->

<svg
   width="210mm"
   height="297mm"
   viewBox="0 0 210 297"
   version="1.1"
   id="svg1"
   xml:space="preserve"
   inkscape:version="1.4.2 (f4327f4, 2025-05-13)"
   sodipodi:docname="Logov2.svg"
   xmlns:inkscape="http://www.inkscape.org/namespaces/inkscape"
   xmlns:sodipodi="http://sodipodi.sourceforge.net/DTD/sodipodi-0.dtd"
   xmlns="http://www.w3.org/2000/svg"
   xmlns:svg="http://www.w3.org/2000/svg"><sodipodi:namedview
     id="namedview1"
     pagecolor="#505050"
     bordercolor="#eeeeee"
     borderopacity="1"
     inkscape:showpageshadow="0"
     inkscape:pageopacity="0"
     inkscape:pagecheckerboard="0"
     inkscape:deskcolor="#505050"
     inkscape:document-units="mm"
     inkscape:zoom="1.0771772"
     inkscape:cx="370.87677"
     inkscape:cy="628.95873"
     inkscape:window-width="1920"
     inkscape:window-height="1057"
     inkscape:window-x="-8"
     inkscape:window-y="-8"
     inkscape:window-maximized="1"
     inkscape:current-layer="layer1" /><defs
     id="defs1" /><g
     inkscape:label="Capa 1"
     inkscape:groupmode="layer"
     id="layer1"><ellipse
       style="fill:#ffffff;stroke:#000000;stroke-width:0.264583;stroke-opacity:1"
       id="path25"
       cx="108.68974"
       cy="181.76366"
       rx="98.127808"
       ry="95.05748" /><path
       style="fill:#ffffff;stroke:#000000;stroke-opacity:1"
       d="m 69.61799,201.33942 c -2.516161,-0.81218 -4.280979,-2.79601 -4.033126,-4.53366 0.06235,-0.43713 0.142108,-0.46181 1.67143,-0.51722 0.883274,-0.032 1.690974,0.005 1.794889,0.0828 0.103915,0.0776 0.317258,0.40067 0.474097,0.71801 0.368062,0.74472 1.714679,1.44246 2.783912,1.44246 1.541289,0 2.775296,-0.85309 2.660393,-1.83917 -0.09192,-0.78887 -0.814176,-1.20604 -3.113195,-1.79816 -4.521461,-1.16452 -6.103283,-2.51476 -6.103283,-5.20976 0,-2.00248 1.19193,-3.59236 3.320592,-4.42925 1.578079,-0.62042 4.612818,-0.63391 6.132886,-0.0273 1.9539,0.77979 3.385851,2.45796 3.385851,3.96803 v 0.68081 h -1.857703 -1.857702 l -0.458281,-0.7209 c -0.574274,-0.90336 -1.570017,-1.28004 -2.894683,-1.09502 -1.69831,0.2372 -2.419995,1.63728 -1.225211,2.37692 0.32252,0.19965 1.649151,0.63393 2.948069,0.96506 1.298919,0.33113 2.681597,0.7682 3.072619,0.97126 1.837182,0.95409 2.640922,2.21162 2.644768,4.138 0.0065,3.25397 -2.470077,5.11417 -6.768358,5.08382 -1.002221,-0.007 -2.162305,-0.12264 -2.577964,-0.2568 z m 5.495451,-0.5854 c 3.204239,-0.98397 4.485468,-4.45037 2.49702,-6.75574 -0.811847,-0.94125 -1.643385,-1.32834 -4.539651,-2.11327 -3.223577,-0.87364 -3.62394,-1.10678 -3.6995,-2.15432 -0.03176,-0.44031 0.03885,-0.98428 0.156909,-1.20884 0.301836,-0.57411 1.31356,-0.95271 2.545935,-0.95271 1.387681,0 2.269969,0.39674 2.759137,1.24071 l 0.395627,0.68257 h 1.492823 c 1.665759,0 1.690998,-0.0278 1.133874,-1.25013 -0.456724,-1.00203 -1.392922,-1.89139 -2.569554,-2.441 -0.810966,-0.37881 -1.252218,-0.44127 -3.117439,-0.44127 -1.865221,0 -2.306473,0.0625 -3.117439,0.44127 -1.851406,0.8648 -2.800595,2.181 -2.800595,3.88346 0,2.41083 1.546414,3.67758 5.775646,4.73113 2.238571,0.55766 3.087595,0.99779 3.366807,1.74536 0.577136,1.54524 -0.773798,2.7892 -3.029061,2.7892 -1.561027,0 -2.685959,-0.51471 -3.249348,-1.48673 -0.382897,-0.66061 -0.388835,-0.66282 -1.782533,-0.66282 -0.83529,0 -1.398355,0.0799 -1.398355,0.1985 0,0.47127 0.632952,1.67852 1.190424,2.27053 1.663852,1.76695 5.031203,2.39247 7.989273,1.4841 z m 54.963969,0.5854 c -2.15847,-0.69672 -3.7523,-2.09046 -4.66767,-4.08168 -2.02435,-4.4036 -0.39036,-9.77068 3.54545,-11.64553 4.23549,-2.01762 9.05604,-0.53308 10.95243,3.3729 2.41811,4.98057 0.20404,10.8821 -4.62153,12.31851 -1.23287,0.36698 -4.12114,0.38683 -5.20868,0.0358 z m 4.70079,-0.40557 c 1.48534,-0.39383 2.57073,-1.07705 3.68802,-2.32149 1.41209,-1.57278 1.80303,-2.75404 1.80892,-5.4657 0.005,-2.0801 -0.0301,-2.28675 -0.5814,-3.47102 -1.43614,-3.08504 -3.9212,-4.55015 -7.42827,-4.37947 -2.94804,0.14348 -5.26432,1.69345 -6.50063,4.34998 -0.57006,1.22493 -0.59976,1.40299 -0.59976,3.59667 0,2.11256 0.0437,2.40295 0.51656,3.43034 1.01154,2.19796 2.25109,3.33829 4.46307,4.1058 1.48165,0.5141 3.07753,0.56745 4.63349,0.15489 z m -3.51822,-2.48335 c -2.26637,-0.8234 -3.3072,-2.77137 -3.12644,-5.85131 0.10315,-1.75767 0.55388,-2.77109 1.66186,-3.73651 1.36263,-1.1873 3.39738,-1.41079 5.03972,-0.55356 1.68135,0.8776 2.41058,2.395 2.41723,5.02986 0.004,1.53263 -0.0666,1.97428 -0.4371,2.74016 -1.03966,2.14904 -3.39723,3.1554 -5.55527,2.37136 z m 3.12179,-0.56241 c 0.82623,-0.3521 1.95605,-1.66874 2.2003,-2.56413 0.11025,-0.40416 0.2001,-1.38395 0.19966,-2.1773 -0.002,-2.97066 -1.58202,-4.8082 -4.13532,-4.8082 -1.20114,0 -1.71111,0.20484 -2.64255,1.06145 -1.01872,0.93687 -1.4432,2.11607 -1.41796,3.93907 0.0294,2.12712 0.80626,3.60957 2.31736,4.4224 0.82099,0.44161 2.5885,0.506 3.47851,0.12671 z m 13.831,3.37504 c -3.50739,-1.2346 -5.3822,-4.06996 -5.3822,-8.13975 0,-2.53545 0.89683,-4.75122 2.55143,-6.30376 1.74265,-1.63516 4.37425,-2.39256 6.91952,-1.99152 4.09759,0.64564 6.77752,3.93492 6.77752,8.31856 0,3.8513 -2.05691,6.9123 -5.44142,8.09765 -1.36946,0.47962 -4.08896,0.48906 -5.42485,0.0188 z m 4.70326,-0.32928 c 3.82444,-1.01402 6.23666,-4.93444 5.59022,-9.08541 -0.41599,-2.6712 -1.86798,-4.7357 -4.12679,-5.86768 -1.18454,-0.59362 -1.34789,-0.62339 -3.42068,-0.62339 -1.96615,0 -2.28125,0.0499 -3.25708,0.51545 -5.61268,2.6779 -5.95649,11.42785 -0.564,14.35362 1.87642,1.01808 3.74421,1.24674 5.77833,0.70741 z m -3.285,-2.37785 c -2.28437,-0.76298 -3.2804,-2.37796 -3.29054,-5.33533 -0.005,-1.57468 0.0517,-1.86828 0.56074,-2.88492 1.75208,-3.49887 6.49849,-3.37387 8.1435,0.21448 0.35373,0.77161 0.44121,1.28852 0.44269,2.61581 0.003,2.49074 -0.67745,4.00421 -2.21084,4.91896 -0.88625,0.5287 -2.75133,0.76967 -3.64555,0.471 z m 3.51616,-1.00872 c 2.27465,-1.53232 2.60299,-5.77041 0.61698,-7.96366 -0.91618,-1.01179 -1.72426,-1.31565 -3.20823,-1.20638 -1.43873,0.10594 -2.50562,0.83407 -3.18059,2.17066 -0.41881,0.82935 -0.48234,1.19805 -0.48025,2.787 0.002,1.50009 0.0755,1.9703 0.40672,2.60051 0.8503,1.61795 1.92685,2.23686 3.7645,2.1642 1.07051,-0.0423 1.48849,-0.15327 2.08087,-0.55233 z m -111.1219,3.62888 c -0.04988,-0.13233 -0.06847,-3.78896 -0.04131,-8.12585 l 0.04939,-7.88526 1.936591,-0.0548 1.936591,-0.0548 v 8.18067 8.18067 h -1.895287 c -1.342721,0 -1.921729,-0.0702 -1.985983,-0.2406 z m 3.357386,-7.6124 c 0.02835,-4.10759 0.02406,-7.61277 -0.0095,-7.78928 -0.0505,-0.26531 -0.304305,-0.32094 -1.464251,-0.32094 h -1.403164 v 7.78928 7.78928 h 1.412707 1.412707 z m 3.546855,-0.32094 v -8.17394 h 1.846227 1.846227 l 3.207803,4.99022 3.207803,4.99022 0.05037,-4.99022 0.05037,-4.99022 h 1.88622 1.88622 v 8.17394 8.17394 h -1.963014 -1.963015 l -3.091015,-4.84995 -3.091016,-4.84995 -0.05048,4.84995 -0.05048,4.84995 h -1.886113 -1.886113 z m 3.400843,2.5804 c 0,-3.965 0.05412,-5.19052 0.226654,-5.13197 0.12466,0.0423 1.707498,2.38629 3.517418,5.20888 l 3.290764,5.13197 h 1.583846 1.583845 v -7.78928 -7.78928 h -1.417017 -1.417018 l -0.04263,3.02916 c -0.02344,1.66604 -0.05,4.02432 -0.05902,5.24062 -0.01306,1.76193 -0.07161,2.22176 -0.288013,2.2622 -0.171569,0.0321 -1.518673,-1.89826 -3.65725,-5.24062 l -3.385635,-5.29136 h -1.479459 -1.479459 v 7.78928 7.78928 h 1.511485 1.511486 z m 32.960671,5.35156 c -0.05298,-0.14052 -0.07271,-3.0406 -0.04385,-6.4446 l 0.05246,-6.18909 -2.456164,-0.0532 -2.456164,-0.0532 v -1.63479 -1.63478 h 6.896153 6.896153 v 1.63478 1.63479 l -2.40639,0.0538 -2.406391,0.0538 -0.04977,6.38918 -0.04977,6.38918 -1.93997,0.0548 c -1.477677,0.0418 -1.962923,-0.006 -2.036288,-0.20066 z m 3.503918,-6.58566 v -6.44299 h 2.456164 2.456164 v -1.3463 -1.34629 h -6.423813 -6.423814 v 1.34629 1.3463 h 2.456164 2.456164 v 6.44299 6.44298 h 1.511486 1.511485 z m 5.2902,6.60697 c 0,-0.12137 1.113731,-3.302 2.474958,-7.06806 1.361227,-3.76606 2.644348,-7.34503 2.851381,-7.95326 l 0.376422,-1.10589 h 2.135926 2.13592 l 2.85353,7.79297 c 1.56944,4.28614 2.85353,7.96441 2.85353,8.17394 0,0.35507 -0.13224,0.38097 -1.94543,0.38097 h -1.94543 l -0.47488,-1.49054 -0.47489,-1.49054 -2.94269,-0.0529 -2.942702,-0.0529 -0.121657,0.49342 c -0.06691,0.27139 -0.29532,0.96592 -0.507573,1.5434 l -0.385915,1.04997 h -1.97025 c -1.356261,0 -1.97025,-0.0688 -1.97025,-0.22067 z m 4.063546,-1.70698 0.5048,-1.54299 3.325251,0.0524 3.32524,0.0524 0.47492,1.49054 0.47493,1.49054 h 1.56479 1.5648 l -0.34857,-0.91355 c -0.19172,-0.50246 -1.47925,-4.00764 -2.86119,-7.78929 l -2.51261,-6.87572 h -1.72602 -1.72602 l -2.7134,7.54887 c -1.492369,4.15188 -2.751804,7.65706 -2.798743,7.78928 -0.06375,0.17958 0.298332,0.24041 1.430839,0.24041 h 1.516183 z m 14.074281,-6.24343 v -8.1768 h 1.88684 1.88685 l 0.0497,6.49107 0.0498,6.49107 3.49531,0.0162 c 1.92242,0.009 3.60503,0.0305 3.73912,0.0481 0.18197,0.0238 0.22989,0.43439 0.18894,1.61864 l -0.0549,1.58671 -5.62083,0.0509 -5.62084,0.0509 z m 10.76933,6.53629 v -1.25013 h -3.68424 -3.68425 v -6.53915 -6.53915 h -1.51148 -1.51149 v 7.78928 7.78928 h 5.19573 5.19573 z m 38.54289,-6.53915 v -8.17394 h 1.88443 1.88444 l 0.0522,2.90729 0.0522,2.90729 2.53776,-2.90729 2.53776,-2.90729 h 2.34119 c 1.88911,0 2.32939,0.051 2.2801,0.26421 -0.0336,0.14532 -1.37892,1.71152 -2.98959,3.48046 -1.61068,1.76894 -2.95443,3.28706 -2.98612,3.37362 -0.0317,0.0865 1.43709,2.12718 3.26395,4.53473 1.85304,2.44207 3.24974,4.45046 3.15912,4.54271 -0.0893,0.0909 -1.12786,0.14074 -2.30782,0.11066 l -2.14538,-0.0547 -2.37314,-3.22653 -2.37315,-3.22652 -0.51958,0.58505 c -0.51463,0.57949 -0.51957,0.61059 -0.51957,3.2746 v 2.68956 h -1.88936 -1.88935 z m 3.40084,5.14051 v -2.64877 l 0.58056,-0.71697 c 0.31931,-0.39433 0.68259,-0.71697 0.80728,-0.71697 0.1247,0 1.33006,1.51134 2.67858,3.35854 l 2.45186,3.35853 1.77008,0.007 1.77008,0.007 -0.53982,-0.72123 c -0.2969,-0.39667 -1.75234,-2.3218 -3.23433,-4.27806 -1.48198,-1.95626 -2.69451,-3.67603 -2.69451,-3.82171 0,-0.22421 1.27212,-1.68093 5.27143,-6.03633 l 0.66226,-0.72123 h -1.80249 -1.80249 l -2.69487,3.07724 c -1.48217,1.69249 -2.81383,3.07725 -2.95924,3.07725 -0.21553,0 -0.26438,-0.56854 -0.26438,-3.07725 v -3.07724 h -1.41702 -1.41702 v 7.78928 7.78928 h 1.41702 1.41702 z M 26.729587,195.05874 c -2.653822,-0.68007 -6.277087,-1.90474 -6.521219,-2.20418 -0.508126,-0.62325 1.61603,-6.85707 3.920825,-11.50655 2.776481,-5.60103 6.060963,-10.10133 11.19036,-15.33271 4.449229,-4.53769 8.71961,-7.99541 13.99372,-11.3307 14.933071,-9.44351 34.040249,-15.19587 53.434107,-16.08673 l 2.86286,-0.1315 0.003,-2.61494 c 0.005,-4.03909 0.51332,-5.86853 2.1248,-7.64817 0.96549,-1.06624 1.87433,-1.61489 3.85466,-2.32698 3.04658,-1.09549 5.09219,-2.8361 6.35654,-5.40877 1.81136,-3.6857 1.08389,-7.79021 -1.90998,-10.77652 -3.41814,-3.4095 -8.21247,-4.1374 -12.38989,-1.88108 -2.92381,1.57922 -5.027219,5.16876 -5.030737,8.58512 -3.88e-4,0.37725 -0.172187,0.97222 -0.381774,1.32216 -0.40134,0.67009 -1.642265,1.37165 -2.439137,1.37897 -0.736612,0.007 -2.075444,-0.75414 -2.379268,-1.35222 -0.564152,-1.11053 -0.102419,-4.5547 0.955158,-7.12472 1.459798,-3.54746 4.627069,-6.71062 8.183568,-8.17295 2.31631,-0.9524 3.35721,-1.13756 6.26469,-1.11441 2.37999,0.0189 2.95797,0.0887 4.40361,0.53126 3.00674,0.92052 4.987,2.1689 7.14557,4.50468 2.20084,2.38151 3.39227,4.97193 3.78571,8.2309 0.66954,5.54592 -1.86326,11.06096 -6.51687,14.19019 -1.41088,0.94872 -3.47504,1.98165 -4.66144,2.33263 -0.25978,0.0769 -0.67459,0.32452 -0.92179,0.55037 -0.80303,0.73366 -0.96756,1.45656 -0.96756,4.25102 v 2.6026 h 1.10617 c 0.6084,0 2.20255,0.0874 3.54255,0.19428 29.96361,2.38936 55.85538,14.43726 70.26122,32.6938 4.56648,5.7871 8.18122,12.73406 10.02678,19.26989 0.43852,1.55294 0.48535,1.91456 0.28052,2.1658 -0.26699,0.32748 -4.04212,1.58999 -6.61999,2.21392 -2.10187,0.50872 -4.65952,0.52068 -6.21128,0.0291 -1.57592,-0.49929 -2.59947,-1.14973 -3.73853,-2.37574 -1.0816,-1.16417 -1.69187,-2.28456 -2.33233,-4.28189 -0.62953,-1.96328 -1.97917,-5.12493 -3.05968,-7.16759 l -0.94284,-1.78241 -0.40701,0.82077 c -0.22538,0.45449 -0.64031,0.93343 -0.92979,1.07323 -0.41267,0.1993 -3.62689,0.27064 -15.26167,0.33875 -13.43165,0.0786 -14.74926,0.0588 -14.85578,-0.2238 -0.0643,-0.17054 -0.0372,-0.36625 0.0602,-0.43491 0.0974,-0.0686 1.26749,-1.44468 2.60019,-3.05783 l 2.42309,-2.933 h 11.70412 11.70413 l -1.18908,-1.48132 c -5.88054,-7.32579 -14.58759,-14.16806 -24.25182,-19.05781 -20.95859,-10.60431 -46.728341,-11.51977 -68.527222,-2.4344 -11.416846,4.75833 -22.166977,12.52544 -29.057211,20.99423 l -1.532127,1.88313 13.130745,0.0962 13.130745,0.0962 2.016835,2.4041 c 1.10926,1.32225 2.269709,2.69091 2.578776,3.04147 0.309066,0.35055 0.522096,0.74306 0.473399,0.87224 -0.06876,0.1824 -3.353828,0.23007 -14.705328,0.21339 -19.96177,-0.0293 -18.016597,0.0475 -18.792266,-0.74213 -0.35331,-0.35965 -0.642381,-0.84626 -0.642381,-1.08135 0,-0.35021 -0.04915,-0.38591 -0.272047,-0.19761 -0.511797,0.43238 -2.912896,5.68039 -3.788177,8.2797 -0.480871,1.42804 -1.127873,2.99901 -1.437782,3.49106 -0.833841,1.32391 -2.282521,2.60927 -3.717649,3.29854 -1.168117,0.56102 -1.445017,0.61381 -3.443037,0.65638 -1.668641,0.0356 -2.523453,-0.0436 -3.684246,-0.34104 z m 5.445202,-0.27638 c 1.489581,-0.39495 2.476404,-0.94032 3.548312,-1.96096 1.300655,-1.23846 1.975644,-2.41549 2.74995,-4.79531 0.373563,-1.14815 1.011225,-2.86741 1.417025,-3.82059 0.961848,-2.25927 2.83201,-5.67577 3.106864,-5.67577 0.118477,0 0.320845,0.38333 0.449708,0.85185 0.128862,0.46851 0.444312,1.05271 0.700998,1.29821 l 0.466703,0.44637 15.969407,0.0513 15.969407,0.0513 -1.185134,-1.39759 c -0.651824,-0.76868 -1.736929,-2.06834 -2.411345,-2.88814 l -1.226211,-1.49054 H 58.440645 c -8.112808,0 -13.289828,-0.07 -13.289828,-0.17973 0,-0.56719 3.994937,-5.13 7.075051,-8.08075 12.345592,-11.82712 29.049762,-19.43529 46.960559,-21.38892 3.169993,-0.34576 14.600413,-0.34737 17.665483,-0.002 10.13598,1.14052 19.5538,3.85748 28.15142,8.12143 7.08035,3.51147 14.37601,8.68614 19.88063,14.10095 2.52528,2.48408 6.09803,6.66968 6.09803,7.14406 0,0.24933 -1.49311,0.28544 -11.80057,0.28544 h -11.80057 l -2.3804,2.88842 -2.3804,2.88843 14.57525,-0.0516 14.57525,-0.0516 0.45526,-0.53883 c 0.25039,-0.29636 0.50958,-0.88465 0.57597,-1.30731 0.0854,-0.54398 0.20423,-0.75177 0.40661,-0.7113 0.59347,0.11868 3.42674,5.93476 4.4782,9.19275 0.75312,2.33355 1.31902,3.38309 2.50881,4.65285 1.94456,2.07528 4.54406,2.93246 7.55092,2.4899 1.53111,-0.22535 7.0947,-1.75944 7.82628,-2.158 0.1919,-0.10455 0.3489,-0.32229 0.3489,-0.48388 0,-0.60018 -1.89161,-6.02168 -2.88794,-8.27705 -9.52269,-21.5563 -34.09418,-37.84874 -65.22338,-43.24718 -4.95055,-0.85853 -13.88377,-1.82794 -16.8446,-1.82794 -0.37476,0 -0.36463,-5.9573 0.0114,-6.69295 0.42131,-0.8243 1.0895,-1.35073 2.21462,-1.74477 4.83723,-1.69413 8.41321,-5.20805 9.90927,-9.73728 0.6649,-2.01294 0.83226,-5.25108 0.38269,-7.40462 -1.4037,-6.7241 -7.73298,-11.6289 -14.9448,-11.58129 -6.86195,0.0453 -12.776217,4.67117 -14.438067,11.29279 -0.39467,1.57256 -0.556007,3.35045 -0.367206,4.04651 0.350574,1.29247 2.060078,1.83891 3.315375,1.05976 0.82771,-0.51375 1.033804,-0.99148 1.215669,-2.81796 0.415905,-4.17692 2.896539,-7.31792 6.912559,-8.75272 1.55195,-0.55446 4.31302,-0.68556 5.98537,-0.28419 2.7157,0.65178 5.74053,2.89989 6.97658,5.18514 2.18898,4.04704 1.50594,8.72204 -1.75987,12.04534 -1.35349,1.37731 -2.51378,2.08928 -4.55864,2.79727 -0.74383,0.25754 -1.70639,0.67942 -2.13902,0.93751 -1.09512,0.6533 -2.31248,2.05555 -2.90629,3.34767 -0.4769,1.03774 -0.50485,1.26906 -0.56758,4.69764 l -0.066,3.60615 h -0.59957 c -1.40497,0 -6.902545,0.42014 -10.166892,0.77699 -8.685799,0.94951 -16.320928,2.64447 -24.623584,5.46631 -11.417452,3.88047 -20.792775,8.96889 -29.473969,15.99689 -2.670657,2.16207 -8.426318,8.02039 -10.555775,10.74405 -4.012717,5.13243 -7.208764,11.05438 -9.069348,16.80457 -0.584834,1.80745 -1.063335,3.41472 -1.063335,3.57172 0,0.39281 0.314847,0.53515 3.022971,1.36666 4.648793,1.42739 6.54253,1.68062 8.562641,1.145 z m 50.109974,-13.25898 c -0.611852,-0.49724 -5.014877,-5.91569 -5.014877,-6.1714 0,-0.24954 3.935104,-0.28415 32.308004,-0.28415 25.72638,0 32.308,0.049 32.308,0.24049 0,0.13227 -0.90353,1.3223 -2.00786,2.64451 -1.10432,1.32221 -2.25366,2.70693 -2.55408,3.07716 l -0.54622,0.67315 -27.12042,0.0126 c -18.923141,0.009 -27.19663,-0.0494 -27.372547,-0.19233 z m 56.390947,-2.92519 c 1.19407,-1.44327 2.23903,-2.74149 2.32213,-2.88492 0.12692,-0.21907 -4.91314,-0.26079 -31.50873,-0.26079 H 77.829287 l 2.412633,2.88485 2.412633,2.88485 26.925067,7e-5 26.92506,7e-5 z"
       id="path1" /><path
       style="fill:#000000;stroke:#000000;stroke-width:0.928352;stroke-opacity:1"
       d="m 105.03619,739.44939 c -8.172548,-1.25961 -28.830052,-8.34215 -29.84102,-10.23116 -2.583216,-4.82678 10.499139,-38.60341 22.995682,-59.3713 15.181838,-25.23056 45.246928,-56.72226 73.227468,-76.70214 55.67321,-39.75422 131.08173,-65.0403 209.43824,-70.22909 l 16.47826,-1.0912 0.0165,-4.68699 c 0.0321,-9.10928 1.73063,-20.79841 3.68111,-25.33243 3.09718,-7.19957 9.38673,-12.68651 19.57658,-17.07843 10.5506,-4.5474 16.62809,-8.84208 20.52237,-14.50223 4.66126,-6.7749 6.59058,-12.79396 6.63611,-20.7032 0.0344,-5.96816 -0.39331,-7.94308 -2.86288,-13.22044 -3.76083,-8.03669 -10.45192,-14.73046 -18.56736,-18.57479 -5.80114,-2.74804 -6.9691,-2.96435 -16.00549,-2.96435 -9.10293,0 -10.15339,0.1985 -15.88102,3.00106 -11.08077,5.42188 -18.3736,16.18969 -20.21173,29.84247 -0.73406,5.45225 -1.43908,7.38917 -3.45578,9.49415 -5.32813,5.56137 -12.72294,5.4639 -17.51476,-0.23085 -2.98386,-3.54612 -3.15537,-10.35102 -0.52055,-20.65309 2.69248,-10.5275 7.69224,-19.31617 15.34622,-26.97584 7.46635,-7.47191 14.1389,-11.71199 23.61944,-15.00899 5.73774,-1.99539 8.21502,-2.29646 18.87768,-2.29426 10.02015,0.002 13.38102,0.36615 18.30755,1.98323 10.20239,3.34883 16.7188,7.38439 24.65395,15.26798 12.81154,12.72828 17.62609,25.02547 16.90274,43.17241 -0.63967,16.0474 -5.87681,27.69612 -17.61604,39.18248 -5.17963,5.06806 -8.48987,7.27386 -17.79876,11.86035 -8.26594,4.07263 -11.73133,6.28318 -12.50221,7.97508 -0.58658,1.28739 -1.0665,6.41086 -1.0665,11.3855 v 9.04478 l 15.67243,1.14885 c 85.5447,6.27076 166.87356,35.84828 224.39574,81.60779 21.52758,17.12541 44.94317,43.25682 57.70882,64.40209 10.63939,17.6233 24.36128,50.12941 24.36128,57.71001 0,3.14752 -1.34741,4.06464 -10.59058,7.20848 -14.07434,4.78705 -19.20378,5.84862 -28.40022,5.8776 -11.52877,0.0363 -17.88621,-2.31338 -24.70307,-9.13025 -5.50051,-5.50051 -7.16734,-8.47402 -11.97992,-21.37145 -3.00158,-8.04407 -10.98719,-26.16335 -11.95921,-27.13537 -0.18389,-0.18389 -1.53674,0.86806 -3.00634,2.33766 l -2.67201,2.672 -15.6922,0.61889 c -8.63071,0.34039 -33.92701,0.61889 -56.214,0.61889 -33.83524,0 -40.81916,-0.22081 -42.32385,-1.33816 -2.15774,-1.60227 -2.75081,-0.6344 9.33817,-15.23955 l 9.28352,-11.21579 42.9363,-0.0285 c 23.61497,-0.0157 42.9363,-0.35789 42.9363,-0.76043 0,-1.35084 -14.4553,-17.28872 -23.28504,-25.67324 -35.06488,-33.29682 -81.7426,-58.92331 -129.56756,-71.13376 -25.33731,-6.46901 -43.80656,-9.03316 -70.88032,-9.84058 -79.21774,-2.3625 -154.51712,24.87838 -212.56857,76.90042 -8.53415,7.64777 -26.87253,27.19888 -26.92665,28.70733 -0.0309,0.86015 33.55074,1.76947 66.2747,1.79459 l 29.79007,0.0229 9.27443,11.16704 c 10.83842,13.05021 11.24014,13.66883 9.80734,15.10265 -1.24015,1.24102 -99.6918,2.12735 -116.04957,1.04476 -9.21863,-0.6101 -9.83291,-0.78154 -12.31282,-3.43629 l -2.61013,-2.79415 -4.52176,9.62679 c -2.48697,5.29474 -6.07785,13.80438 -7.97974,18.91032 -1.90188,5.10594 -4.22278,10.78386 -5.15754,12.61761 -2.45007,4.80634 -9.74993,11.65145 -15.20724,14.2599 -5.384,2.5734 -15.64691,3.60911 -23.60655,2.38231 z m 20.77051,-6.42152 c 4.92001,-2.17141 10.58256,-7.10432 13.44685,-11.71417 0.95726,-1.54064 3.61474,-7.89763 5.90551,-14.12664 4.48208,-12.18754 11.68096,-27.30209 14.9657,-31.42155 2.44607,-3.06767 3.56556,-2.5409 5.92217,2.78662 l 1.78144,4.02722 47.67976,0.6471 c 26.22387,0.3559 52.83617,0.5107 59.13843,0.344 l 11.45867,-0.3031 -7.74526,-9.44215 -7.74525,-9.44215 -49.78528,-0.0735 c -41.40492,-0.0611 -49.9663,-0.2916 -50.86074,-1.36933 -1.46691,-1.76753 6.97129,-12.21777 22.20024,-27.49376 45.14839,-45.28782 105.13723,-74.64747 172.5778,-84.46278 11.39696,-1.65872 17.75469,-1.94398 43.16839,-1.93689 35.72502,0.01 50.25712,1.59846 78.07734,8.53458 55.78552,13.90841 108.01302,44.22365 145.57718,84.49966 12.3115,13.20031 16.76058,19.23393 15.39554,20.8787 -0.87145,1.05003 -8.85674,1.27636 -45.03299,1.27636 h -43.97372 l -7.43617,8.97882 c -4.0899,4.93837 -7.43617,9.39115 -7.43617,9.89509 0,0.59942 18.21698,0.69745 52.684,0.28349 51.89943,-0.62332 52.70819,-0.66161 54.30861,-2.5711 0.89354,-1.0661 1.62462,-2.67645 1.62462,-3.57855 0,-0.9021 0.63447,-2.16675 1.40994,-2.81033 1.15617,-0.95954 1.75887,-0.85468 3.34858,0.58259 2.58262,2.33498 10.89468,19.52582 16.04898,33.19221 4.69174,12.43992 7.7074,17.33987 13.07736,21.24856 10.94856,7.96924 19.93059,7.99919 45.78434,0.15265 l 7.7219,-2.34358 -0.62067,-2.96809 c -1.28979,-6.16781 -10.12607,-28.4475 -15.38971,-38.80337 -10.53324,-20.72351 -23.69884,-38.54622 -42.13387,-57.03804 -56.74575,-56.9206 -145.43346,-93.3212 -245.55296,-100.7837 -17.81139,-1.32759 -17.29308,-1.19357 -17.98442,-4.65022 -0.75152,-3.75764 -0.73324,-16.03511 0.0308,-20.6599 0.79909,-4.8372 5.08162,-8.87571 12.30612,-11.60493 31.18095,-11.77931 45.24697,-46.51854 30.59389,-75.55854 -4.45564,-8.83037 -14.4383,-18.30943 -24.2303,-23.00796 -36.08016,-17.31248 -76.92914,5.03009 -80.28377,43.91164 -0.66,7.64968 0.78963,9.97045 6.22787,9.97045 4.88752,0 6.52873,-2.30476 8.09111,-11.36241 2.59128,-15.02258 10.27628,-25.48155 23.23286,-31.61896 5.9276,-2.80784 6.86424,-2.97208 16.95035,-2.97208 10.33782,0 10.89665,0.10551 17.6387,3.33025 22.0642,10.55335 30.51848,32.81057 20.34741,53.56779 -5.16502,10.54081 -13.4511,17.37053 -27.41183,22.5939 -6.18427,2.31383 -11.56113,6.89183 -15.03533,12.80148 -2.39062,4.06646 -2.51532,4.9182 -2.81115,19.19936 l -0.30956,14.94414 -13.61573,0.59808 c -70.70008,3.10553 -143.3358,24.63556 -198.19379,58.74682 -24.26537,15.08845 -50.99842,37.86431 -68.30651,58.19534 -12.64118,14.84903 -24.905108,34.19042 -32.195059,50.77472 -4.006669,9.11498 -10.600597,28.21687 -10.600597,30.70875 0,1.32859 1.962566,2.32554 9.051436,4.59796 18.85155,6.04309 28.06874,6.75452 36.91696,2.84941 z"
       id="path37"
       transform="scale(0.26458333)" /><path
       style="fill:#000000;stroke:#000000;stroke-width:0.928352;stroke-opacity:1"
       d="m 315.37797,687.68636 -5.36778,-0.33586 -7.50053,-9.00422 c -10.53647,-12.64881 -12.62802,-15.88819 -10.94575,-16.95272 1.83662,-1.16219 243.19573,-1.11945 245.02376,0.0434 1.8293,1.16364 1.21627,2.13191 -10.12988,15.99965 l -8.90134,10.8796 -98.40535,-0.147 c -54.12295,-0.0809 -100.82086,-0.29813 -103.77313,-0.48285 z m 207.24454,-13.00627 7.53098,-9.05144 -19.29546,-0.56619 c -32.79299,-0.96227 -213.04322,-0.9162 -212.70219,0.0544 0.1702,0.48438 3.59686,4.87084 7.61482,9.7477 l 7.30537,8.867 h 101.00775 101.00775 z"
       id="path38"
       transform="scale(0.26458333)" /><path
       style="fill:#000000;stroke:#000000;stroke-width:0.928352;stroke-opacity:1"
       d="m 322.13827,761.73015 c -1.18826,-0.75339 -1.35547,-4.27294 -1.13991,-23.99395 l 0.25261,-23.11105 -4.32768,-0.59317 c -2.38023,-0.32625 -6.56705,-0.59318 -9.30405,-0.59318 h -4.97637 v -7.42682 -7.42682 h 27.3864 27.38639 v 7.42682 7.42682 h -4.97636 c -2.737,0 -6.91459,0.26566 -9.28353,0.59036 l -4.30715,0.59036 v 24.01098 24.01098 l -7.65891,-0.0142 c -4.2124,-0.008 -8.28554,-0.41152 -9.05144,-0.89711 z m 12.06859,-27.8676 v -24.13716 h 9.28352 9.28352 v -3.71341 -3.71341 h -22.74463 -22.74463 v 3.71341 3.71341 h 9.28352 9.28352 v 24.13716 24.13717 h 4.17759 4.17759 z"
       id="path39"
       transform="scale(0.26458333)" /><path
       style="fill:#000000;stroke:#000000;stroke-width:0.928352;stroke-opacity:1"
       d="m 354.98778,761.30485 c -0.6176,-1.60944 0.0757,-3.76345 12.34387,-38.35044 l 8.97317,-25.2976 h 8.93761 8.9376 l 9.83941,27.15431 c 5.41167,14.93487 10.35582,28.89842 10.98698,31.03011 1.88936,6.3811 1.2357,6.91402 -8.10075,6.60452 l -8.0982,-0.26845 -1.47335,-5.10594 -1.47336,-5.10594 -10.31597,-0.26167 -10.31598,-0.26168 -1.78676,5.36762 -1.78676,5.36761 -8.06335,0.26845 c -6.52567,0.21726 -8.16648,-3e-4 -8.60416,-1.1409 z m 14.96064,-8.87525 1.6865,-5.57011 h 13.73027 13.73027 l 1.56289,5.57011 1.5629,5.57012 h 4.47934 4.47934 l -3.1372,-8.58726 c -1.72545,-4.723 -6.26117,-17.15131 -10.07938,-27.61849 l -6.9422,-19.03122 h -5.74037 -5.74037 l -9.66703,26.92222 c -5.31686,14.80722 -9.6683,27.23554 -9.66984,27.61848 -0.002,0.38295 1.81095,0.69627 4.02778,0.69627 h 4.03061 z"
       id="path40"
       transform="scale(0.26458333)" /><path
       style="fill:#000000;stroke:#000000;stroke-width:0.928352;stroke-opacity:1"
       d="m 422.40033,730.14914 v -32.49233 h 8.81935 8.81935 v 24.60134 24.60134 l 11.83649,0.0127 c 16.78552,0.018 16.01408,-0.38912 16.01408,8.45077 v 7.31855 h -22.74464 -22.74463 z m 40.84751,24.60134 v -3.24923 h -13.92529 -13.92529 v -24.60134 -24.60134 h -4.17758 -4.17759 v 27.85057 27.85058 h 18.10287 18.10288 z"
       id="path41"
       transform="scale(0.26458333)" /><path
       style="fill:#000000;stroke:#000000;stroke-width:0.928352;stroke-opacity:1"
       d="m 491.98086,762.36678 c -12.09116,-3.43665 -20.52828,-13.79144 -22.0838,-27.10322 -2.40133,-20.55011 9.92111,-36.61342 29.33536,-38.24104 20.11679,-1.68652 35.55632,14.06217 34.36627,35.05442 -0.71444,12.60262 -7.69492,23.59577 -18.0286,28.39219 -5.91666,2.74623 -17.36376,3.66711 -23.58923,1.89765 z m 18.55906,-4.90124 c 5.92401,-1.75924 12.97505,-7.9456 15.86837,-13.9224 1.56781,-3.23867 1.98344,-5.90558 2.04758,-13.13842 0.0714,-8.04962 -0.19421,-9.6128 -2.35067,-13.8357 -4.36988,-8.55731 -9.77567,-12.68806 -18.78374,-14.35329 -9.10489,-1.68313 -19.18325,1.24822 -25.2911,7.35608 -5.29286,5.29285 -7.62266,11.45213 -7.63323,20.17987 -0.011,9.0624 1.71731,14.60842 6.17536,19.81665 7.09698,8.29122 18.51151,11.29925 29.96743,7.89721 z"
       id="path42"
       transform="scale(0.26458333)" /><path
       style="fill:#000000;stroke:#000000;stroke-width:0.928352;stroke-opacity:1"
       d="m 494.33968,750.69824 c -8.07407,-3.66797 -12.33951,-12.41328 -11.35422,-23.27921 0.66675,-7.35309 3.54833,-12.54547 8.85252,-15.95158 3.9363,-2.52772 4.97071,-2.77219 10.5022,-2.48209 11.90533,0.62438 17.53715,7.74382 17.53715,22.1695 0,7.56821 -0.18689,8.34435 -3.01714,12.52965 -5.38141,7.95788 -14.31668,10.74065 -22.52051,7.01373 z m 11.87669,-3.89647 c 2.43351,-0.67578 4.35975,-2.14385 6.26638,-4.77587 2.47716,-3.41963 2.75267,-4.50667 2.75138,-10.8556 -0.002,-8.31685 -1.71212,-12.49101 -6.40223,-15.6242 -4.00694,-2.67681 -10.33663,-2.81539 -14.37468,-0.31472 -10.74299,6.6529 -8.52765,28.85927 3.15301,31.60559 4.50502,1.05921 4.66755,1.05855 8.60614,-0.0352 z"
       id="path43"
       transform="scale(0.26458333)" /><path
       style="fill:#000000;stroke:#000000;stroke-width:0.928352;stroke-opacity:1"
       d="m 563.03775,750.69824 c -7.44004,-3.37994 -11.59644,-11.01328 -11.59644,-21.29718 0,-21.50996 25.77109,-28.71362 35.51729,-9.92797 2.47072,4.76228 2.59019,15.76114 0.23432,21.57238 -3.81677,9.41484 -14.91574,13.85015 -24.15517,9.65277 z m 16.66599,-6.8559 c 6.73964,-6.75284 6.47887,-20.01784 -0.53132,-27.02803 -3.5147,-3.5147 -3.7275,-3.58901 -9.15355,-3.19652 -9.23698,0.66814 -13.00744,5.59463 -13.00744,16.99553 0,11.85615 3.69636,16.24617 13.67914,16.24617 5.53481,0 6.23628,-0.23482 9.01317,-3.01715 z"
       id="path44"
       transform="scale(0.26458333)" /><path
       style="fill:#000000;stroke:#000000;stroke-width:0.928352;stroke-opacity:1"
       d="m 560.99038,762.28354 c -13.66069,-4.48063 -21.28231,-14.46848 -22.293,-29.21414 -0.90642,-13.22444 4.01145,-24.09527 13.91486,-30.75841 16.27963,-10.95315 38.68043,-4.82561 46.96603,12.84715 2.18731,4.6654 2.45185,6.31767 2.4002,14.991 -0.0472,7.93135 -0.43332,10.57644 -2.07202,14.19522 -2.83497,6.26053 -10.41602,13.96143 -16.18894,16.44487 -6.0019,2.58196 -17.17194,3.31638 -22.72713,1.49431 z m 18.21499,-4.80831 c 6.77124,-2.01085 13.98628,-9.12818 16.67863,-16.45277 3.93136,-10.69535 1.92188,-22.4875 -5.17768,-30.38391 -5.87825,-6.53803 -10.21947,-8.33998 -20.09253,-8.33998 -9.50225,0 -12.79156,1.14372 -18.54709,6.44898 -6.17614,5.69297 -8.48438,11.62938 -8.502,21.86577 -0.0126,7.29813 0.31607,9.02811 2.59759,13.67425 5.83954,11.89174 19.30724,17.26676 33.04308,13.18766 z"
       id="path45"
       transform="scale(0.26458333)" /><path
       style="fill:#000000;stroke:#000000;stroke-width:0.928352;stroke-opacity:1"
       d="m 608.99916,730.14914 v -32.49233 h 8.78794 8.78794 l 0.26349,9.81811 0.2635,9.81811 8.35517,-9.79953 8.35517,-9.79952 6.03429,-0.008 c 8.79806,-0.0122 12.99694,0.84532 12.99694,2.6543 0,0.8315 -4.49091,6.54698 -9.97979,12.70108 -13.73238,15.39667 -12.84795,14.16591 -11.14744,15.51255 1.37161,1.08618 18.1637,23.48381 21.54919,28.74274 2.90267,4.50893 1.61735,5.3452 -8.21548,5.3452 h -8.78013 l -8.58306,-11.62859 c -4.72068,-6.39572 -9.03346,-11.47914 -9.58396,-11.29647 -0.62287,0.20668 -1.09935,4.59868 -1.26156,11.62859 l -0.26066,11.29647 h -8.79078 -8.79077 z m 12.99693,18.28499 v -9.56559 l 3.08943,-2.99439 3.08943,-2.9944 2.2486,1.7724 c 1.23673,0.97482 5.78316,6.62681 10.10319,12.55998 l 7.85459,10.78759 h 4.89112 4.89112 l -11.1211,-14.95575 c -6.1166,-8.22567 -11.12109,-15.68961 -11.12109,-16.58656 0,-0.89694 4.38646,-6.47803 9.7477,-12.40244 5.36123,-5.9244 9.7477,-10.99321 9.7477,-11.26402 0,-0.27081 -2.02594,-0.49238 -4.50208,-0.49238 h -4.50208 l -9.48228,10.675 c -10.15891,11.43676 -12.78015,13.56745 -14.10974,11.46922 -0.43784,-0.69096 -0.80247,-5.95607 -0.81029,-11.70025 l -0.0142,-10.44397 h -3.71341 -3.71341 v 27.85057 27.85058 h 3.71341 3.71341 z"
       id="path46"
       transform="scale(0.26458333)" /><path
       style="fill:#ffffff;stroke:#000000;stroke-width:0.928352;stroke-opacity:1"
       d=""
       id="path47"
       transform="scale(0.26458333)" /><path
       style="fill:#000000;stroke:#000000;stroke-width:0.928352;stroke-opacity:1"
       d="m 263.46939,762.33304 c -9.12174,-2.58605 -16.899,-10.37725 -16.899,-16.92929 0,-1.71827 0.29292,-3.41705 0.65092,-3.77506 0.91819,-0.91819 10.3355,-1.60076 12.96838,-0.93995 1.20641,0.30279 2.77753,1.64184 3.49137,2.97566 2.71287,5.06906 11.46208,6.76959 16.09198,3.12771 4.61629,-3.63118 2.74215,-5.28845 -10.80575,-9.55534 -6.15016,-1.93699 -12.17255,-4.50847 -14.48942,-6.1868 -11.82359,-8.56497 -8.97408,-25.37886 5.39594,-31.83945 6.28112,-2.82393 19.24206,-2.75105 25.59455,0.1439 7.90408,3.60205 11.72645,8.23207 12.96875,15.709 l 0.65556,3.9455 h -8.32659 -8.32659 l -2.47831,-3.24924 c -2.28223,-2.99216 -2.86716,-3.24923 -7.39312,-3.24923 -3.81039,0 -5.3104,0.43712 -6.67524,1.94526 -1.73086,1.91257 -1.7285,1.97106 0.1406,3.48132 1.04558,0.84483 6.8815,2.96925 12.96872,4.72094 10.12108,2.91248 11.43319,3.55039 15.34139,7.45859 7.45935,7.45934 7.37791,19.73211 -0.17701,26.67737 -5.99322,5.50958 -21.15267,8.24501 -30.69713,5.53911 z m 22.94832,-6.2002 c 5.4679,-2.64696 8.11654,-6.4982 8.55375,-12.43752 0.26246,-3.56534 -0.11009,-5.45581 -1.51611,-7.69353 -2.68707,-4.27654 -5.44397,-5.76556 -17.07311,-9.22129 -11.65428,-3.46321 -14.91372,-5.40245 -15.35562,-9.13601 -0.81149,-6.85619 2.73065,-9.7758 11.8602,-9.7758 5.11153,0 5.93518,0.29057 9.21006,3.24923 2.88679,2.60804 4.35289,3.24923 7.42949,3.24923 4.59369,0 4.93071,-1.33802 1.39532,-5.53959 -4.19153,-4.98135 -8.45327,-6.52899 -17.97893,-6.52899 -9.27911,0 -12.99767,1.11252 -16.90449,5.05746 -5.56352,5.61782 -5.62488,13.63214 -0.14395,18.80132 2.48762,2.34613 5.96439,3.90486 15.21528,6.82142 9.08726,2.86497 12.44616,4.35921 13.87108,6.1707 3.65005,4.64029 2.02874,9.67445 -3.9969,12.41031 -7.21005,3.27363 -15.74079,1.83614 -19.87857,-3.34969 -2.10031,-2.6323 -3.18316,-3.20726 -6.04039,-3.20728 -4.2241,-3e-5 -4.55758,1.66291 -1.21285,6.04808 2.27964,2.98876 6.94461,5.7107 12.12099,7.07242 4.84589,1.27478 15.92855,0.19579 20.44475,-1.99047 z"
       id="path48"
       transform="scale(0.26458333)" /><path
       style="fill:#000000;stroke:#000000;stroke-width:0.928352;stroke-opacity:1"
       d="m 183.81377,730.14914 v -32.49233 h 7.77921 7.77921 l 10.40714,16.24297 c 5.72392,8.93363 10.78732,16.47794 11.25201,16.76513 0.49569,0.30635 0.84488,-6.40684 0.84488,-16.24297 v -16.76513 h 8.81935 8.81934 v 32.49233 32.49234 h -8.70247 -8.70247 l -9.98145,-15.78199 c -5.4898,-8.6801 -10.34662,-15.78199 -10.79293,-15.78199 -0.44631,0 -0.81148,7.10189 -0.81148,15.78199 v 15.78199 h -8.35517 -8.35517 z m 12.52188,8.81083 c 0.37395,-10.47185 1.0196,-19.24967 1.43478,-19.50627 1.15144,-0.71163 6.07113,5.90181 17.10663,22.99611 l 10.03849,15.54991 h 4.9788 4.9788 v -27.85058 -27.85057 h -3.58722 c -3.56378,0 -3.59109,0.0281 -4.17759,4.30716 -0.3247,2.36894 -0.59036,10.88183 -0.59036,18.91755 0,11.36098 -0.28783,14.84927 -1.29417,15.68447 -1.00414,0.83336 -1.66777,0.70279 -2.96121,-0.5826 -1.4938,-1.48451 -13.08044,-18.81919 -22.0498,-32.98855 l -3.37903,-5.33803 h -4.6533 -4.65329 v 27.85057 27.85058 h 4.06428 4.06428 z"
       id="path49"
       transform="scale(0.26458333)" /><path
       style="fill:#ffffff;stroke:#000000;stroke-width:0.928352;stroke-opacity:1"
       d="m 174.94875,730.14914 c 0,-18.12608 0.12436,-25.54129 0.27635,-16.47825 0.15199,9.06304 0.15199,23.89347 0,32.95651 -0.15199,9.06304 -0.27635,1.64782 -0.27635,-16.47826 z"
       id="path50"
       transform="scale(0.26458333)" /><path
       style="fill:#000000;stroke:#000000;stroke-width:0.928352;stroke-opacity:1"
       d="m 158.74826,761.73296 c -1.14414,-0.72311 -1.45187,-4.23604 -1.72517,-19.6944 -0.18295,-10.34786 -0.0388,-24.29951 0.32022,-31.00366 l 0.65286,-12.18937 7.94151,-0.61043 c 4.36784,-0.33574 8.10903,-0.44293 8.31376,-0.23819 0.83396,0.83395 1.42246,40.00117 0.77951,51.87972 l -0.69091,12.76485 -7.09963,-0.0142 c -3.90479,-0.008 -7.72626,-0.41026 -8.49215,-0.8943 z m 11.14022,-31.58382 v -27.85057 h -3.7134 -3.71341 v 27.85057 27.85058 h 3.71341 3.7134 z"
       id="path51"
       transform="scale(0.26458333)" /><path
       style="fill:#ffffff;stroke:#000000;stroke-width:0.928352;stroke-opacity:1"
       d=""
       id="path60"
       transform="scale(0.26458333)" /></g></svg>
