<?xml version="1.0" encoding="UTF-8" standalone="no"?>
<!-- Created with Inkscape (http://www.inkscape.org/) -->

<svg
   width="210mm"
   height="297mm"
   viewBox="0 0 210 297"
   version="1.1"
   id="svg1"
   xml:space="preserve"
   inkscape:version="1.4.2 (f4327f4, 2025-05-13)"
   sodipodi:docname="Logov3.svg"
   xmlns:inkscape="http://www.inkscape.org/namespaces/inkscape"
   xmlns:sodipodi="http://sodipodi.sourceforge.net/DTD/sodipodi-0.dtd"
   xmlns="http://www.w3.org/2000/svg"
   xmlns:svg="http://www.w3.org/2000/svg"><sodipodi:namedview
     id="namedview1"
     pagecolor="#505050"
     bordercolor="#eeeeee"
     borderopacity="1"
     inkscape:showpageshadow="0"
     inkscape:pageopacity="0"
     inkscape:pagecheckerboard="0"
     inkscape:deskcolor="#505050"
     inkscape:document-units="mm"
     inkscape:zoom="1.0771772"
     inkscape:cx="470.21047"
     inkscape:cy="530.55338"
     inkscape:window-width="1920"
     inkscape:window-height="1057"
     inkscape:window-x="-8"
     inkscape:window-y="-8"
     inkscape:window-maximized="1"
     inkscape:current-layer="layer1" /><defs
     id="defs1" /><g
     inkscape:label="Capa 1"
     inkscape:groupmode="layer"
     id="layer1"><g
       id="g14"
       transform="translate(-4.666907,-33.650841)"
       style="fill:#008080"><ellipse
         style="fill:#008080;stroke:#000000;stroke-width:0.264583;stroke-opacity:1"
         id="path25"
         cx="108.68974"
         cy="181.76366"
         rx="98.127808"
         ry="95.05748" /></g><g
       id="g15"
       transform="translate(-4.6669047,86.706177)"><path
         style="fill:#000000;stroke:#000000;stroke-width:0.245626;stroke-opacity:1"
         d="m 28.527705,90.763442 c -2.16232,-0.33327 -7.627952,-2.2072 -7.895437,-2.707 -0.683476,-1.27708 2.777897,-10.21382 6.084274,-15.70865 4.016862,-6.67559 11.971583,-15.00777 19.374768,-20.29411 14.730203,-10.5183 34.68204,-17.20858 55.41387,-18.58145 l 4.35987,-0.28871 0.004,-1.2401 c 0.008,-2.41016 0.45789,-5.50291 0.97396,-6.70254 0.81946,-1.90488 2.48357,-3.35664 5.17963,-4.51867 2.79152,-1.20316 4.39952,-2.33946 5.42988,-3.83704 1.23329,-1.79253 1.74376,-3.38507 1.7558,-5.47773 0.009,-1.5790703 -0.10406,-2.1016003 -0.75747,-3.4979003 -0.99505,-2.12638 -2.7654,-3.89744 -4.91261,-4.91458 -1.53489,-0.72709 -1.84391,-0.78432 -4.23479,-0.78432 -2.40848,0 -2.68641,0.0525 -4.20185,0.79403 -2.93179,1.43454 -4.86135,4.28352 -5.34769,7.8958203 -0.19422,1.44257 -0.38075,1.95505 -0.91434,2.51199 -1.40973,1.47145 -3.36628,1.44566 -4.63411,-0.0611 -0.78948,-0.93824 -0.83486,-2.7387 -0.13773,-5.4644603 0.71238,-2.7854 2.03524,-5.11074 4.06035,-7.13735701 1.97547,-1.97694299 3.74092,-3.09879699 6.24931,-3.97112899 1.51811,-0.527947 2.17356,-0.607605 4.99472,-0.607023 2.65117,5.3e-4 3.5404,0.09688 4.84388,0.52473 2.69938,0.886045 4.42351,1.953786 6.52302,4.03965299 3.38972,3.36768601 4.66357,6.62132601 4.47218,11.42269631 -0.16924,4.24588 -1.5549,7.32794 -4.66091,10.36704 -1.37044,1.34092 -2.24628,1.92454 -4.70925,3.13805 -2.18703,1.07755 -3.10392,1.66242 -3.30788,2.11007 -0.1552,0.34062 -0.28218,1.69621 -0.28218,3.01241 v 2.3931 l 4.14667,0.30397 c 22.6337,1.65914 44.15196,9.48485 59.37137,21.59206 5.69584,4.5311 11.89121,11.44503 15.26879,17.03972 2.81501,4.66283 6.44559,13.2634 6.44559,15.2691 0,0.83279 -0.3565,1.07544 -2.80209,1.90725 -3.72384,1.26657 -5.081,1.54745 -7.51423,1.55511 -3.05032,0.01 -4.73239,-0.61208 -6.53602,-2.41571 -1.45534,-1.45534 -1.89636,-2.24208 -3.16968,-5.65453 -0.79417,-2.12833 -2.90703,-6.92238 -3.16421,-7.17957 -0.0487,-0.0487 -0.4066,0.22968 -0.79543,0.61851 l -0.70697,0.70697 -4.15189,0.16375 c -2.28355,0.0901 -8.97653,0.16374 -14.87329,0.16374 -8.95224,0 -10.80007,-0.0584 -11.19819,-0.35405 -0.5709,-0.42394 -0.72781,-0.16785 2.47073,-4.03213 l 2.45626,-2.96751 11.36023,-0.008 c 6.24813,-0.004 11.36023,-0.0947 11.36023,-0.2012 0,-0.35741 -3.82463,-4.57431 -6.16083,-6.79271 -9.27759,-8.80979 -21.62773,-15.59013 -34.28142,-18.82081 -6.70383,-1.71159 -11.59048,-2.39002 -18.75375,-2.60365 -20.959693,-0.62508 -40.882654,6.5824 -56.2421,20.34657 -2.257994,2.02347 -7.110024,7.19637 -7.124343,7.59548 -0.0082,0.22758 8.876967,0.46817 17.535181,0.47482 l 7.881956,0.006 2.453859,2.95462 c 2.867666,3.45287 2.973954,3.61654 2.594859,3.99591 -0.328123,0.32835 -26.376788,0.56286 -30.704782,0.27642 -2.439095,-0.16142 -2.601624,-0.20678 -3.257766,-0.90918 l -0.690597,-0.73929 -1.196383,2.54709 c -0.65801,1.4009 -1.608097,3.65241 -2.111306,5.00336 -0.503206,1.35094 -1.117277,2.85323 -1.364599,3.33841 -0.648248,1.27167 -2.579669,3.08277 -4.023582,3.77293 -1.424517,0.68088 -4.139912,0.95491 -6.2459,0.63032 z m 5.49553,-1.69903 c 1.301753,-0.57452 2.799969,-1.87968 3.557813,-3.09937 0.253275,-0.40763 0.9564,-2.08958 1.562499,-3.73768 1.185884,-3.22462 3.090587,-7.22367 3.959675,-8.31362 0.647189,-0.81165 0.943388,-0.67227 1.566907,0.7373 l 0.47134,1.06553 12.615269,0.17122 c 6.938399,0.0942 13.97957,0.13512 15.647043,0.091 l 3.031773,-0.0802 -2.049266,-2.49824 -2.049265,-2.49823 -13.172355,-0.0195 c -10.955051,-0.0162 -13.22025,-0.0772 -13.456904,-0.3623 -0.38812,-0.46766 1.844487,-3.23262 5.873814,-7.27439 11.945511,-11.98241 27.817558,-19.75048 45.661212,-22.34745 3.01544,-0.43887 4.69759,-0.51434 11.42163,-0.51247 9.45225,0.003 13.2972,0.42293 20.65797,2.25811 14.75991,3.67993 28.57844,11.70084 38.51729,22.3572 3.25742,3.49258 4.43457,5.08898 4.0734,5.52416 -0.23057,0.27782 -2.34334,0.3377 -11.91497,0.3377 h -11.63472 l -1.96748,2.37565 c -1.08212,1.30661 -1.96749,2.48474 -1.96749,2.61807 0,0.1586 4.81991,0.18454 13.93931,0.075 13.73172,-0.16492 13.94571,-0.17505 14.36915,-0.68027 0.23642,-0.28207 0.42985,-0.70814 0.42985,-0.94682 0,-0.23868 0.16787,-0.57329 0.37304,-0.74357 0.30591,-0.25388 0.46537,-0.22613 0.88598,0.15414 0.68332,0.6178 2.88255,5.16621 4.2463,8.78211 1.24135,3.29139 2.03924,4.58784 3.46005,5.62201 2.8968,2.10853 5.2733,2.11646 12.11377,0.0404 l 2.04309,-0.62007 -0.16422,-0.78531 c -0.34126,-1.6319 -2.67919,-7.52673 -4.07186,-10.26672 -2.78692,-5.4831 -6.27032,-10.19869 -11.14792,-15.09132 -15.01398,-15.06024 -38.47927,-24.69123 -64.96922,-26.66568 -4.7126,-0.35126 -4.57546,-0.3158 -4.75838,-1.23037 -0.19884,-0.99421 -0.194,-4.24263 0.008,-5.46627 0.21142,-1.27984 1.34451,-2.34836 3.25599,-3.07047 8.24996,-3.11661 11.9716,-12.30803 8.09464,-19.9915303 -1.17889,-2.33637 -3.82014,-4.84437001 -6.41094,-6.087523 -9.54621,-4.580594 -20.35417,1.33087799 -21.24175,11.6182833 -0.17462,2.02398 0.20893,2.63802 1.6478,2.63802 1.29315,0 1.72739,-0.6098 2.14077,-3.0063 0.68561,-3.9747303 2.71893,-6.7420003 6.14703,-8.3658503 1.56834,-0.742912 1.81616,-0.78636701 4.48478,-0.78636701 2.73521,0 2.88307,0.02792 4.6669,0.88112701 5.83782,2.79224 8.07468,8.6811303 5.38359,14.1731503 -1.36658,2.78892 -3.55894,4.59595 -7.25272,5.97797 -1.63625,0.6122 -3.05888,1.82346 -3.97809,3.38705 -0.63252,1.07592 -0.66552,1.30128 -0.74379,5.07983 l -0.0819,3.95397 -3.6025,0.15825 c -18.706059,0.82167 -37.92426,6.51815 -52.43877,15.54343 -6.420212,3.99215 -13.493331,10.01826 -18.072763,15.39751 -3.344646,3.92881 -6.589477,9.04622 -8.518276,13.43415 -1.060098,2.41167 -2.804742,7.46571 -2.804742,8.12502 0,0.35152 0.519263,0.6153 2.394859,1.21654 4.987806,1.5989 7.426521,1.78714 9.767613,0.75391 z"
         id="path37" /><path
         style="fill:#000000;stroke:#000000;stroke-width:0.245626;stroke-opacity:1"
         d="m 83.443754,76.822178 -1.420226,-0.08886 -1.984515,-2.382366 c -2.787774,-3.346665 -3.341163,-4.203751 -2.896063,-4.485407 0.485939,-0.307497 64.34554,-0.296188 64.8292,0.01148 0.484,0.307879 0.32181,0.564067 -2.68019,4.23324 l -2.35515,2.878561 -26.03642,-0.03889 C 96.580363,76.928527 84.224875,76.871052 83.443754,76.822178 Z m 54.833446,-3.441242 1.99258,-2.39486 -5.10526,-0.149805 c -8.67648,-0.2546 -56.367686,-0.242411 -56.277455,0.01439 0.04503,0.128159 0.951669,1.288743 2.014754,2.579079 l 1.93288,2.34606 h 26.724971 26.72496 z"
         id="path38" /></g><path
       style="fill:#ffffff;stroke:#000000;stroke-width:0.928352;stroke-opacity:1"
       d=""
       id="path47"
       transform="scale(0.26458333)" /><path
       style="fill:#ffffff;stroke:#000000;stroke-width:0.928352;stroke-opacity:1"
       d=""
       id="path60"
       transform="scale(0.26458333)" /><path
       style="fill:#ffcc00;stroke:#000000;stroke-width:0.928352"
       d="m 289.25111,605.05365 -6.61543,-8.12308 8.14689,-0.7547 c 9.37254,-0.86824 218.05637,-0.38125 218.94857,0.51094 0.32474,0.32475 -2.42203,4.16784 -6.10396,8.54019 l -6.69441,7.94974 H 396.39965 295.86655 Z"
       id="path16"
       transform="scale(0.26458333)" /><path
       style="fill:#000000;stroke:#000000;stroke-width:0.928352"
       d="m 93.763589,665.47637 c -4.959289,-0.77753 -17.155633,-4.0443 -22.337141,-5.98296 -3.567686,-1.33484 -5.049254,-2.38412 -5.049254,-3.57597 0,-3.53909 7.749751,-24.21503 13.410322,-35.77806 17.903219,-36.57147 48.809594,-70.0019 90.100964,-97.45934 55.36977,-36.81912 129.48839,-59.70606 204.80897,-63.24256 l 13.56838,-0.63707 0.58899,-6.9678 c 0.32395,-3.83228 0.59291,-10.56014 0.5977,-14.9508 0.008,-7.12713 0.30134,-8.4932 2.738,-12.74158 3.47661,-6.06154 7.42635,-9.08126 19.5388,-14.93811 14.63024,-7.0743 22.055,-15.40655 25.49409,-28.61011 4.11723,-15.80711 -1.91361,-31.90351 -15.61703,-41.68207 -9.81184,-7.00158 -12.95668,-7.95232 -26.3046,-7.95232 -11.002,0 -11.94028,0.14961 -17.46015,2.784 -12.38524,5.91093 -20.07686,16.30833 -23.32795,31.53432 -1.83273,8.58329 -3.59052,11.17094 -7.5884,11.17094 -3.78854,0 -4.82743,-1.59627 -4.82743,-7.41744 0,-17.17886 12.16902,-36.21976 28.21244,-44.14404 9.06719,-4.47854 15.35805,-5.97242 25.20486,-5.98534 15.81895,-0.0208 28.93667,5.32693 39.86409,16.25139 10.21952,10.21674 14.81974,21.48639 14.77243,36.1895 -0.0663,20.5963 -12.39045,38.70772 -33.09798,48.64024 -14.54651,6.97735 -15.54129,8.54716 -15.54129,24.52489 0,9.22134 0.28569,11.78886 1.41615,12.72707 0.85999,0.71373 8.78977,1.84239 20.19167,2.87392 102.62712,9.28471 186.43217,44.23508 242.69563,101.21472 24.81007,25.12589 37.83354,44.83671 50.29361,76.11869 5.77942,14.50968 7.1741,19.17891 6.06109,20.29192 -0.47494,0.47494 -6.28925,2.37956 -12.92072,4.2325 -16.06626,4.48917 -25.5275,4.80128 -32.68201,1.07814 -9.15811,-4.7658 -12.09579,-8.79259 -18.86494,-25.85893 -6.14943,-15.50392 -13.62901,-30.2917 -16.16025,-31.95023 -2.83074,-1.85477 -3.91512,-1.23369 -5.71947,3.27583 -1.07031,2.67497 -2.07028,3.66178 -4.12756,4.07323 -1.49327,0.29865 -25.17447,0.83093 -52.6249,1.18283 -49.05162,0.62881 -49.88628,0.60928 -48.53934,-1.13505 0.75379,-0.97618 4.00593,-4.98668 7.22699,-8.91222 l 5.85646,-7.13736 44.01897,-0.28946 c 31.15671,-0.20488 44.3255,-0.59626 45.06805,-1.33945 1.7791,-1.78061 -1.89009,-7.43176 -12.26954,-18.89706 -45.05596,-49.7696 -110.64406,-84.0528 -180.57978,-94.38992 -14.17362,-2.09498 -76.80537,-2.43514 -89.39949,-0.48552 -36.17833,5.60051 -68.05252,15.51115 -97.65878,30.36501 -33.50787,16.81136 -58.65108,35.7647 -85.54626,64.48608 -10.38598,11.09121 -14.47949,17.14755 -12.75596,18.8724 0.80672,0.80734 14.35306,1.22218 51.04375,1.56317 l 49.94559,0.46418 6.63833,8.05592 c 3.65108,4.43074 6.63832,8.29501 6.63832,8.58726 0,0.70878 -34.07782,0.67211 -78.82624,-0.0848 l -36.42612,-0.61617 -1.43583,-3.5885 c -1.91417,-4.78396 -4.27989,-6.03711 -6.74441,-3.5726 -2.63694,2.63694 -10.54767,18.72962 -15.86905,32.28215 -2.4884,6.33748 -5.40932,12.95459 -6.49095,14.7047 -2.40958,3.89878 -8.69721,9.16003 -13.19083,11.03759 -3.69832,1.54525 -11.704512,2.41547 -16.010991,1.74028 z"
       id="path17"
       transform="scale(0.26458333)" /></g></svg>
