<?xml version="1.0" encoding="UTF-8" standalone="no"?>
<!-- Created with Inkscape (http://www.inkscape.org/) -->

<svg
   width="210mm"
   height="297mm"
   viewBox="0 0 210 297"
   version="1.1"
   id="svg1"
   xml:space="preserve"
   inkscape:version="1.4.2 (f4327f4, 2025-05-13)"
   sodipodi:docname="Logov8.svg"
   xmlns:inkscape="http://www.inkscape.org/namespaces/inkscape"
   xmlns:sodipodi="http://sodipodi.sourceforge.net/DTD/sodipodi-0.dtd"
   xmlns="http://www.w3.org/2000/svg"
   xmlns:svg="http://www.w3.org/2000/svg"><sodipodi:namedview
     id="namedview1"
     pagecolor="#505050"
     bordercolor="#eeeeee"
     borderopacity="1"
     inkscape:showpageshadow="0"
     inkscape:pageopacity="0"
     inkscape:pagecheckerboard="0"
     inkscape:deskcolor="#505050"
     inkscape:document-units="mm"
     inkscape:zoom="1.5233586"
     inkscape:cx="407.65188"
     inkscape:cy="729.63779"
     inkscape:window-width="958"
     inkscape:window-height="1041"
     inkscape:window-x="-7"
     inkscape:window-y="0"
     inkscape:window-maximized="0"
     inkscape:current-layer="layer1" /><defs
     id="defs1" /><g
     inkscape:label="Capa 1"
     inkscape:groupmode="layer"
     id="layer1"><path
       style="fill:#ffffff;stroke:#000000;stroke-width:0.928352;stroke-opacity:1"
       d="m 322.13827,761.73015 c -1.18826,-0.75339 -1.35547,-4.27294 -1.13991,-23.99395 l 0.25261,-23.11105 -4.32768,-0.59317 c -2.38023,-0.32625 -6.56705,-0.59318 -9.30405,-0.59318 h -4.97637 v -7.42682 -7.42682 h 27.3864 27.38639 v 7.42682 7.42682 h -4.97636 c -2.737,0 -6.91459,0.26566 -9.28353,0.59036 l -4.30715,0.59036 v 24.01098 24.01098 l -7.65891,-0.0142 c -4.2124,-0.008 -8.28554,-0.41152 -9.05144,-0.89711 z m 12.06859,-27.8676 v -24.13716 h 9.28352 9.28352 v -3.71341 -3.71341 h -22.74463 -22.74463 v 3.71341 3.71341 h 9.28352 9.28352 v 24.13716 24.13717 h 4.17759 4.17759 z"
       id="path39"
       transform="scale(0.26458333)" /><path
       style="fill:#ffffff;stroke:#000000;stroke-width:0.928352;stroke-opacity:1"
       d="m 354.98778,761.30485 c -0.6176,-1.60944 0.0757,-3.76345 12.34387,-38.35044 l 8.97317,-25.2976 h 8.93761 8.9376 l 9.83941,27.15431 c 5.41167,14.93487 10.35582,28.89842 10.98698,31.03011 1.88936,6.3811 1.2357,6.91402 -8.10075,6.60452 l -8.0982,-0.26845 -1.47335,-5.10594 -1.47336,-5.10594 -10.31597,-0.26167 -10.31598,-0.26168 -1.78676,5.36762 -1.78676,5.36761 -8.06335,0.26845 c -6.52567,0.21726 -8.16648,-3e-4 -8.60416,-1.1409 z m 14.96064,-8.87525 1.6865,-5.57011 h 13.73027 13.73027 l 1.56289,5.57011 1.5629,5.57012 h 4.47934 4.47934 l -3.1372,-8.58726 c -1.72545,-4.723 -6.26117,-17.15131 -10.07938,-27.61849 l -6.9422,-19.03122 h -5.74037 -5.74037 l -9.66703,26.92222 c -5.31686,14.80722 -9.6683,27.23554 -9.66984,27.61848 -0.002,0.38295 1.81095,0.69627 4.02778,0.69627 h 4.03061 z"
       id="path40"
       transform="scale(0.26458333)" /><path
       style="fill:#ffffff;stroke:#000000;stroke-width:0.928352;stroke-opacity:1"
       d="m 422.40033,730.14914 v -32.49233 h 8.81935 8.81935 v 24.60134 24.60134 l 11.83649,0.0127 c 16.78552,0.018 16.01408,-0.38912 16.01408,8.45077 v 7.31855 h -22.74464 -22.74463 z m 40.84751,24.60134 v -3.24923 h -13.92529 -13.92529 v -24.60134 -24.60134 h -4.17758 -4.17759 v 27.85057 27.85058 h 18.10287 18.10288 z"
       id="path41"
       transform="scale(0.26458333)" /><path
       style="fill:#ffffff;stroke:#000000;stroke-width:0.928352;stroke-opacity:1"
       d="m 491.98086,762.36678 c -12.09116,-3.43665 -20.52828,-13.79144 -22.0838,-27.10322 -2.40133,-20.55011 9.92111,-36.61342 29.33536,-38.24104 20.11679,-1.68652 35.55632,14.06217 34.36627,35.05442 -0.71444,12.60262 -7.69492,23.59577 -18.0286,28.39219 -5.91666,2.74623 -17.36376,3.66711 -23.58923,1.89765 z m 18.55906,-4.90124 c 5.92401,-1.75924 12.97505,-7.9456 15.86837,-13.9224 1.56781,-3.23867 1.98344,-5.90558 2.04758,-13.13842 0.0714,-8.04962 -0.19421,-9.6128 -2.35067,-13.8357 -4.36988,-8.55731 -9.77567,-12.68806 -18.78374,-14.35329 -9.10489,-1.68313 -19.18325,1.24822 -25.2911,7.35608 -5.29286,5.29285 -7.62266,11.45213 -7.63323,20.17987 -0.011,9.0624 1.71731,14.60842 6.17536,19.81665 7.09698,8.29122 18.51151,11.29925 29.96743,7.89721 z"
       id="path42"
       transform="scale(0.26458333)" /><path
       style="fill:#ffffff;stroke:#000000;stroke-width:0.928352;stroke-opacity:1"
       d="m 494.33968,750.69824 c -8.07407,-3.66797 -12.33951,-12.41328 -11.35422,-23.27921 0.66675,-7.35309 3.54833,-12.54547 8.85252,-15.95158 3.9363,-2.52772 4.97071,-2.77219 10.5022,-2.48209 11.90533,0.62438 17.53715,7.74382 17.53715,22.1695 0,7.56821 -0.18689,8.34435 -3.01714,12.52965 -5.38141,7.95788 -14.31668,10.74065 -22.52051,7.01373 z m 11.87669,-3.89647 c 2.43351,-0.67578 4.35975,-2.14385 6.26638,-4.77587 2.47716,-3.41963 2.75267,-4.50667 2.75138,-10.8556 -0.002,-8.31685 -1.71212,-12.49101 -6.40223,-15.6242 -4.00694,-2.67681 -10.33663,-2.81539 -14.37468,-0.31472 -10.74299,6.6529 -8.52765,28.85927 3.15301,31.60559 4.50502,1.05921 4.66755,1.05855 8.60614,-0.0352 z"
       id="path43"
       transform="scale(0.26458333)" /><path
       style="fill:#ffffff;stroke:#000000;stroke-width:0.928352;stroke-opacity:1"
       d="m 563.03775,750.69824 c -7.44004,-3.37994 -11.59644,-11.01328 -11.59644,-21.29718 0,-21.50996 25.77109,-28.71362 35.51729,-9.92797 2.47072,4.76228 2.59019,15.76114 0.23432,21.57238 -3.81677,9.41484 -14.91574,13.85015 -24.15517,9.65277 z m 16.66599,-6.8559 c 6.73964,-6.75284 6.47887,-20.01784 -0.53132,-27.02803 -3.5147,-3.5147 -3.7275,-3.58901 -9.15355,-3.19652 -9.23698,0.66814 -13.00744,5.59463 -13.00744,16.99553 0,11.85615 3.69636,16.24617 13.67914,16.24617 5.53481,0 6.23628,-0.23482 9.01317,-3.01715 z"
       id="path44"
       transform="scale(0.26458333)" /><path
       style="fill:#ffffff;stroke:#000000;stroke-width:0.928352;stroke-opacity:1"
       d="m 560.99038,762.28354 c -13.66069,-4.48063 -21.28231,-14.46848 -22.293,-29.21414 -0.90642,-13.22444 4.01145,-24.09527 13.91486,-30.75841 16.27963,-10.95315 38.68043,-4.82561 46.96603,12.84715 2.18731,4.6654 2.45185,6.31767 2.4002,14.991 -0.0472,7.93135 -0.43332,10.57644 -2.07202,14.19522 -2.83497,6.26053 -10.41602,13.96143 -16.18894,16.44487 -6.0019,2.58196 -17.17194,3.31638 -22.72713,1.49431 z m 18.21499,-4.80831 c 6.77124,-2.01085 13.98628,-9.12818 16.67863,-16.45277 3.93136,-10.69535 1.92188,-22.4875 -5.17768,-30.38391 -5.87825,-6.53803 -10.21947,-8.33998 -20.09253,-8.33998 -9.50225,0 -12.79156,1.14372 -18.54709,6.44898 -6.17614,5.69297 -8.48438,11.62938 -8.502,21.86577 -0.0126,7.29813 0.31607,9.02811 2.59759,13.67425 5.83954,11.89174 19.30724,17.26676 33.04308,13.18766 z"
       id="path45"
       transform="scale(0.26458333)" /><path
       style="fill:#ffffff;stroke:#000000;stroke-width:0.928352;stroke-opacity:1"
       d="m 608.99916,730.14914 v -32.49233 h 8.78794 8.78794 l 0.26349,9.81811 0.2635,9.81811 8.35517,-9.79953 8.35517,-9.79952 6.03429,-0.008 c 8.79806,-0.0122 12.99694,0.84532 12.99694,2.6543 0,0.8315 -4.49091,6.54698 -9.97979,12.70108 -13.73238,15.39667 -12.84795,14.16591 -11.14744,15.51255 1.37161,1.08618 18.1637,23.48381 21.54919,28.74274 2.90267,4.50893 1.61735,5.3452 -8.21548,5.3452 h -8.78013 l -8.58306,-11.62859 c -4.72068,-6.39572 -9.03346,-11.47914 -9.58396,-11.29647 -0.62287,0.20668 -1.09935,4.59868 -1.26156,11.62859 l -0.26066,11.29647 h -8.79078 -8.79077 z m 12.99693,18.28499 v -9.56559 l 3.08943,-2.99439 3.08943,-2.9944 2.2486,1.7724 c 1.23673,0.97482 5.78316,6.62681 10.10319,12.55998 l 7.85459,10.78759 h 4.89112 4.89112 l -11.1211,-14.95575 c -6.1166,-8.22567 -11.12109,-15.68961 -11.12109,-16.58656 0,-0.89694 4.38646,-6.47803 9.7477,-12.40244 5.36123,-5.9244 9.7477,-10.99321 9.7477,-11.26402 0,-0.27081 -2.02594,-0.49238 -4.50208,-0.49238 h -4.50208 l -9.48228,10.675 c -10.15891,11.43676 -12.78015,13.56745 -14.10974,11.46922 -0.43784,-0.69096 -0.80247,-5.95607 -0.81029,-11.70025 l -0.0142,-10.44397 h -3.71341 -3.71341 v 27.85057 27.85058 h 3.71341 3.71341 z"
       id="path46"
       transform="scale(0.26458333)" /><path
       style="fill:#ffffff;stroke:#000000;stroke-width:0.928352;stroke-opacity:1"
       d=""
       id="path47"
       transform="scale(0.26458333)" /><path
       style="fill:#ffffff;stroke:#000000;stroke-width:0.928352;stroke-opacity:1"
       d="m 263.46939,762.33304 c -9.12174,-2.58605 -16.899,-10.37725 -16.899,-16.92929 0,-1.71827 0.29292,-3.41705 0.65092,-3.77506 0.91819,-0.91819 10.3355,-1.60076 12.96838,-0.93995 1.20641,0.30279 2.77753,1.64184 3.49137,2.97566 2.71287,5.06906 11.46208,6.76959 16.09198,3.12771 4.61629,-3.63118 2.74215,-5.28845 -10.80575,-9.55534 -6.15016,-1.93699 -12.17255,-4.50847 -14.48942,-6.1868 -11.82359,-8.56497 -8.97408,-25.37886 5.39594,-31.83945 6.28112,-2.82393 19.24206,-2.75105 25.59455,0.1439 7.90408,3.60205 11.72645,8.23207 12.96875,15.709 l 0.65556,3.9455 h -8.32659 -8.32659 l -2.47831,-3.24924 c -2.28223,-2.99216 -2.86716,-3.24923 -7.39312,-3.24923 -3.81039,0 -5.3104,0.43712 -6.67524,1.94526 -1.73086,1.91257 -1.7285,1.97106 0.1406,3.48132 1.04558,0.84483 6.8815,2.96925 12.96872,4.72094 10.12108,2.91248 11.43319,3.55039 15.34139,7.45859 7.45935,7.45934 7.37791,19.73211 -0.17701,26.67737 -5.99322,5.50958 -21.15267,8.24501 -30.69713,5.53911 z m 22.94832,-6.2002 c 5.4679,-2.64696 8.11654,-6.4982 8.55375,-12.43752 0.26246,-3.56534 -0.11009,-5.45581 -1.51611,-7.69353 -2.68707,-4.27654 -5.44397,-5.76556 -17.07311,-9.22129 -11.65428,-3.46321 -14.91372,-5.40245 -15.35562,-9.13601 -0.81149,-6.85619 2.73065,-9.7758 11.8602,-9.7758 5.11153,0 5.93518,0.29057 9.21006,3.24923 2.88679,2.60804 4.35289,3.24923 7.42949,3.24923 4.59369,0 4.93071,-1.33802 1.39532,-5.53959 -4.19153,-4.98135 -8.45327,-6.52899 -17.97893,-6.52899 -9.27911,0 -12.99767,1.11252 -16.90449,5.05746 -5.56352,5.61782 -5.62488,13.63214 -0.14395,18.80132 2.48762,2.34613 5.96439,3.90486 15.21528,6.82142 9.08726,2.86497 12.44616,4.35921 13.87108,6.1707 3.65005,4.64029 2.02874,9.67445 -3.9969,12.41031 -7.21005,3.27363 -15.74079,1.83614 -19.87857,-3.34969 -2.10031,-2.6323 -3.18316,-3.20726 -6.04039,-3.20728 -4.2241,-3e-5 -4.55758,1.66291 -1.21285,6.04808 2.27964,2.98876 6.94461,5.7107 12.12099,7.07242 4.84589,1.27478 15.92855,0.19579 20.44475,-1.99047 z"
       id="path48"
       transform="scale(0.26458333)" /><path
       style="fill:#ffffff;stroke:#000000;stroke-width:0.928352;stroke-opacity:1"
       d="m 183.81377,730.14914 v -32.49233 h 7.77921 7.77921 l 10.40714,16.24297 c 5.72392,8.93363 10.78732,16.47794 11.25201,16.76513 0.49569,0.30635 0.84488,-6.40684 0.84488,-16.24297 v -16.76513 h 8.81935 8.81934 v 32.49233 32.49234 h -8.70247 -8.70247 l -9.98145,-15.78199 c -5.4898,-8.6801 -10.34662,-15.78199 -10.79293,-15.78199 -0.44631,0 -0.81148,7.10189 -0.81148,15.78199 v 15.78199 h -8.35517 -8.35517 z m 12.52188,8.81083 c 0.37395,-10.47185 1.0196,-19.24967 1.43478,-19.50627 1.15144,-0.71163 6.07113,5.90181 17.10663,22.99611 l 10.03849,15.54991 h 4.9788 4.9788 v -27.85058 -27.85057 h -3.58722 c -3.56378,0 -3.59109,0.0281 -4.17759,4.30716 -0.3247,2.36894 -0.59036,10.88183 -0.59036,18.91755 0,11.36098 -0.28783,14.84927 -1.29417,15.68447 -1.00414,0.83336 -1.66777,0.70279 -2.96121,-0.5826 -1.4938,-1.48451 -13.08044,-18.81919 -22.0498,-32.98855 l -3.37903,-5.33803 h -4.6533 -4.65329 v 27.85057 27.85058 h 4.06428 4.06428 z"
       id="path49"
       transform="scale(0.26458333)" /><path
       style="fill:#ffffff;stroke:#000000;stroke-width:0.928352;stroke-opacity:1"
       d="m 174.94875,730.14914 c 0,-18.12608 0.12436,-25.54129 0.27635,-16.47825 0.15199,9.06304 0.15199,23.89347 0,32.95651 -0.15199,9.06304 -0.27635,1.64782 -0.27635,-16.47826 z"
       id="path50"
       transform="scale(0.26458333)" /><path
       style="fill:#ffffff;stroke:#000000;stroke-width:0.928352;stroke-opacity:1"
       d="m 158.74826,761.73296 c -1.14414,-0.72311 -1.45187,-4.23604 -1.72517,-19.6944 -0.18295,-10.34786 -0.0388,-24.29951 0.32022,-31.00366 l 0.65286,-12.18937 7.94151,-0.61043 c 4.36784,-0.33574 8.10903,-0.44293 8.31376,-0.23819 0.83396,0.83395 1.42246,40.00117 0.77951,51.87972 l -0.69091,12.76485 -7.09963,-0.0142 c -3.90479,-0.008 -7.72626,-0.41026 -8.49215,-0.8943 z m 11.14022,-31.58382 v -27.85057 h -3.7134 -3.71341 v 27.85057 27.85058 h 3.71341 3.7134 z"
       id="path51"
       transform="scale(0.26458333)" /><path
       style="fill:#ffffff;stroke:#000000;stroke-width:0.928352;stroke-opacity:1"
       d="m 263.66192,756.23091 c -4.78904,-1.70072 -11.15007,-7.03927 -11.15007,-9.35779 0,-2.23871 5.03853,-0.81827 8.03245,2.26448 6.46734,6.65921 19.42565,6.87213 24.86438,0.40856 2.60534,-3.09627 2.97778,-5.93032 1.27147,-9.67526 -1.40594,-3.08569 -3.57217,-4.18132 -16.58389,-8.38773 -11.90994,-3.85022 -16.05368,-6.92669 -17.14177,-12.72671 -0.49078,-2.6161 -0.14386,-4.25151 1.5514,-7.31332 3.11824,-5.63188 6.95854,-7.55521 16.02906,-8.02781 10.10885,-0.5267 14.3427,0.74207 18.76255,5.62264 l 3.56503,3.93665 -2.59665,0.29955 c -1.45835,0.16823 -3.63875,-0.44222 -4.97385,-1.39253 -7.14672,-5.08699 -7.02217,-5.04513 -14.0813,-4.73298 -6.13337,0.27122 -7.05754,0.56565 -9.05144,2.88369 -2.59412,3.01585 -2.97772,8.41088 -0.81734,11.49526 0.98298,1.4034 5.0351,3.14848 13.52897,5.82638 15.71633,4.95494 18.95261,7.54847 18.95261,15.1885 0,3.68188 -0.53218,5.84142 -1.90496,7.73024 -4.65491,6.40474 -18.67478,9.36096 -28.25665,5.95818 z"
       id="path53"
       transform="scale(0.26458333)" /><path
       style="fill:#ffffff;stroke:#000000;stroke-width:0.928352;stroke-opacity:1"
       d="m 188.45553,730.14914 v -26.92222 h 3.97743 c 3.50942,0 4.18337,0.35502 5.72769,3.01715 5.57242,9.60583 22.86045,34.99131 24.7139,36.28952 2.0861,1.46116 2.24415,1.43512 3.34773,-0.55159 0.78453,-1.41236 1.17217,-6.87782 1.20137,-16.93879 0.0237,-8.16951 0.30206,-16.42024 0.61854,-18.33496 0.50914,-3.08025 0.88229,-3.48133 3.23902,-3.48133 h 2.66359 v 26.97309 26.97308 l -4.34668,-0.28295 -4.34668,-0.28295 -10.5134,-16.22262 c -13.45526,-20.76204 -15.34568,-23.13301 -17.21046,-21.58538 -1.1293,0.93724 -1.54443,4.8599 -2.08708,19.72106 l -0.67737,18.55111 h -3.1538 -3.1538 z"
       id="path54"
       transform="scale(0.26458333)" /><path
       style="fill:#ffffff;stroke:#000000;stroke-width:0.928352;stroke-opacity:1"
       d="m 163.39002,730.14914 v -26.92222 h 2.78506 2.78505 v 26.92222 26.92222 h -2.78505 -2.78506 z"
       id="path55"
       transform="scale(0.26458333)" /><path
       style="fill:#ffffff;stroke:#000000;stroke-width:0.928352;stroke-opacity:1"
       d="m 326.78004,732.9342 v -24.13716 h -9.28353 -9.28352 v -2.78506 -2.78506 h 21.81628 21.81628 v 2.78506 2.78506 h -9.28352 -9.28353 v 24.13716 24.13716 h -3.24923 -3.24923 z"
       id="path56"
       transform="scale(0.26458333)" /><path
       style="fill:#ffffff;stroke:#000000;stroke-width:0.928352;stroke-opacity:1"
       d="m 364.8903,746.6274 c 2.04522,-5.74418 6.34552,-17.75474 9.55622,-26.69013 l 5.83764,-16.24617 h 4.96249 4.96249 l 9.5768,25.99387 c 5.26724,14.29662 9.58595,26.30718 9.59713,26.69013 0.0112,0.38294 -1.37568,0.69626 -3.08192,0.69626 -2.98535,0 -3.1658,-0.20989 -4.78875,-5.57011 l -1.68649,-5.57012 h -14.55445 -14.55445 l -1.54863,5.57012 c -1.51284,5.44136 -1.62316,5.57011 -4.77265,5.57011 h -3.22401 z"
       id="path57"
       transform="scale(0.26458333)" /><path
       style="fill:#ffffff;stroke:#000000;stroke-width:0.928352;stroke-opacity:1"
       d="m 427.97045,730.14914 v -26.92222 h 3.24923 3.24923 v 24.60134 24.60134 h 13.92529 13.92528 v 2.32088 2.32088 h -17.17452 -17.17451 z"
       id="path58"
       transform="scale(0.26458333)" /><path
       style="fill:#ffffff;stroke:#000000;stroke-width:0.928352;stroke-opacity:1"
       d="m 492.65332,756.49411 c -6.82181,-2.09599 -13.93954,-9.45751 -15.97637,-16.52357 -4.52491,-15.69757 2.27287,-30.98842 15.78457,-35.50564 12.11702,-4.05095 23.93358,-0.46034 30.66504,9.31795 3.63831,5.2851 3.71993,5.58218 4.03545,14.68837 0.41374,11.94039 -0.93053,15.70858 -7.86469,22.04601 -7.74969,7.08278 -16.59016,9.06591 -26.644,5.97688 z m 16.64546,-4.9076 c 8.00642,-3.63601 11.5069,-9.82823 11.5069,-20.35531 0,-15.3215 -6.51672,-23.36251 -18.9338,-23.36251 -6.3267,0 -9.44953,1.14862 -13.40565,4.93079 -5.2454,5.01476 -6.14353,7.55253 -6.14011,17.34966 0.004,12.39753 2.62889,17.22319 11.57404,21.28067 5.18217,2.35062 10.44961,2.40422 15.39862,0.1567 z"
       id="path59"
       transform="scale(0.26458333)" /><path
       style="fill:#ffffff;stroke:#000000;stroke-width:0.928352;stroke-opacity:1"
       d=""
       id="path60"
       transform="scale(0.26458333)" /><path
       style="fill:#ffffff;stroke:#000000;stroke-width:0.928352;stroke-opacity:1"
       d="m 563.50989,757.13159 c -12.40195,-3.78618 -18.511,-12.3326 -18.54666,-25.94639 -0.0283,-10.79028 1.26646,-14.41666 7.38222,-20.67673 5.74969,-5.88538 9.20452,-7.27119 18.12709,-7.27119 8.91818,0 12.37683,1.38653 18.13761,7.27119 8.60447,8.78948 10.54055,19.86864 5.51395,31.55329 -4.90974,11.41301 -19.33426,18.51347 -30.61421,15.06983 z m 16.48522,-6.32188 c 5.1234,-2.64652 8.39631,-7.90512 9.3941,-15.09354 1.6661,-12.00324 -1.78776,-21.21176 -9.67176,-25.78644 -3.08142,-1.78798 -4.7506,-2.08671 -10.33722,-1.84998 -5.82709,0.24692 -7.10746,0.64008 -10.21188,3.13576 -1.9522,1.56939 -4.59385,4.69601 -5.87033,6.94804 -1.98544,3.50279 -2.31513,5.23511 -2.28104,11.98559 0.0596,11.79837 3.87086,18.56603 12.52065,22.23286 3.29273,1.39586 12.39486,0.52627 16.45748,-1.57229 z"
       id="path61"
       transform="scale(0.26458333)" /><path
       style="fill:#ffffff;stroke:#000000;stroke-width:0.928352;stroke-opacity:1"
       d="m 615.49763,730.14914 v -26.92222 h 2.78505 2.78506 v 10.03444 c 0,10.95293 0.98421,13.87106 4.32115,12.81196 1.02234,-0.32448 6.21249,-5.56502 11.53367,-11.64564 9.12007,-10.42169 9.87865,-11.05984 13.22842,-11.12822 l 3.55356,-0.0725 -3.55356,4.05747 c -16.79284,19.17417 -16.20439,18.24647 -14.08532,22.20599 0.58994,1.10233 5.18529,7.48186 10.21187,14.17674 5.02659,6.69488 9.13925,12.44964 9.13925,12.78837 0,0.33873 -1.40489,0.61587 -3.12198,0.61587 -2.92231,0 -3.71203,-0.7865 -12.34735,-12.29694 -5.07394,-6.76332 -9.9796,-12.4422 -10.90146,-12.61973 -0.957,-0.1843 -3.028,0.98752 -4.82717,2.73135 l -3.15108,3.05415 v 9.56558 9.56559 h -2.78506 -2.78505 z"
       id="path62"
       transform="scale(0.26458333)" /><path
       style="fill:#000000;stroke:#000000;stroke-width:0.656444;stroke-opacity:0"
       d="m 365.24058,748.18234 c 1.5691,-4.4228 5.74241,-16.09109 9.27402,-25.92955 l 6.42109,-17.88811 4.33199,3.9e-4 4.33198,4e-4 8.94122,24.45215 c 11.31075,30.93232 10.35531,27.54318 7.69283,27.28803 -2.11287,-0.20248 -2.2605,-0.40668 -4.07596,-5.63766 l -1.88369,-5.42758 -15.12852,0.17602 -15.12851,0.17602 -1.27361,4.59511 c -1.52867,5.5154 -2.04673,6.23622 -4.48202,6.23622 h -1.87374 z"
       id="path20"
       transform="scale(0.26458333)" /><path
       style="fill:#000000;stroke:#000000;stroke-width:0.656444;stroke-opacity:0"
       d="m 325.75212,733.74056 0.15577,-24.45255 0.17993,23.96022 0.17992,23.96021 3.26673,-0.22692 3.26672,-0.22693 0.17256,-24.06151 0.17257,-24.06151 0.32779,24.78103 0.32779,24.78102 -4.10277,-2.5e-4 -4.10278,-2.6e-4 z"
       id="path21"
       transform="scale(0.26458333)" /><path
       style="fill:#000000;stroke:#000000;stroke-width:0.656444;stroke-opacity:0"
       d="m 327.56568,732.26356 v -23.96021 h -9.19022 -9.19022 v -2.29756 -2.29755 h 21.00622 21.00621 v 2.29755 2.29756 h -9.19021 -9.19022 v 22.92186 c 0,12.60702 -0.17931,23.38912 -0.39846,23.96021 -0.255,0.66454 -1.20031,1.03836 -2.62578,1.03836 h -2.22732 z"
       id="path22"
       transform="scale(0.26458333)" /><path
       style="fill:#000000;stroke:#000000;stroke-width:0.656444;stroke-opacity:0"
       d="m 265.67825,755.94827 c -3.60736,-0.9702 -9.7341,-4.96656 -11.31642,-7.38148 -0.59359,-0.90593 -0.94892,-1.77748 -0.78962,-1.93678 0.56198,-0.56198 3.98876,1.13016 6.17371,3.04858 3.72931,3.27437 7.3492,4.75689 12.42449,5.08841 9.5932,0.62664 16.01251,-3.84396 16.00616,-11.14717 -0.003,-3.35534 -1.81498,-6.63868 -4.39951,-7.97165 -1.00884,-0.52031 -5.82215,-2.33965 -10.69625,-4.04298 -10.93972,-3.82307 -14.32846,-5.5125 -16.87508,-8.41293 -2.68926,-3.0629 -3.22093,-6.24015 -1.64164,-9.81039 2.91722,-6.59486 7.88654,-9.01971 18.47175,-9.01354 8.33953,0.005 10.72734,0.7552 14.76506,4.63968 3.15917,3.03928 3.24371,3.20641 1.62868,3.21983 -0.9369,0.008 -3.5955,-1.24129 -5.908,-2.77572 l -4.20455,-2.78989 h -7.33284 c -6.91589,0 -7.43266,0.0933 -9.08848,1.64111 -2.60937,2.43915 -3.60023,4.79691 -3.60023,8.56682 0,5.3144 1.96175,6.81021 14.44177,11.01168 16.99529,5.72157 19.385,7.73569 18.921,15.94723 -0.21929,3.88087 -0.51092,4.74522 -2.20188,6.52591 -5.15168,5.42505 -16.16226,7.91052 -24.77812,5.59328 z"
       id="path23"
       transform="scale(0.26458333)" /><path
       style="fill:#000000;stroke:#000000;stroke-width:0.656444;stroke-opacity:0"
       d="m 189.05594,729.87678 v -26.34699 l 3.1085,0.42606 c 1.70967,0.23434 3.59275,0.93914 4.18463,1.56623 0.59187,0.62709 3.21004,4.53726 5.81815,8.68927 6.34156,10.09554 16.92356,25.33514 19.46023,28.02554 1.12576,1.19399 2.54398,2.17089 3.1516,2.17089 2.42489,0 3.05672,-3.9016 3.56837,-22.03482 0.26859,-9.51905 0.62203,-17.44106 0.78544,-17.60446 0.1634,-0.16341 1.10884,-0.50084 2.10097,-0.74985 l 1.80388,-0.45274 v 26.32893 26.32894 l -3.11811,-0.01 c -1.71496,-0.006 -3.43819,-0.22708 -3.8294,-0.49234 -0.39121,-0.26525 -5.34128,-7.60654 -11.00014,-16.31396 -10.36107,-15.94283 -14.8723,-21.91386 -16.55633,-21.91386 -2.16881,0 -2.87154,2.86882 -3.54314,14.46454 -0.36522,6.30575 -0.66832,14.34515 -0.67356,17.86534 l -0.01,6.40033 h -2.62578 -2.62578 z"
       id="path24"
       transform="scale(0.26458333)" /><path
       style="fill:#000000;stroke:#000000;stroke-width:0.656444;stroke-opacity:0"
       d="m 163.75409,729.96601 c 0,-14.6223 0.0864,-20.60415 0.19208,-13.293 0.10564,7.31115 0.10564,19.27485 0,26.58599 -0.10564,7.31115 -0.19208,1.3293 -0.19208,-13.29299 z"
       id="path25"
       transform="scale(0.26458333)" /><path
       style="fill:#000000;stroke:#000000;stroke-width:0.656444;stroke-opacity:0"
       d="m 164.11106,729.96601 v -26.25777 h 1.96934 1.96933 v 26.25777 26.25777 h -1.96933 -1.96934 z"
       id="path26"
       transform="scale(0.26458333)" /><path
       style="fill:#000000;stroke:#000000;stroke-width:0.656444;stroke-opacity:0"
       d="m 428.6581,729.96601 v -26.25777 h 2.62577 2.62578 v 24.61666 24.61666 h 13.78533 13.78533 v 1.64111 1.64111 H 445.0692 428.6581 Z"
       id="path27"
       transform="scale(0.26458333)" /><path
       style="fill:#000000;stroke:#000000;stroke-width:0.656444;stroke-opacity:0"
       d="m 493.9743,755.99275 c -4.31661,-1.41576 -6.65898,-2.88003 -10.08048,-6.30152 -12.94364,-12.94364 -9.27063,-35.87026 6.97893,-43.56192 4.04573,-1.91503 4.96368,-2.08969 10.99038,-2.0912 6.09362,-0.002 6.89395,0.15482 10.91179,2.13175 4.70692,2.31598 8.45763,5.9281 11.46035,11.0369 1.86552,3.17398 1.9048,3.43708 1.9048,12.75925 0,8.62659 -0.14252,9.8078 -1.52109,12.60666 -1.94084,3.94042 -8.15387,9.70462 -13.05356,12.11054 -3.14642,1.54502 -4.7725,1.89495 -9.38557,2.01977 -3.25433,0.088 -6.6741,-0.20794 -8.20555,-0.71023 z m 15.0772,-3.49822 c 4.83935,-1.5825 9.77092,-6.75222 11.23263,-11.77509 1.44595,-4.96869 1.46599,-15.1471 0.0395,-20.05408 -2.76678,-9.51736 -10.54185,-14.45203 -21.20218,-13.45655 -5.2658,0.49172 -8.27416,2.05999 -12.47774,6.50465 -4.18304,4.42295 -4.80526,6.53121 -4.80997,16.29751 -0.006,12.16484 2.27726,17.10833 9.78981,21.19717 5.81095,3.16271 10.60743,3.51675 17.42795,1.28639 z"
       id="path28"
       transform="scale(0.26458333)" /><path
       style="fill:#000000;stroke:#000000;stroke-width:0.656444;stroke-opacity:0"
       d="m 560.9927,755.25494 c -6.81219,-2.80058 -11.25628,-7.30645 -13.63355,-13.82307 -1.16282,-3.18758 -1.42678,-5.32972 -1.41783,-11.50649 0.01,-6.78517 0.19365,-7.98873 1.73412,-11.35354 1.85935,-4.06137 7.91132,-10.65077 11.47431,-12.49326 4.83572,-2.50065 17.76489,-2.50065 22.60061,0 3.78934,1.95954 9.60196,8.42329 11.85799,13.18633 1.90425,4.02034 2.11245,5.0531 2.09108,10.37288 -0.0279,6.94164 -1.50935,11.67375 -5.25005,16.7696 -6.67374,9.09146 -19.4957,12.94263 -29.45668,8.84755 z m 15.36535,-2.36167 c 9.10072,-2.07227 14.02963,-10.14981 13.99019,-22.92726 -0.0235,-7.61113 -1.69303,-12.58051 -5.67964,-16.90547 -4.36432,-4.73473 -6.89183,-5.72762 -14.31793,-5.62458 -4.4237,0.0614 -7.0377,0.42108 -8.66217,1.19194 -2.92109,1.38615 -7.73306,6.48204 -9.62761,10.19567 -2.7128,5.31751 -2.39536,17.80809 0.62668,24.65823 1.5059,3.41349 5.37103,7.29202 8.83411,8.86475 3.04961,1.38495 10.0261,1.64204 14.83637,0.54672 z"
       id="path29"
       transform="scale(0.26458333)" /><path
       style="fill:#000000;stroke:#000000;stroke-width:0.656444;stroke-opacity:0"
       d="m 616.40115,729.96601 v -26.25777 h 1.96934 1.96933 l 0.004,8.69788 c 0.004,9.58119 0.69108,13.24421 2.68419,14.31089 2.1447,1.1478 4.66604,-0.86356 14.3337,-11.43446 9.31314,-10.18328 10.4197,-11.1364 12.53501,-10.79694 1.05395,0.16914 -0.11173,1.83848 -6.33299,9.06929 -4.19358,4.8741 -8.08746,9.82205 -8.65305,10.99544 -0.94157,1.95339 -0.93489,2.32945 0.0792,4.45591 0.60913,1.27736 5.09484,7.73892 9.96825,14.35903 4.8734,6.62011 8.86074,12.2215 8.86074,12.44753 0,0.22603 -0.69822,0.41097 -1.5516,0.41097 -1.95687,0 -3.84385,-1.89366 -10.46607,-10.50311 -7.28818,-9.47526 -10.98727,-13.70618 -12.36583,-14.14372 -1.52313,-0.48342 -3.59111,0.61494 -6.6335,3.52323 l -2.46166,2.35316 v 9.38522 9.38522 h -1.96933 -1.96934 z"
       id="path30"
       transform="scale(0.26458333)" /></g></svg>
